<svg width="20" height="20" viewBox="0 0 20 20" fill="none" xmlns="http://www.w3.org/2000/svg">
<path d="M19.4975 6.00503H0.502513C0.226131 6.00503 0 5.77889 0 5.50251C0 5.22613 0.226131 5 0.502513 5H19.4975C19.7739 5 20 5.22613 20 5.50251C20 5.77889 19.7739 6.00503 19.4975 6.00503Z" fill="black"/>
<path d="M19.4975 10.7538H0.502513C0.226131 10.7538 0 10.5276 0 10.2513C0 9.97487 0.226131 9.74874 0.502513 9.74874H19.4975C19.7739 9.74874 20 9.97487 20 10.2513C20 10.5276 19.7739 10.7538 19.4975 10.7538Z" fill="black"/>
<path d="M19.4975 15.5025H0.502513C0.226131 15.5025 0 15.2764 0 15C0 14.7236 0.226131 14.4975 0.502513 14.4975H19.4975C19.7739 14.4975 20 14.7236 20 15C20 15.2764 19.7739 15.5025 19.4975 15.5025Z" fill="black"/>
</svg>
