<svg width="20" height="21" viewBox="0 0 20 21" fill="none" xmlns="http://www.w3.org/2000/svg">
<g id="icon/shopping">
<path id="Union" fill-rule="evenodd" clip-rule="evenodd" d="M1.25346 1.85783C1.10969 1.71406 0.876595 1.71406 0.732827 1.85783C0.589058 2.0016 0.589058 2.23469 0.732827 2.37846L2.36145 4.00709V5.59674V11.1618V14.6409C2.36145 15.6112 3.15212 16.4018 4.1224 16.4018H4.61689C4.30098 16.7701 4.10989 17.2484 4.10989 17.7705C4.10989 18.9309 5.05395 19.875 6.21444 19.875C7.37408 19.875 8.31899 18.9379 8.31899 17.7705C8.31899 17.2484 8.12791 16.7701 7.812 16.4018H15.0539C14.738 16.7701 14.5469 17.2484 14.5469 17.7705C14.5469 18.9309 15.491 19.875 16.6514 19.875C17.8111 19.875 18.756 18.9379 18.756 17.7705C18.756 16.61 17.8119 15.6659 16.6514 15.6659L16.6454 15.6659V15.6655H4.1224C3.55876 15.6655 3.09774 15.2045 3.09774 14.6409V12.5928C3.38667 12.8004 3.74064 12.9228 4.1224 12.9228H16.9951C17.9654 12.9228 18.7561 12.1321 18.7561 11.1618V7.33315C18.7561 7.13594 18.601 6.97494 18.4061 6.96545L3.09774 5.26718V3.8543H3.09769C3.09763 3.76017 3.06169 3.66605 2.98987 3.59423L1.25346 1.85783ZM3.09774 11.1618V6.00799L18.0198 7.66339V11.1618C18.0198 11.7255 17.5588 12.1865 16.9951 12.1865H4.1224C3.55876 12.1865 3.09774 11.7255 3.09774 11.1618ZM16.6514 16.4022C15.8976 16.4022 15.2832 17.0166 15.2832 17.7705C15.2832 18.5243 15.8976 19.1387 16.6514 19.1387C17.4061 19.1387 18.0197 18.5296 18.0197 17.7705C18.0197 17.0166 17.4053 16.4022 16.6514 16.4022ZM4.84618 17.7705C4.84618 17.0166 5.46059 16.4022 6.21444 16.4022C6.96829 16.4022 7.58271 17.0166 7.58271 17.7705C7.58271 18.5296 6.96914 19.1387 6.21444 19.1387C5.46059 19.1387 4.84618 18.5243 4.84618 17.7705Z" fill="black"/>
</g>
</svg>
