<svg width="20" height="21" viewBox="0 0 20 21" fill="none" xmlns="http://www.w3.org/2000/svg">
<g id="icon/user">
<path id="Union (Stroke)" fill-rule="evenodd" clip-rule="evenodd" d="M9.85026 1.875C7.17875 1.875 4.91901 4.42523 4.91901 7.7C4.91901 10.9639 7.17068 13.5095 9.83175 13.5249C9.84006 13.525 9.84829 13.5253 9.85646 13.5259C9.86462 13.5253 9.87286 13.525 9.88115 13.5249C12.5241 13.5097 14.7632 10.9986 14.7937 7.76682C14.7898 7.74514 14.7878 7.72281 14.7878 7.7C14.7878 4.42584 12.5223 1.875 9.85026 1.875ZM15.5374 7.62974C15.505 4.08496 13.0198 1.125 9.85026 1.125C6.65926 1.125 4.16901 4.12478 4.16901 7.7C4.16901 10.3229 5.51233 12.6353 7.48744 13.6817C5.93492 13.8918 4.53858 14.3043 3.41849 14.8659C1.78041 15.6873 0.625 16.8903 0.625 18.3312V19.2187C0.625 19.4258 0.792893 19.5937 1 19.5937H18.7188C18.9259 19.5937 19.0938 19.4258 19.0938 19.2187V18.3312C19.0938 18.3059 19.0912 18.2812 19.0865 18.2573C19.0477 16.8521 17.9038 15.6762 16.2943 14.8684C15.1741 14.3062 13.7776 13.8927 12.2248 13.6821C14.2003 12.6359 15.544 10.3233 15.544 7.7C15.544 7.67598 15.5417 7.6525 15.5374 7.62974ZM9.85644 14.274C9.86514 14.2746 9.87391 14.2749 9.88276 14.2749C12.2746 14.2785 14.4221 14.768 15.9579 15.5387C17.516 16.3208 18.3375 17.3298 18.3375 18.3312C18.3375 18.3546 18.3396 18.3775 18.3438 18.3997V18.8437H1.375V18.3312C1.375 17.3265 2.19676 16.3175 3.75465 15.5364C5.29037 14.7664 7.43799 14.2785 9.83013 14.2749C9.83898 14.2749 9.84775 14.2746 9.85644 14.274Z" fill="#2D2C2E"/>
</g>
</svg>
