<svg width="16" height="16" viewBox="0 0 16 16" fill="none" xmlns="http://www.w3.org/2000/svg">
<g clip-path="url(#clip0_5007_22322)">
<path d="M0.367288 7.67385L15.6288 7.67384C15.8104 7.67384 15.957 7.82051 15.957 8.00205C15.957 8.18359 15.8104 8.33026 15.6288 8.33026L1.16011 8.33026L3.1519 10.3221C3.28011 10.4503 3.28011 10.6585 3.1519 10.7867C3.0237 10.9149 2.81549 10.9149 2.68729 10.7867L0.134469 8.23385C0.0401094 8.13949 0.0124166 7.99897 0.0636985 7.8759C0.11498 7.75385 0.23498 7.67385 0.367288 7.67385Z" fill="black"/>
<path d="M2.92205 5.11795C3.00615 5.11795 3.09026 5.14974 3.15385 5.21436C3.28205 5.34256 3.28205 5.55077 3.15385 5.67897L0.597948 8.23487C0.469743 8.36308 0.261539 8.36308 0.133334 8.23487C0.0051286 8.10667 0.00512858 7.89846 0.133334 7.77026L2.68923 5.21436C2.75385 5.14974 2.83795 5.11795 2.92205 5.11795Z" fill="black"/>
</g>
<defs>
<clipPath id="clip0_5007_22322">
<rect width="16" height="16" fill="white" transform="translate(16 16) rotate(180)"/>
</clipPath>
</defs>
</svg>
