<svg width="120" height="120" viewBox="0 0 120 120" fill="none" xmlns="http://www.w3.org/2000/svg">
<rect width="120" height="120" rx="60" fill="#ECECEA"/>
<path fill-rule="evenodd" clip-rule="evenodd" d="M63.0542 31.1439C63.0542 30.5122 62.5421 30 61.9103 30C61.2785 30 60.7663 30.5122 60.7663 31.1439V33.689C50.6937 34.1876 42.3409 41.2346 39.8836 50.6663L33.8322 66.8095C33.804 66.8799 33.7825 66.9538 33.7687 67.0302C33.7441 67.1641 33.7442 67.2985 33.7664 67.428C33.7954 67.5988 33.8622 67.7567 33.9579 67.8928C34.0492 68.0231 34.1682 68.1353 34.3104 68.2194C34.4275 68.2891 34.558 68.3384 34.6972 68.3625C34.7716 68.3756 34.8461 68.3811 34.9198 68.3794H39.1456V74.7855C39.1456 80.1854 43.5679 84.5853 48.9454 84.5853H55.3706V88.8561C55.3706 89.4878 55.8827 90 56.5145 90C57.1463 90 57.6585 89.4878 57.6585 88.8561V83.4414C57.6585 82.8096 57.1463 82.2974 56.5145 82.2974H48.9454C44.8282 82.2974 41.4335 78.9185 41.4335 74.7855V67.2627L41.4338 67.2355C41.4338 66.6037 40.9216 66.0916 40.2899 66.0916H36.5447L42.0474 51.4121C42.0645 51.3665 42.0785 51.3205 42.0895 51.2744C44.2801 42.8109 51.749 36.4768 60.7663 35.98V53.8167C60.1068 53.9104 59.4481 54.0877 58.8042 54.3544C54.6794 56.063 52.7207 60.7918 54.4292 64.9165C54.6953 65.5588 55.0345 66.1485 55.4333 66.6801L50.2722 71.8412C49.8254 72.288 49.8254 73.0123 50.2722 73.459C50.7189 73.9057 51.4432 73.9057 51.8899 73.459L57.0531 68.2959C59.262 69.9459 62.2592 70.4232 64.9913 69.2915C69.1161 67.583 71.0748 62.8541 69.3663 58.7294C68.2353 55.999 65.7808 54.2177 63.0542 53.821V35.9801C73.8261 36.5741 82.3869 45.5057 82.3869 56.4252C82.3869 61.6222 80.4592 66.3478 77.2846 69.9595C77.1145 70.1486 77.0065 70.3946 76.9928 70.6656C76.9918 70.6851 76.9913 70.7047 76.9913 70.7244V88.856C76.9913 89.4878 77.5035 89.9999 78.1352 89.9999C78.767 89.9999 79.2792 89.4878 79.2792 88.856V71.1499C82.6411 67.1803 84.6748 62.0484 84.6748 56.4252C84.6748 44.2418 75.0903 34.2854 63.0542 33.689V31.1439ZM60.7663 56.1373C60.4009 56.2105 60.0371 56.3201 59.6797 56.4682C56.7224 57.6931 55.318 61.0836 56.543 64.041C56.6903 64.3967 56.869 64.73 57.0745 65.0389L60.7663 61.3471V56.1373ZM58.6947 66.6542L62.7384 62.6106C63.0152 62.3338 63.1205 61.9503 63.0542 61.5924V56.1429C64.8765 56.5157 66.4872 57.7572 67.2526 59.6049C68.4775 62.5623 67.0732 65.9528 64.1158 67.1777C62.2663 67.9438 60.2474 67.6816 58.6947 66.6542Z" fill="black"/>
</svg>
