<?xml version="1.0" encoding="utf-8"?>
<!-- Generator: Adobe Illustrator 25.0.1, SVG Export Plug-In . SVG Version: 6.00 Build 0)  -->
<svg version="1.1" id="圖層_1" xmlns="http://www.w3.org/2000/svg" xmlns:xlink="http://www.w3.org/1999/xlink" x="0px" y="0px"
	 viewBox="0 0 120 120" style="enable-background:new 0 0 120 120;" xml:space="preserve">
<style type="text/css">
	.st0{clip-path:url(#SVGID_4_);}
	.st1{fill:#4E4E51;}
</style>
<g>
	<defs>
		<path id="SVGID_1_" d="M60,0L60,0c33.1,0,60,26.9,60,60l0,0c0,33.1-26.9,60-60,60l0,0C26.9,120,0,93.1,0,60l0,0
			C0,26.9,26.9,0,60,0z"/>
	</defs>
	<clipPath id="SVGID_2_">
		<use xlink:href="#SVGID_1_"  style="overflow:visible;"/>
	</clipPath>
</g>
<g>
	<defs>
		<rect id="SVGID_3_" x="32" y="32" width="56" height="56"/>
	</defs>
	<clipPath id="SVGID_4_">
		<use xlink:href="#SVGID_3_"  style="overflow:visible;"/>
	</clipPath>
	<g id="icon_x2F_brandname" class="st0">
		<g id="Yale">
			<path class="st1" d="M32,47.8h3.2l6.9,12l7-12h3.1l-8.6,14.6v9.4h-2.9v-9.4L32,47.8z"/>
			<path class="st1" d="M48.7,66.9c0-1.8,0.7-3.1,2.1-4c1.1-0.6,2.5-0.9,4.9-0.9h4.7v-1.3c0-2.1-0.6-3.9-4.2-3.9
				c-3,0-3.9,1.4-4.1,2.8h-2.7c0.2-2.7,2.1-5.1,6.8-5.1c5.6,0,7,3.2,7,6.4v10.9h-2.8v-1.9C59.3,71.4,57.1,72,55,72
				C49.9,72,48.7,69,48.7,66.9z M51.4,66.9c0,1.3,0.6,2.9,4,2.9c2.9,0,5-1.2,5-3.2v-2.5h-4.6c-1.7,0-2.6,0.2-3.3,0.6
				C51.8,65.2,51.4,65.9,51.4,66.9z"/>
			<path class="st1" d="M72.1,71.8c-4.6,0.2-6.1-1.4-6.1-4.7V47.8h2.8V67c0,2,0.8,2.5,3.3,2.4V71.8z"/>
			<path class="st1" d="M72.4,63.5c0-3.8,1.5-9,7.9-9c5.8,0,7.8,4.3,7.6,9.5H75.3c0.1,2.9,1.1,5.7,5.3,5.7c3.1,0,4.2-1.5,4.5-2.8
				h2.7c-0.3,2.5-2.6,5-7.2,5C73.9,72,72.4,66.9,72.4,63.5z M75.3,61.9h9.8c-0.2-2.6-1.1-5.1-4.8-5.1C76.7,56.8,75.5,59.3,75.3,61.9
				z"/>
		</g>
	</g>
</g>
</svg>
