<?xml version="1.0" encoding="utf-8"?>
<!-- Generator: Adobe Illustrator 25.0.1, SVG Export Plug-In . SVG Version: 6.00 Build 0)  -->
<svg version="1.1" id="圖層_1" xmlns="http://www.w3.org/2000/svg" xmlns:xlink="http://www.w3.org/1999/xlink" x="0px" y="0px"
	 viewBox="0 0 120 120" style="enable-background:new 0 0 120 120;" xml:space="preserve">
<style type="text/css">
	.st0{clip-path:url(#SVGID_4_);}
	.st1{fill-rule:evenodd;clip-rule:evenodd;fill:#4E4E51;}
</style>
<g>
	<defs>
		<path id="SVGID_1_" d="M60,0L60,0c33.1,0,60,26.9,60,60l0,0c0,33.1-26.9,60-60,60l0,0C26.9,120,0,93.1,0,60l0,0
			C0,26.9,26.9,0,60,0z"/>
	</defs>
	<clipPath id="SVGID_2_">
		<use xlink:href="#SVGID_1_"  style="overflow:visible;"/>
	</clipPath>
</g>
<g>
	<defs>
		<rect id="SVGID_3_" x="32" y="32" width="56" height="56"/>
	</defs>
	<clipPath id="SVGID_4_">
		<use xlink:href="#SVGID_3_"  style="overflow:visible;"/>
	</clipPath>
	<g id="icon_x2F_chat" class="st0">
		<path id="Union" class="st1" d="M86.2,58.3c0,5.2-1.6,10.1-4.6,14.3c0.3,3.2,1.8,6.1,4.2,8.3c0.3,0.3,0.4,0.8,0.3,1.2
			c-0.1,0.4-0.6,0.7-1,0.7c-3.8,0-7.3-1.4-10.1-3.9c-4,2.6-8.5,3.9-13.3,3.9h0c-0.3,0-0.6,0-0.9,0c-3,3.2-7.3,5.2-12.1,5.2
			c-3.1,0-6.2-0.9-8.8-2.5C38,87.1,35.6,88,33.1,88c-0.5,0-0.9-0.3-1-0.7c-0.2-0.4-0.1-0.9,0.3-1.2c1.5-1.3,2.4-3.2,2.7-5.2
			c-2-2.8-3.1-6.2-3.1-9.6c0-4.8,2-9.1,5.2-12.1c0-0.3,0-0.6,0-0.9c0-13.5,11-24.5,24.5-24.5S86.2,44.7,86.2,58.3z M40.4,83.2
			c2.4,1.7,5.3,2.6,8.3,2.6c3.5,0,6.7-1.2,9.2-3.3c0.7-0.6,1.4-1.3,2-2c2.1-2.5,3.3-5.7,3.3-9.2c0-8-6.5-14.5-14.5-14.5
			c-3.5,0-6.7,1.2-9.2,3.3c-0.7,0.6-1.4,1.3-2,2c-2.1,2.5-3.3,5.7-3.3,9.2c0,3.2,1,6.2,2.9,8.7c0.2,0.2,0.2,0.5,0.2,0.7
			c-0.1,1.7-0.6,3.2-1.5,4.6c1.2-0.4,2.3-1.1,3.2-2c0.2-0.2,0.5-0.3,0.8-0.3C40,83,40.2,83,40.4,83.2z M74.5,76.6
			c0.4-0.3,1-0.3,1.4,0.1c1.8,1.8,4,3,6.5,3.6c-1.7-2.3-2.8-5-3-7.9c0-0.3,0.1-0.5,0.2-0.7c2.9-3.9,4.4-8.5,4.4-13.3
			C84,46,73.8,36,61.7,36c-12,0-21.8,9.5-22.3,21.4c2.7-1.8,5.8-2.8,9.3-2.8c9.2,0,16.7,7.5,16.7,16.7c0,3.4-1,6.6-2.8,9.3
			C66.9,80.4,71,79,74.5,76.6z M42.4,69.4L42.4,69.4c1.1,0,1.9,0.8,1.9,1.9c0,0.3-0.1,0.5-0.2,0.8c-0.3,0.7-1,1.1-1.7,1.1
			c-0.1,0-0.1,0-0.2,0c-0.9-0.1-1.7-0.9-1.7-1.9c0-0.2,0-0.3,0.1-0.5C40.9,70,41.6,69.4,42.4,69.4z M48.7,69.4c-1,0-1.9,0.8-1.9,1.9
			s0.8,1.9,1.9,1.9c1,0,1.9-0.8,1.9-1.9C50.6,70.2,49.8,69.4,48.7,69.4z M53.1,71.3c0-1,0.8-1.9,1.9-1.9c1,0,1.9,0.8,1.9,1.9
			c0,1-0.8,1.9-1.9,1.9C53.9,73.2,53.1,72.3,53.1,71.3z"/>
	</g>
</g>
</svg>
