<?xml version="1.0" encoding="utf-8"?>
<!-- Generator: Adobe Illustrator 25.0.1, SVG Export Plug-In . SVG Version: 6.00 Build 0)  -->
<svg version="1.1" id="圖層_1" xmlns="http://www.w3.org/2000/svg" xmlns:xlink="http://www.w3.org/1999/xlink" x="0px" y="0px"
	 viewBox="0 0 120 120" style="enable-background:new 0 0 120 120;" xml:space="preserve">
<style type="text/css">
	.st0{clip-path:url(#SVGID_4_);}
	.st1{fill-rule:evenodd;clip-rule:evenodd;fill:#4E4E51;}
</style>
<g>
	<defs>
		<path id="SVGID_1_" d="M60,0L60,0c33.1,0,60,26.9,60,60l0,0c0,33.1-26.9,60-60,60l0,0C26.9,120,0,93.1,0,60l0,0
			C0,26.9,26.9,0,60,0z"/>
	</defs>
	<clipPath id="SVGID_2_">
		<use xlink:href="#SVGID_1_"  style="overflow:visible;"/>
	</clipPath>
</g>
<g>
	<defs>
		<rect id="SVGID_3_" x="32" y="32" width="56" height="56"/>
	</defs>
	<clipPath id="SVGID_4_">
		<use xlink:href="#SVGID_3_"  style="overflow:visible;"/>
	</clipPath>
	<g id="icon_x2F_store" class="st0">
		<path id="Union" class="st1" d="M79.1,36H76l0.1,1l1.5,13.4c0,0,0,0.1,0,0.1h0c0,1.8,1.5,3.2,3.2,3.2c1.7,0,3.1-1.4,3.2-3.1
			L79.1,36z M73.8,36h-5.5l0.2,4.9l0.5,9.6c0,0,0,0,0,0.1h0c0,1.8,1.5,3.2,3.2,3.2c1.7,0,3.1-1.4,3.2-3.1c0,0,0,0,0-0.1L74,38
			L73.8,36z M66,36h-5.8v9v5.2c0,0.1,0,0.2,0,0.3c0,1.8,1.5,3.2,3.2,3.2c1.7,0,3.1-1.4,3.2-3.1c0,0,0-0.1,0-0.1l-0.4-8.6L66,36z
			 M58,36h-5.5l-0.8,13.4l-0.1,1.2c0,1.8,1.5,3.2,3.2,3.2c1.8,0,3.2-1.4,3.2-3.2l0,0v-4.4V36z M50.3,36h-5.8l-1.6,14.5h0
			c0,1.8,1.5,3.2,3.2,3.2c1.8,0,3.2-1.4,3.2-3.2c0,0,0-0.1,0-0.1L50.3,36z M42.3,36h-3.2l-4.9,14.6c0.1,1.7,1.5,3.1,3.2,3.1
			c1.7,0,3.1-1.4,3.2-3.1c0-0.1,0-0.2,0-0.3L42.3,36z M38.2,33.8c-0.5,0-0.8,0.4-1,0.8l-5.2,15.6c-0.1,0.2-0.1,0.4,0,0.6
			c0.1,2.8,2.4,5.1,5.2,5.2v31c0,0,0,0,0,0c0,0.3,0.1,0.5,0.3,0.7c0.2,0.2,0.5,0.4,0.8,0.4c0,0,0,0,0,0h41.6c0,0,0,0,0,0
			c0.6,0,1.1-0.5,1.1-1.1v-31c2.9-0.1,5.2-2.5,5.2-5.4c0-0.1,0-0.2,0-0.3c0,0,0-0.1,0-0.1L81,34.5c-0.1-0.3-0.2-0.5-0.5-0.6
			c-0.1-0.1-0.3-0.1-0.4-0.2c-0.1,0-0.1,0-0.2,0H38.3C38.3,33.7,38.2,33.8,38.2,33.8z M78.8,85.8V55.5c-0.9-0.4-1.7-1-2.4-1.8
			c-1,1.3-2.6,2.2-4.3,2.2s-3.3-0.8-4.3-2.2c-1,1.3-2.6,2.2-4.3,2.2c-1.8,0-3.4-0.9-4.4-2.2c-1,1.3-2.6,2.2-4.4,2.2
			c-1.8,0-3.3-0.8-4.3-2.2c-1,1.3-2.6,2.2-4.3,2.2s-3.3-0.8-4.3-2.2c-0.6,0.8-1.4,1.4-2.4,1.8v30.3H78.8z M43.5,59.8
			c-0.6,0-1.1,0.5-1.1,1.1v15.6c0,0.6,0.5,1.1,1.1,1.1h31.2c0.6,0,1.1-0.5,1.1-1.1V60.9c0-0.6-0.5-1.1-1.1-1.1H43.5z M44.6,75.4V62
			h29v13.4H44.6z"/>
	</g>
</g>
</svg>
