<svg width="31" height="30" viewBox="0 0 31 30" fill="none" xmlns="http://www.w3.org/2000/svg">
<path d="M4.73076 27.0833C4.05956 27.0833 3.49913 26.8585 3.04948 26.4089C2.59983 25.9592 2.375 25.3988 2.375 24.7276V6.10576C2.375 5.43456 2.59983 4.87413 3.04948 4.42448C3.49913 3.97483 4.05956 3.75 4.73076 3.75H26.2692C26.9404 3.75 27.5009 3.97483 27.9505 4.42448C28.4002 4.87413 28.625 5.43456 28.625 6.10576V24.7276C28.625 25.3988 28.4002 25.9592 27.9505 26.4089C27.5009 26.8585 26.9404 27.0833 26.2692 27.0833H4.73076ZM4.73076 25.625H26.2692C26.4936 25.625 26.6992 25.5315 26.8862 25.3446C27.0732 25.1576 27.1667 24.9519 27.1667 24.7276V6.10576C27.1667 5.88141 27.0732 5.67575 26.8862 5.48877C26.6992 5.30181 26.4936 5.20833 26.2692 5.20833H4.73076C4.50642 5.20833 4.30075 5.30181 4.11377 5.48877C3.92681 5.67575 3.83333 5.88141 3.83333 6.10576V24.7276C3.83333 24.9519 3.92681 25.1576 4.11377 25.3446C4.30075 25.5315 4.50642 25.625 4.73076 25.625ZM6.02083 21.9792H11.8542V20.5208H6.02083V21.9792ZM19.2188 18.754L25.3999 12.5729L24.3594 11.5324L19.2188 16.7095L17.1406 14.6314L16.1366 15.6719L19.2188 18.754ZM6.02083 16.1458H11.8542V14.6875H6.02083V16.1458ZM6.02083 10.3125H11.8542V8.85417H6.02083V10.3125Z" fill="#1C1B1F"/>
</svg>
