<svg width="79" height="56" viewBox="0 0 79 56" fill="none" xmlns="http://www.w3.org/2000/svg">
<path d="M62.3732 7.80667H16.6355C13.0269 7.80667 10.1016 9.85024 10.1016 12.3711V44.3222C10.1016 46.8431 13.0269 48.8867 16.6355 48.8867H62.3732C65.9818 48.8867 68.9072 46.8431 68.9072 44.3222V12.3711C68.9072 9.85024 65.9818 7.80667 62.3732 7.80667Z" stroke="black" stroke-width="2" stroke-linecap="round" stroke-linejoin="round"/>
<path d="M68.9084 35.1933L52.5735 23.7822L16.6367 48.8867" stroke="black" stroke-width="2" stroke-linecap="round" stroke-linejoin="round"/>
<path d="M28.0684 23.7822C30.7749 23.7822 32.9689 22.2496 32.9689 20.3589C32.9689 18.4682 30.7749 16.9356 28.0684 16.9356C25.362 16.9356 23.168 18.4682 23.168 20.3589C23.168 22.2496 25.362 23.7822 28.0684 23.7822Z" stroke="black" stroke-width="2" stroke-linecap="round" stroke-linejoin="round"/>
</svg>
