<svg width="37" height="36" viewBox="0 0 37 36" fill="none" xmlns="http://www.w3.org/2000/svg">
<path d="M34.4223 27.415L24.1799 17.186C23.8035 16.8096 23.3599 16.5676 22.8895 16.4198L23.6825 15.6267L24.1261 16.0703C25.3359 17.28 27.2983 17.28 28.5081 16.0703L33.347 11.2179C33.9384 10.6399 34.261 9.87376 34.261 9.04039C34.261 8.20701 33.9384 7.4274 33.347 6.83598L32.3389 5.82786C32.0297 5.51871 31.5055 5.51871 31.1964 5.82786L27.8629 9.22857L26.2499 7.68279L29.6506 4.28209C29.9597 3.97293 29.9597 3.46215 29.6506 3.13956L28.5081 1.99703C27.3386 0.827614 25.2955 0.841055 24.1261 1.99703L19.2737 6.83598C18.0774 8.04571 18.0774 10.0082 19.2737 11.2179L19.8517 11.7959L16.6392 15.0084L12.5126 10.8819C12.5126 10.8819 12.4185 10.7878 12.3513 10.7609L12.6067 10.5055C13.225 9.90064 13.225 8.90597 12.6067 8.28766L8.30544 3.98637C8.00972 3.69066 7.61992 3.51592 7.18979 3.51592C6.75966 3.51592 6.3833 3.69066 6.08759 3.97293L4.46116 5.59936C4.17889 5.89507 4.00415 6.28487 4.00415 6.70156C4.00415 7.11825 4.17889 7.52149 4.46116 7.81721L8.77589 12.1185C9.07161 12.4277 9.47485 12.589 9.89154 12.589C10.3082 12.589 10.698 12.4142 10.9937 12.1319L11.2491 11.8765C11.2491 11.8765 11.3163 11.9841 11.3701 12.0244L15.4967 16.151L2.08201 29.5522C1.7863 29.8479 1.625 30.2377 1.625 30.6678C1.625 31.0979 1.7863 31.4743 2.08201 31.7834L3.69499 33.383C3.99071 33.6921 4.39395 33.8669 4.81064 33.8669C5.22733 33.8669 5.63057 33.6921 5.91285 33.3964L16.8677 22.4416C17.0155 22.9255 17.2709 23.3691 17.6339 23.732L27.8629 33.9744C28.4677 34.5793 29.2608 34.875 30.0538 34.875C30.8469 34.875 31.6399 34.5793 32.2448 33.9744L34.3954 31.8238C34.9734 31.2323 35.296 30.4662 35.296 29.6328C35.296 28.7994 34.9734 28.0333 34.3954 27.4418L34.4223 27.415ZM9.90498 10.9894L5.59025 6.74189L7.17635 5.15579L11.4642 9.36298L9.90498 10.9894ZM4.85097 32.227L3.22454 30.6812L21.5453 12.3604C21.8545 12.0513 21.8545 11.5405 21.5453 11.2179L20.4028 10.0754C19.8248 9.4974 19.8248 8.55649 20.4028 7.97851L25.2552 3.13956C25.5375 2.85728 25.9273 2.70943 26.3036 2.70943C26.68 2.70943 27.0698 2.85728 27.3521 3.13956L27.9301 3.71754L25.1073 6.5537C24.8116 6.84942 24.6503 7.23922 24.6503 7.66935C24.6503 8.09948 24.8116 8.47584 25.1073 8.77156L26.7203 10.3845C27.3252 10.9894 28.3199 10.9894 28.9382 10.3845L31.7743 7.54838L32.2179 7.99195C32.5002 8.27422 32.6615 8.65058 32.6615 9.05383C32.6615 9.44363 32.5002 9.81999 32.2314 10.0888L27.3924 14.9412C26.8279 15.5058 25.8601 15.5058 25.2955 14.9412L24.2874 13.9197C24.1396 13.7718 23.9245 13.6777 23.7094 13.6777C23.4944 13.6777 23.2927 13.7584 23.1449 13.9197L20.0668 17.0112C19.9861 17.0784 19.9189 17.1187 19.8383 17.1994L19.3409 17.7102L18.1984 18.8527L17.6876 19.35C17.5935 19.4441 17.5129 19.5517 17.4322 19.6592L4.85097 32.2405V32.227ZM33.2798 30.6544L31.1292 32.805C30.5512 33.383 29.6103 33.383 29.0323 32.805L18.8033 22.576C18.521 22.2937 18.3731 21.9174 18.3731 21.5276C18.3731 21.1378 18.5076 20.8286 18.7495 20.5598L21.0614 18.2478C21.3303 18.0193 21.6529 17.8984 22.0024 17.8984C22.3787 17.8984 22.7551 18.0462 23.0508 18.3285L33.2798 28.5709C33.5621 28.8532 33.7099 29.2296 33.7099 29.6194C33.7099 30.0092 33.5621 30.3855 33.2798 30.6678V30.6544Z" fill="black"/>
</svg>
