<svg width="37" height="36" viewBox="0 0 37 36" fill="none" xmlns="http://www.w3.org/2000/svg">
<path fill-rule="evenodd" clip-rule="evenodd" d="M33.9776 12.5174C34.3737 12.9135 34.5926 13.4347 34.5926 13.9975C34.5926 14.5604 34.3737 15.092 33.9776 15.488L30.5901 18.8755V31.8836C30.5901 33.5304 29.2455 34.875 27.5987 34.875H8.69117C7.05474 34.875 5.72058 33.5513 5.69974 31.9253C4.06331 31.9044 2.75 30.5703 2.75 28.9338V4.11643C2.75 2.46958 4.08416 1.125 5.74143 1.125H24.6489C26.2854 1.125 27.6195 2.44873 27.6404 4.07474C29.2664 4.09558 30.5901 5.42974 30.5901 7.06617V12.9239L30.9966 12.5174C31.7888 11.7253 33.1855 11.7253 33.9776 12.5174ZM29.3393 14.1747V7.06617C29.3393 6.11766 28.5784 5.34636 27.6404 5.32551V15.8737L29.3393 14.1747ZM20.6569 22.8572L20.709 22.8155L26.3896 17.1245V4.07474C26.3687 3.13666 25.5974 2.37577 24.6489 2.37577H5.74143C4.7825 2.37577 4.00077 3.1575 4.00077 4.11643V28.9338C4.00077 29.8823 4.76166 30.6536 5.69974 30.6745H24.6489C25.6079 30.6745 26.3896 29.8928 26.3896 28.9338V23.0656L23.6692 25.7861C23.6313 25.8333 23.5935 25.8635 23.5479 25.8998C23.5432 25.9035 23.5385 25.9073 23.5337 25.9111C23.4815 25.9424 23.4294 25.9737 23.3669 25.9841C23.3148 26.0154 23.2522 26.0154 23.1897 26.0154H21.1051C20.7507 26.0154 20.4797 25.7339 20.4797 25.39V23.2949C20.4797 23.2324 20.4901 23.1699 20.511 23.1177C20.5214 23.0552 20.5422 23.0031 20.5735 22.9614C20.5812 22.9382 20.5947 22.9265 20.6096 22.9135C20.6148 22.9089 20.6202 22.9042 20.6256 22.8989C20.636 22.8884 20.6569 22.8572 20.6569 22.8572ZM27.5987 33.6242C28.5576 33.6242 29.3393 32.8425 29.3393 31.8836V20.1263L27.6404 21.8149V28.9338C27.6404 30.5807 26.2958 31.9253 24.6489 31.9253H6.95051C6.97136 32.8633 7.74266 33.6242 8.69117 33.6242H27.5987ZM27.6404 20.0533L29.3393 18.3544L30.5901 17.1036L31.6011 16.0926L30.5901 15.0815L30.3921 14.8835L29.3393 15.9362L27.6404 17.6352L27.015 18.2606L26.3896 18.8964L21.9806 23.2949L23.1897 24.504L26.3896 21.3041L27.015 20.6787L27.6404 20.0533ZM32.4871 15.2066L33.0916 14.6021V14.5916C33.248 14.4353 33.3314 14.2164 33.3314 13.9871C33.3314 13.7578 33.248 13.5493 33.0916 13.393C32.7685 13.0803 32.2057 13.0803 31.8826 13.393L31.278 13.9975L32.4871 15.2066ZM21.1052 7.03482H6.3252C5.98124 7.03482 5.69982 7.31624 5.69982 7.6602C5.69982 8.00416 5.98124 8.28559 6.3252 8.28559H21.1052C21.4491 8.28559 21.7305 8.00416 21.7305 7.6602C21.7305 7.31624 21.4491 7.03482 21.1052 7.03482ZM6.3252 14.1954H18.145C18.489 14.1954 18.7704 13.914 18.7704 13.57C18.7704 13.2261 18.489 12.9446 18.145 12.9446H6.3252C5.98124 12.9446 5.69982 13.2261 5.69982 13.57C5.69982 13.914 5.98124 14.1954 6.3252 14.1954ZM6.3252 18.8544H21.0947C21.4387 18.8544 21.7201 19.1359 21.7201 19.4798C21.7201 19.8238 21.4387 20.1052 21.0947 20.1052H6.3252C5.98124 20.1052 5.69982 19.8238 5.69982 19.4798C5.69982 19.1359 5.98124 18.8544 6.3252 18.8544ZM18.1448 24.1393H12.2349C11.547 24.1393 10.9841 24.7021 10.9841 25.3901C10.9841 26.078 11.547 26.6408 12.2349 26.6408H18.1448C18.8327 26.6408 19.3956 26.078 19.3956 25.3901C19.3956 24.7021 18.8327 24.1393 18.1448 24.1393Z" fill="#2D2C2E"/>
</svg>
