<svg width="24" height="24" viewBox="0 0 24 24" fill="none" xmlns="http://www.w3.org/2000/svg">
<g id="icon/lock-check">
<path id="Union" fill-rule="evenodd" clip-rule="evenodd" d="M5.15471 7.67897C5.15471 3.85487 8.26859 0.75 12.0913 0.75C15.9143 0.75 19.0203 3.84761 19.0203 7.67897V9.38456C20.2167 9.39674 21.1828 10.3704 21.1828 11.5697V21.0647C21.1828 22.2716 20.2044 23.25 18.9975 23.25H5.18529C3.97839 23.25 3 22.2716 3 21.0647V11.5697C3 10.373 3.9619 9.40102 5.15471 9.38465V7.67897ZM18.1065 7.67897V9.38444H6.06842V7.67897C6.06842 4.3609 8.77182 1.66371 12.0913 1.66371C15.4104 1.66371 18.1065 4.35294 18.1065 7.67897ZM5.18529 10.2982C4.48302 10.2982 3.91371 10.8675 3.91371 11.5697V21.0647C3.91371 21.767 4.48302 22.3363 5.18529 22.3363H18.9975C19.6998 22.3363 20.2691 21.767 20.2691 21.0647V11.5697C20.2691 10.8675 19.6998 10.2982 18.9975 10.2982H5.18529ZM15.256 13.1909C15.3692 12.9654 15.2782 12.6908 15.0527 12.5776C14.8272 12.4644 14.5527 12.5554 14.4395 12.7809L12.0918 17.4569L10.878 15.035C10.7649 14.8094 10.4904 14.7182 10.2649 14.8313C10.0393 14.9443 9.94807 15.2188 10.0611 15.4444L11.683 18.6805C11.7604 18.835 11.9184 18.9326 12.0912 18.9326C12.2641 18.9327 12.4221 18.8352 12.4997 18.6808L15.256 13.1909Z" fill="#2D2C2E"/>
</g>
</svg>
