<svg width="16" height="16" viewBox="0 0 16 16" fill="none" xmlns="http://www.w3.org/2000/svg">
<g id="icon/OPERATOR">
<path id="Union" fill-rule="evenodd" clip-rule="evenodd" d="M14.8789 5.56331C15.055 5.73935 15.1523 5.97097 15.1523 6.22112C15.1523 6.47128 15.055 6.70754 14.8789 6.88357L13.3734 8.38913V14.1705C13.3734 14.9024 12.7758 15.5 12.0439 15.5H3.64052C2.91322 15.5 2.32026 14.9117 2.31099 14.189C1.58369 14.1797 1 13.5868 1 12.8595V1.82952C1 1.09759 1.59296 0.5 2.32952 0.5H10.7329C11.4602 0.5 12.0531 1.08833 12.0624 1.81099C12.7851 1.82026 13.3734 2.41322 13.3734 3.14052V5.74398L13.554 5.56331C13.9061 5.21124 14.5269 5.21124 14.8789 5.56331ZM12.8175 6.29988V3.14052C12.8175 2.71896 12.4793 2.37616 12.0624 2.36689V7.05497L12.8175 6.29988ZM8.95862 10.1587L8.98178 10.1402L11.5065 7.61087V1.81099C11.4972 1.39407 11.1544 1.0559 10.7329 1.0559H2.32952C1.90334 1.0559 1.5559 1.40334 1.5559 1.82952V12.8595C1.5559 13.281 1.89407 13.6238 2.31099 13.6331H10.7329C11.159 13.6331 11.5065 13.2857 11.5065 12.8595V10.2514L10.2974 11.4605C10.2806 11.4815 10.2638 11.4949 10.2435 11.511C10.2414 11.5127 10.2393 11.5143 10.2372 11.5161C10.214 11.53 10.1909 11.5439 10.1631 11.5485C10.1399 11.5624 10.1121 11.5624 10.0843 11.5624H9.15781C9.00031 11.5624 8.87986 11.4373 8.87986 11.2844V10.3533C8.87986 10.3255 8.8845 10.2977 8.89376 10.2746C8.89839 10.2468 8.90766 10.2236 8.92156 10.2051C8.92499 10.1948 8.93098 10.1895 8.93762 10.1838C8.93993 10.1817 8.94232 10.1797 8.94472 10.1773C8.94935 10.1726 8.95862 10.1587 8.95862 10.1587ZM12.0439 14.9441C12.47 14.9441 12.8175 14.5967 12.8175 14.1705V8.94503L12.0624 9.69549V12.8595C12.0624 13.5914 11.4648 14.189 10.7329 14.189H2.86689C2.87616 14.6059 3.21896 14.9441 3.64052 14.9441H12.0439ZM12.0624 8.9126L12.8175 8.1575L13.3734 7.60161L13.8227 7.15225L13.3734 6.7029L13.2854 6.61489L12.8175 7.08277L12.0624 7.83786L11.7844 8.11581L11.5065 8.39839L9.54694 10.3533L10.0843 10.8907L11.5065 9.4685L11.7844 9.19055L12.0624 8.9126ZM14.2165 6.75849L14.4852 6.48981V6.48518C14.5547 6.41569 14.5917 6.31841 14.5917 6.21649C14.5917 6.11458 14.5547 6.02193 14.4852 5.95244C14.3416 5.81347 14.0914 5.81347 13.9478 5.95244L13.6791 6.22112L14.2165 6.75849ZM9.15785 3.12659H2.58898C2.43611 3.12659 2.31103 3.25166 2.31103 3.40453C2.31103 3.55741 2.43611 3.68248 2.58898 3.68248H9.15785C9.31072 3.68248 9.4358 3.55741 9.4358 3.40453C9.4358 3.25166 9.31072 3.12659 9.15785 3.12659ZM2.58898 6.30907H7.84222C7.99509 6.30907 8.12017 6.18399 8.12017 6.03112C8.12017 5.87825 7.99509 5.75317 7.84222 5.75317H2.58898C2.43611 5.75317 2.31103 5.87825 2.31103 6.03112C2.31103 6.18399 2.43611 6.30907 2.58898 6.30907ZM2.58898 8.37976H9.15322C9.30609 8.37976 9.43117 8.50483 9.43117 8.65771C9.43117 8.81058 9.30609 8.93565 9.15322 8.93565H2.58898C2.43611 8.93565 2.31103 8.81058 2.31103 8.65771C2.31103 8.50483 2.43611 8.37976 2.58898 8.37976ZM7.84214 10.7286H5.21552C4.90978 10.7286 4.65962 10.9787 4.65962 11.2845C4.65962 11.5902 4.90978 11.8404 5.21552 11.8404H7.84214C8.14789 11.8404 8.39804 11.5902 8.39804 11.2845C8.39804 10.9787 8.14789 10.7286 7.84214 10.7286Z" fill="black"/>
</g>
</svg>
