<svg width="120" height="120" viewBox="0 0 120 120" fill="none" xmlns="http://www.w3.org/2000/svg">
<g clip-path="url(#clip0_5711_17357)">
<g clip-path="url(#clip1_5711_17357)">
<path fill-rule="evenodd" clip-rule="evenodd" d="M89.0911 80.9023H85.3331V68.7382C85.3331 68.23 84.8782 67.8143 84.322 67.8143H80.5641V38.1739C80.5641 37.6657 80.1091 37.25 79.553 37.25H36.5302C35.9741 37.25 35.5191 37.6657 35.5191 38.1739V80.9023H31.7611C31.205 80.9023 30.75 81.318 30.75 81.8261C30.75 82.3343 31.205 82.75 31.7611 82.75H89.0911C89.6472 82.75 90.1022 82.3343 90.1022 81.8261C90.1022 81.318 89.6472 80.9023 89.0911 80.9023ZM83.2941 69.662V80.9023H66.2063V69.662H83.2941ZM72.273 60.9316L70.3856 67.8143H69.5261L67.6387 60.9316H67.6556H72.273ZM69.9727 43.4707C70.7272 43.4749 71.3461 44.0429 71.3461 44.7332V45.9959H68.5993V44.7332C68.5993 44.0429 69.2182 43.4749 69.9727 43.4707ZM48.4697 43.4707C49.2242 43.4749 49.8431 44.0429 49.8431 44.7332V45.9959H47.0963V44.7332C47.0963 44.0429 47.7152 43.4749 48.4697 43.4707ZM37.5413 39.0977H47.467V41.7769C46.0852 42.1772 45.0741 43.3321 45.0741 44.7332V46.9197C45.0741 47.4278 45.5291 47.8436 46.0852 47.8436H50.8543C51.4104 47.8436 51.8654 47.4278 51.8654 46.9197V44.7332C51.8654 43.3475 50.8543 42.1772 49.4724 41.7769V39.0977H68.9531V41.7769C67.5713 42.1772 66.5602 43.3321 66.5602 44.7332V46.9197C66.5602 47.4278 67.0152 47.8436 67.5713 47.8436H72.3404C72.8965 47.8436 73.3515 47.4278 73.3515 46.9197V44.7332C73.3515 43.3475 72.3404 42.1772 70.9585 41.7769V39.0977H78.4913V67.7989H72.4583L74.5311 60.2233C74.5985 59.9461 74.5311 59.6536 74.3457 59.438C74.1604 59.207 73.857 59.0838 73.5537 59.0838H66.3411C66.0378 59.0838 65.7344 59.207 65.5491 59.438C65.3637 59.669 65.2963 59.9461 65.3637 60.2233L67.4365 67.7989H65.1783C64.6222 67.7989 64.1672 68.2146 64.1672 68.7228V80.8869H37.5413V39.0977ZM43.5741 50.5072C43.3887 50.6919 43.1191 50.7843 42.8663 50.7843L42.8495 50.7689C42.5967 50.7689 42.3439 50.6919 42.1417 50.5072C41.7541 50.1376 41.7541 49.5525 42.1417 49.1984L43.473 47.9819C43.8774 47.6278 44.5178 47.6278 44.9054 47.9819C45.293 48.3515 45.293 48.9366 44.9054 49.2907L43.5741 50.5072ZM49.4891 51.262C49.4891 51.7701 49.0341 52.1858 48.478 52.1858C47.9219 52.1858 47.4669 51.7701 47.4669 51.262V49.0755C47.4669 48.5674 47.9219 48.1516 48.478 48.1516C49.0341 48.1516 49.4891 48.5674 49.4891 49.0755V51.262ZM53.3821 50.5075C53.5843 50.6923 53.8371 50.7847 54.0898 50.7847C54.3426 50.7847 54.6123 50.6923 54.7976 50.5229C55.1852 50.1688 55.1852 49.5837 54.7976 49.2141L53.4663 47.9977C53.0787 47.6436 52.4384 47.6436 52.0339 47.9977C51.6463 48.3519 51.6463 48.937 52.0339 49.3065L53.3652 50.5229L53.3821 50.5075ZM70.9921 51.262C70.9921 51.7701 70.5371 52.1858 69.981 52.1858C69.4249 52.1858 68.9699 51.7701 68.9699 51.262V49.0755C68.9699 48.5674 69.4249 48.1516 69.981 48.1516C70.5371 48.1516 70.9921 48.5674 70.9921 49.0755V51.262ZM65.0771 50.5072L66.4084 49.2907C66.796 48.9366 66.796 48.3515 66.4084 47.9819C66.0208 47.6278 65.3804 47.6278 64.976 47.9819L63.6447 49.1984C63.2571 49.5525 63.2571 50.1376 63.6447 50.5072C63.8469 50.6919 64.0997 50.7689 64.3524 50.7689C64.6052 50.7689 64.8749 50.6765 65.0602 50.4918L65.0771 50.5072ZM75.5928 50.7843C75.34 50.7843 75.0873 50.6919 74.8851 50.5072H74.8682L73.5369 49.2907C73.1493 48.9212 73.1493 48.3361 73.5369 47.9819C73.9413 47.6278 74.5817 47.6278 74.9693 47.9819L76.3006 49.1984C76.6882 49.5679 76.6882 50.153 76.3006 50.5072C76.1152 50.6919 75.8456 50.7843 75.5928 50.7843ZM41.316 54.7107H55.6401C56.1962 54.7107 56.6512 55.1264 56.6512 55.6345V68.7225C56.6512 69.2306 56.1962 69.6464 55.6401 69.6464H41.316C40.7599 69.6464 40.3049 69.2306 40.3049 68.7225V55.6345C40.3049 55.1264 40.7599 54.7107 41.316 54.7107ZM42.3271 67.7987H54.6289V56.5584H42.3271V67.7987Z" fill="#4E4E51"/>
</g>
</g>
<defs>
<clipPath id="clip0_5711_17357">
<rect width="120" height="120" rx="60" fill="white"/>
</clipPath>
<clipPath id="clip1_5711_17357">
<rect width="56" height="56" fill="white" transform="translate(32.5 32)"/>
</clipPath>
</defs>
</svg>
