<svg width="120" height="120" viewBox="0 0 120 120" fill="none" xmlns="http://www.w3.org/2000/svg">
<g clip-path="url(#clip0_5711_13815)">
<circle cx="60" cy="60" r="60" fill="#F5F5F5"/>
<g clip-path="url(#clip1_5711_13815)">
<path fill-rule="evenodd" clip-rule="evenodd" d="M79.6411 35.9531H76.4689L76.5819 36.9754L78.0594 50.3355C78.0639 50.3762 78.0661 50.4166 78.0662 50.4566H78.0844C78.0844 52.2348 79.5373 53.6877 81.3155 53.6877C83.0381 53.6877 84.4553 52.3244 84.5424 50.6227L79.6411 35.9531ZM74.2524 35.9531H68.7026L68.9381 40.8348L69.3997 50.4035C69.4005 50.4213 69.401 50.439 69.401 50.4566H69.4192C69.4192 52.2348 70.8721 53.6877 72.6503 53.6877C74.3704 53.6877 75.7859 52.3284 75.8768 50.6302C75.874 50.6128 75.8717 50.5953 75.8697 50.5776L74.4827 38.0353L74.2524 35.9531ZM66.4971 35.9531H60.7172V44.9856V50.1733C60.7412 50.2637 60.754 50.3587 60.754 50.4566C60.754 52.2348 62.2068 53.6877 63.9851 53.6877C65.7052 53.6877 67.1208 52.3283 67.2116 50.63C67.2053 50.5906 67.2012 50.5504 67.1992 50.5096L66.785 41.9219L66.4971 35.9531ZM58.5142 35.9531H52.9757L52.1263 49.3232L52.0523 50.4875C52.069 52.2516 53.5153 53.6877 55.2833 53.6877C57.056 53.6877 58.5054 52.2438 58.5143 50.4731L58.5142 50.4566V46.0979V35.9531ZM50.7682 35.9531H44.9963L43.3754 50.4566H43.3869C43.3869 52.2348 44.8398 53.6877 46.618 53.6877C48.3908 53.6877 49.8402 52.2437 49.8491 50.4729C49.8487 50.4444 49.8494 50.4157 49.8512 50.3867L50.7682 35.9531ZM42.7796 35.9531H39.5916L34.7238 50.5736C34.7859 52.2981 36.2137 53.6877 37.9528 53.6877C39.6723 53.6877 41.0876 52.3292 41.1792 50.6316C41.1638 50.5355 41.161 50.4357 41.1723 50.3342L42.7796 35.9531ZM38.704 33.754C38.2437 33.7924 37.8638 34.1138 37.7389 34.5437L32.5567 50.1086C32.4929 50.3002 32.4847 50.4969 32.5233 50.6812C32.6381 53.4871 34.8938 55.7532 37.6955 55.8847V86.8782C37.6953 86.8849 37.6953 86.8916 37.6953 86.8983C37.6953 87.1669 37.7914 87.413 37.9511 87.6041C38.1532 87.8461 38.4571 88 38.797 88C38.8043 88 38.8116 87.9999 38.8189 87.9998H80.4125C80.4198 87.9999 80.4271 88 80.4345 88C81.0428 88 81.536 87.5068 81.536 86.8985V55.8863C84.418 55.7706 86.7316 53.3963 86.7496 50.4907C86.7522 50.4053 86.7449 50.3186 86.7268 50.2322C86.7166 50.183 86.7032 50.135 86.6866 50.0884L81.4792 34.5027C81.3952 34.2512 81.2292 34.0502 81.0209 33.9193C80.8917 33.8378 80.7443 33.7824 80.5863 33.7606C80.5311 33.7528 80.475 33.7493 80.4184 33.7501H38.8133C38.7766 33.7496 38.7401 33.7509 38.704 33.754ZM79.333 85.7968V55.5159C78.3948 55.1467 77.5831 54.5236 76.9829 53.7319C75.9896 55.0423 74.4166 55.8907 72.6503 55.8907C70.884 55.8907 69.3111 55.0423 68.3177 53.7319C67.3244 55.0423 65.7514 55.8907 63.9851 55.8907C62.2079 55.8907 60.6264 55.0318 59.6342 53.7076C58.6419 55.0318 57.0604 55.8907 55.2833 55.8907C53.517 55.8907 51.944 55.0423 50.9506 53.7319C49.9573 55.0423 48.3843 55.8907 46.618 55.8907C44.8517 55.8907 43.2788 55.0423 42.2854 53.7319C41.6774 54.534 40.8522 55.163 39.8985 55.5303V85.7968H79.333ZM44.011 59.7642C43.4026 59.7642 42.9094 60.2574 42.9094 60.8657V76.4705C42.9094 77.0788 43.4026 77.572 44.011 77.572H75.2388C75.8472 77.572 76.3403 77.0788 76.3403 76.4705V60.8657C76.3403 60.2574 75.8472 59.7642 75.2388 59.7642H44.011ZM45.1125 75.369V61.9672H74.1373V75.369H45.1125Z" fill="#4E4E51"/>
</g>
</g>
<defs>
<clipPath id="clip0_5711_13815">
<rect width="120" height="120" rx="60" fill="white"/>
</clipPath>
<clipPath id="clip1_5711_13815">
<rect width="56" height="56" fill="white" transform="translate(32.5 32)"/>
</clipPath>
</defs>
</svg>
