<svg width="120" height="120" viewBox="0 0 120 120" fill="none" xmlns="http://www.w3.org/2000/svg">
<g clip-path="url(#clip0_5711_13825)">
<path d="M59.6246 66.3617C65.1589 66.3617 69.6535 61.8671 69.6535 56.3328V51.8062C69.6535 51.2784 69.2216 50.8465 68.6938 50.8465C68.166 50.8465 67.7341 51.2784 67.7341 51.8062V56.3328C67.7341 60.7954 64.1032 64.4423 59.6246 64.4423C55.146 64.4423 51.5152 60.8114 51.5152 56.3328V51.8062C51.5152 51.2784 51.0833 50.8465 50.5555 50.8465C50.0276 50.8465 49.5958 51.2784 49.5958 51.8062V56.3328C49.5958 61.8671 54.0904 66.3617 59.6246 66.3617Z" fill="#4E4E51"/>
<path d="M83.2333 47.1357C83.2333 47.1357 83.2332 47.0557 83.2013 47.0237C83.1533 46.8638 83.0893 46.7038 82.9773 46.5918L79.1225 42.737L82.9773 38.8822C83.2492 38.6103 83.3292 38.1945 83.1853 37.8426C83.0413 37.4907 82.6894 37.2508 82.3055 37.2508H36.9597C36.5758 37.2348 36.2239 37.4747 36.08 37.8266C35.936 38.1785 36.016 38.5943 36.2879 38.8662L40.1427 42.721L36.2879 46.5918C36.16 46.7198 36.096 46.8638 36.064 47.0237C36.064 47.0557 36.048 47.1037 36.032 47.1357C36.032 47.1837 36 47.2156 36 47.2636V83.5403C36 84.0681 36.4319 84.5 36.9597 84.5H82.3055C82.8334 84.5 83.2652 84.0681 83.2652 83.5403V47.2636C83.2652 47.2636 83.2492 47.1837 83.2333 47.1357ZM42.1741 43.4088C42.542 43.0409 42.542 42.4331 42.1741 42.0493L39.279 39.1542H79.9863L77.0912 42.0493C76.7233 42.4171 76.7233 43.025 77.0912 43.4088L79.9863 46.3039H39.279L42.1741 43.4088ZM81.3458 82.5806H37.9194V48.2233H81.3458V82.5806Z" fill="#4E4E51"/>
</g>
<defs>
<clipPath id="clip0_5711_13825">
<rect width="120" height="120" rx="60" fill="white"/>
</clipPath>
</defs>
</svg>
