<svg width="120" height="120" viewBox="0 0 120 120" fill="none" xmlns="http://www.w3.org/2000/svg">
<g clip-path="url(#clip0_5711_18733)">
<g clip-path="url(#clip1_5711_18733)">
<path fill-rule="evenodd" clip-rule="evenodd" d="M37.462 33.75H83.5207H83.538C86.2697 33.75 88.5 35.9803 88.5 38.712V70.0748C88.5 72.8065 86.2697 75.0368 83.538 75.0368H68.8939V82.7651H75.2045C75.7751 82.7651 76.2419 83.2319 76.2419 83.8025C76.2419 84.373 75.7751 84.8398 75.2045 84.8398H45.7955C45.2249 84.8398 44.7581 84.373 44.7581 83.8025C44.7581 83.2319 45.2249 82.7651 45.7955 82.7651H52.1061V75.0368H37.462C34.7303 75.0368 32.5 72.8065 32.5 70.0748V38.712C32.5 35.9803 34.7303 33.75 37.462 33.75ZM54.1808 82.7651H66.8019V75.0368H54.1808V82.7651ZM83.5207 72.9621C85.1113 72.9621 86.408 71.6654 86.408 70.0748H86.4253V38.712C86.4253 37.1214 85.1286 35.8247 83.538 35.8247H37.462C35.8714 35.8247 34.5747 37.1214 34.5747 38.712V70.0748C34.5747 71.6654 35.8714 72.9621 37.462 72.9621H83.5207ZM73.3202 48.5497C73.6314 48.7226 73.8216 49.0684 73.8216 49.4315C73.8389 49.7946 73.6314 50.1403 73.3202 50.3305L70.7095 51.9039L73.3202 53.4426C73.6314 53.6328 73.8216 53.9613 73.8216 54.3416C73.8389 54.7047 73.6314 55.0332 73.3202 55.2234L70.7095 56.7967L73.3202 58.3528C73.6314 58.5257 73.8216 58.8714 73.8216 59.2345C73.8389 59.5976 73.6314 59.9434 73.3202 60.1336L61.0275 67.5334C60.8546 67.6198 60.6817 67.6717 60.4916 67.6717C60.3014 67.6717 60.1285 67.6198 59.9556 67.5334L47.6629 60.1336C47.3344 59.9434 47.1442 59.5976 47.1615 59.2345C47.1615 58.8714 47.3517 58.5257 47.6629 58.3528L50.2736 56.7967L47.6629 55.2234C47.3344 55.0332 47.1442 54.7047 47.1615 54.3416C47.1615 53.9613 47.3517 53.6328 47.6629 53.4426L50.2736 51.9039L47.6629 50.3305C47.3344 50.1403 47.1442 49.7946 47.1615 49.4315C47.1615 49.0684 47.3517 48.7226 47.6629 48.5497L59.9556 41.2364C60.2841 41.0462 60.699 41.0462 61.0275 41.2364L73.3202 48.5497ZM66.6811 51.9039L67.6839 51.2987L68.704 50.6936L70.7787 49.4488L60.4916 43.3457L50.2044 49.4488L52.2792 50.6936L53.2992 51.2987L54.302 51.9039L56.394 53.166L57.4141 53.7711L58.4168 54.3762L60.4916 55.6211L62.5663 54.3762L63.5691 53.7711L64.5891 53.166L66.6811 51.9039ZM60.4916 65.4241L70.7787 59.2518L68.6867 58.007L61.0275 62.6232C60.8546 62.7269 60.6817 62.7788 60.4916 62.7788C60.3014 62.7788 60.1285 62.7269 59.9556 62.6232L52.2964 58.007L50.2044 59.2518L60.4916 65.4241ZM68.6867 55.6038L70.7787 54.3416L68.704 53.1141L66.612 54.3589L65.6092 54.9813L64.5891 55.5865L61.0275 57.7303C60.8546 57.8168 60.6817 57.8687 60.4916 57.8687C60.3014 57.8687 60.1285 57.8168 59.9556 57.7303L56.394 55.5865L55.3739 54.9813L54.3712 54.3589L52.2792 53.1141L50.2044 54.3416L52.2964 55.6038L53.2992 56.2089L54.3193 56.814L60.4916 60.5312L66.6638 56.814L67.6839 56.2089L68.6867 55.6038Z" fill="#4E4E51"/>
</g>
</g>
<defs>
<clipPath id="clip0_5711_18733">
<rect width="120" height="120" rx="60" fill="white"/>
</clipPath>
<clipPath id="clip1_5711_18733">
<rect width="56" height="56" fill="white" transform="translate(32.5 32)"/>
</clipPath>
</defs>
</svg>
