<svg width="16" height="17" viewBox="0 0 16 17" fill="none" xmlns="http://www.w3.org/2000/svg">
<path d="M14.9067 13.1106L12.6032 10.8129V10.8014L10.5467 8.75072L13.7578 5.53967C13.9761 5.32138 14.0967 5.02842 14.0967 4.71823C14.0967 4.40804 13.9761 4.11508 13.7578 3.8968L12.6089 2.74794C12.1551 2.29415 11.4199 2.29415 10.9718 2.74794L7.76077 5.959L5.71581 3.91978C5.71581 3.91978 5.70432 3.90255 5.69857 3.8968C5.69283 3.89106 5.68709 3.88531 5.68134 3.88531L3.38937 1.59909C3.263 1.46697 3.03323 1.46697 2.90111 1.59909L0.603397 3.8968C0.465534 4.03466 0.465534 4.25295 0.603397 4.38506L4.96331 8.75072L1.2008 12.5132C1.17208 12.5362 1.15485 12.5592 1.13187 12.5879C1.11464 12.6166 1.09741 12.6453 1.09166 12.6798C1.08017 12.7085 1.07443 12.743 1.07443 12.7775V15.0809C1.07443 15.2705 1.22952 15.4256 1.41908 15.4256H3.72254C3.75701 15.4256 3.79147 15.4256 3.82019 15.4083C3.85466 15.4026 3.88338 15.3854 3.9121 15.3681C3.93508 15.3566 3.95231 15.3394 3.96955 15.3222L7.75503 11.5367L12.1149 15.9023C12.1781 15.9655 12.27 16 12.3562 16C12.4481 16 12.54 15.9655 12.6032 15.9023L14.9067 13.5989C15.0388 13.461 15.0388 13.2427 14.9067 13.1106ZM1.33292 4.14381L3.14811 2.32861L3.81445 2.99495C3.81445 2.99495 3.77998 3.02367 3.7685 3.03516L3.19407 3.60959C3.05621 3.74745 3.05621 3.96573 3.19407 4.09785C3.25725 4.16678 3.34916 4.20125 3.43533 4.20125C3.52149 4.20125 3.6134 4.16678 3.67659 4.09785L4.25676 3.52342C4.25676 3.52342 4.28548 3.4947 4.29697 3.47747L4.96331 4.14381L4.05571 5.0514C3.91785 5.18352 3.91785 5.4018 4.05571 5.53967C4.12464 5.60285 4.21081 5.63732 4.29697 5.63732C4.38888 5.63732 4.47504 5.60285 4.54397 5.53967L5.45157 4.63207L6.11791 5.29841C6.11791 5.29841 6.08344 5.32713 6.07195 5.33862L5.49752 5.91304C5.35966 6.05091 5.35966 6.26919 5.49752 6.40131C5.56071 6.47024 5.65262 6.5047 5.73878 6.5047C5.82495 6.5047 5.91686 6.47024 5.98004 6.40131L6.56022 5.82688C6.56022 5.82688 6.58894 5.79241 6.59468 5.77518L7.26676 6.44726L5.45157 8.26245L1.33292 4.14381ZM7.26676 11.0484L3.72254 14.5927L1.90735 12.7775L5.45157 9.23324L5.93983 8.75072L7.75503 6.93552L8.23755 6.44726L11.4486 3.23621C11.6324 3.05239 11.9311 3.05239 12.1149 3.23621L13.2638 4.38506C13.3557 4.47123 13.4017 4.59186 13.4017 4.71823C13.4017 4.84461 13.3557 4.95949 13.2638 5.0514L10.0527 8.26245L9.57022 8.75072L7.75503 10.5659L7.26676 11.0484ZM12.3562 15.1671L8.24329 11.0542L10.0585 9.23898L10.7248 9.90532C10.7248 9.90532 10.6904 9.9283 10.6731 9.94553L10.0987 10.52C9.96657 10.6521 9.96657 10.8704 10.0987 11.0082C10.1676 11.0714 10.2538 11.1059 10.3457 11.1059C10.4319 11.1059 10.518 11.0714 10.587 11.0082L11.1614 10.428C11.1614 10.428 11.1901 10.3993 11.2016 10.3821L11.8737 11.0542L10.9661 11.956C10.8282 12.0939 10.8282 12.3122 10.9661 12.4443C11.0293 12.5132 11.1212 12.5477 11.2073 12.5477C11.2935 12.5477 11.3854 12.5132 11.4486 12.4443L12.3562 11.5367L13.0283 12.2088C13.0283 12.2088 12.9938 12.2318 12.9766 12.249L12.4021 12.8234C12.27 12.9555 12.27 13.1738 12.4021 13.3117C12.4711 13.3749 12.5572 13.4093 12.6492 13.4093C12.7353 13.4093 12.8215 13.3749 12.8904 13.3117L13.4648 12.7315C13.4648 12.7315 13.4936 12.7028 13.5051 12.6855L14.1714 13.3519L12.3562 15.1671Z" fill="#2D2C2E"/>
</svg>
