<svg width="25" height="24" viewBox="0 0 25 24" fill="none" xmlns="http://www.w3.org/2000/svg">
<path d="M6.40044 18.4934C6.12574 18.4934 5.89628 18.4005 5.71207 18.2147C5.52786 18.0289 5.43575 17.7986 5.43575 17.5239C5.43575 17.2492 5.52866 17.0197 5.71449 16.8355C5.90031 16.6513 6.13057 16.5592 6.40528 16.5592C6.67998 16.5592 6.90944 16.6521 7.09365 16.8379C7.27786 17.0238 7.36996 17.254 7.36996 17.5287C7.36996 17.8034 7.27705 18.0329 7.09123 18.2171C6.90541 18.4013 6.67514 18.4934 6.40044 18.4934ZM11.7886 18.4934C11.5139 18.4934 11.2844 18.4005 11.1002 18.2147C10.916 18.0289 10.8239 17.7986 10.8239 17.5239C10.8239 17.2492 10.9168 17.0197 11.1026 16.8355C11.2885 16.6513 11.5187 16.5592 11.7934 16.5592C12.0681 16.5592 12.2976 16.6521 12.4818 16.8379C12.666 17.0238 12.7581 17.254 12.7581 17.5287C12.7581 17.8034 12.6652 18.0329 12.4794 18.2171C12.2936 18.4013 12.0633 18.4934 11.7886 18.4934ZM17.1768 18.4934C16.9021 18.4934 16.6726 18.4005 16.4884 18.2147C16.3042 18.0289 16.2121 17.7986 16.2121 17.5239C16.2121 17.2492 16.305 17.0197 16.4908 16.8355C16.6766 16.6513 16.9069 16.5592 17.1816 16.5592C17.4563 16.5592 17.6858 16.6521 17.87 16.8379C18.0542 17.0238 18.1463 17.254 18.1463 17.5287C18.1463 17.8034 18.0534 18.0329 17.8675 18.2171C17.6817 18.4013 17.4515 18.4934 17.1768 18.4934ZM3.91602 13.1053V12.1382C3.91602 10.0428 4.63559 8.24095 6.07473 6.73273C7.51388 5.22451 9.25812 4.40132 11.3075 4.26316V1.5H12.2746V4.26316C14.3239 4.40132 16.0682 5.22451 17.5073 6.73273C18.9464 8.24095 19.666 10.0428 19.666 12.1382V13.1053H3.91602ZM4.88312 12.1382H18.6989C18.6989 10.227 18.0254 8.59786 16.6784 7.25082C15.3313 5.90378 13.7022 5.23026 11.791 5.23026C9.87983 5.23026 8.25072 5.90378 6.90368 7.25082C5.55664 8.59786 4.88312 10.227 4.88312 12.1382ZM6.40044 22.5C6.12574 22.5 5.89628 22.4071 5.71207 22.2213C5.52786 22.0354 5.43575 21.8052 5.43575 21.5305C5.43575 21.2558 5.52866 21.0263 5.71449 20.8421C5.90031 20.6579 6.13057 20.5658 6.40528 20.5658C6.67998 20.5658 6.90944 20.6587 7.09365 20.8445C7.27786 21.0303 7.36996 21.2606 7.36996 21.5353C7.36996 21.81 7.27705 22.0395 7.09123 22.2237C6.90541 22.4079 6.67514 22.5 6.40044 22.5ZM11.7886 22.5C11.5139 22.5 11.2844 22.4071 11.1002 22.2213C10.916 22.0354 10.8239 21.8052 10.8239 21.5305C10.8239 21.2558 10.9168 21.0263 11.1026 20.8421C11.2885 20.6579 11.5187 20.5658 11.7934 20.5658C12.0681 20.5658 12.2976 20.6587 12.4818 20.8445C12.666 21.0303 12.7581 21.2606 12.7581 21.5353C12.7581 21.81 12.6652 22.0395 12.4794 22.2237C12.2936 22.4079 12.0633 22.5 11.7886 22.5ZM17.1768 22.5C16.9021 22.5 16.6726 22.4071 16.4884 22.2213C16.3042 22.0354 16.2121 21.8052 16.2121 21.5305C16.2121 21.2558 16.305 21.0263 16.4908 20.8421C16.6766 20.6579 16.9069 20.5658 17.1816 20.5658C17.4563 20.5658 17.6858 20.6587 17.87 20.8445C18.0542 21.0303 18.1463 21.2606 18.1463 21.5353C18.1463 21.81 18.0534 22.0395 17.8675 22.2237C17.6817 22.4079 17.4515 22.5 17.1768 22.5Z" fill="#1C1B1F"/>
</svg>
