<svg width="25" height="24" viewBox="0 0 25 24" fill="none" xmlns="http://www.w3.org/2000/svg">
<path d="M4.37348 21V16.0087H3.5V15.1352H4.37348V11.0173H3.5V10.1438H4.37348V5.93241L7.30589 3L9.80156 5.49567L12.3284 3L14.8241 5.49567L17.3198 3L20.2522 5.93241V10.1438H21.0945V11.0173H20.2522V15.1352H21.0945V16.0087H20.2522V21H4.37348ZM5.24697 10.1438H9.36482V6.27556L7.30589 4.21664L5.24697 6.27556V10.1438ZM10.2383 10.1438H14.3562V6.27556L12.2972 4.21664L10.2383 6.27556V10.1438ZM15.2608 10.1438H19.3475V6.27556L17.2886 4.21664L15.2608 6.27556V10.1438ZM5.24697 15.1352H9.36482V11.0173H5.24697V15.1352ZM10.2383 15.1352H14.3562V11.0173H10.2383V15.1352ZM15.2608 15.1352H19.3475V11.0173H15.2608V15.1352ZM5.24697 20.1265H9.36482V16.0087H5.24697V20.1265ZM10.2383 20.1265H14.3562V16.0087H10.2383V20.1265ZM15.2608 20.1265H19.3475V16.0087H15.2608V20.1265Z" fill="#1C1B1F"/>
</svg>
