<svg width="25" height="24" viewBox="0 0 25 24" fill="none" xmlns="http://www.w3.org/2000/svg">
<g clip-path="url(#clip0_6159_12628)">
<path d="M1.96423 21.8088V20.9272H10.4026V21.8088H1.96423ZM18.7895 20.6123C18.2991 20.6123 17.8807 20.4339 17.5343 20.0771C17.188 19.7202 17.0148 19.3004 17.0148 18.8176H13.8661C13.6142 18.8176 13.3938 18.7436 13.2049 18.5956C13.016 18.4475 12.9215 18.2592 12.9215 18.0304C12.9635 16.729 13.525 15.6479 14.6061 14.7873C15.6871 13.9267 16.9308 13.4439 18.3372 13.3389V1.5H19.2188V13.3389C20.6462 13.4439 21.9004 13.9267 22.9815 14.7873C24.0625 15.6479 24.624 16.729 24.666 18.0304C24.666 18.2592 24.5716 18.4475 24.3826 18.5956C24.1937 18.7436 23.9733 18.8176 23.7214 18.8176H20.5728C20.5728 19.3004 20.4019 19.7202 20.0601 20.0771C19.7183 20.4339 19.2947 20.6123 18.7895 20.6123ZM5.74261 18.8491V9.59204H1.61788C1.30301 9.59204 1.05112 9.46609 0.862201 9.2142C0.673282 8.96231 0.620804 8.68942 0.704768 8.39555L2.34207 2.22419C2.38405 2.01428 2.49005 1.84635 2.66008 1.72041C2.83011 1.59446 3.02847 1.53149 3.25518 1.53149H9.1589C9.37931 1.53149 9.57347 1.59446 9.7414 1.72041C9.90933 1.84635 10.0143 2.01428 10.0563 2.22419L11.6936 8.39555C11.7775 8.68942 11.7251 8.96231 11.5361 9.2142C11.3472 9.46609 11.0953 9.59204 10.7805 9.59204H6.62424V18.8491H5.74261ZM13.8661 17.9675H23.6899C23.585 16.792 23.0475 15.8684 22.0775 15.1966C21.1075 14.5249 20.0052 14.1891 18.7706 14.1891C17.5581 14.1891 16.4638 14.5249 15.4877 15.1966C14.5116 15.8684 13.9711 16.792 13.8661 17.9675ZM1.52342 8.71041H10.8434L9.17464 2.41311H3.22369L1.52342 8.71041Z" fill="#1C1B1F"/>
</g>
<defs>
<clipPath id="clip0_6159_12628">
<rect width="24" height="24" fill="white" transform="translate(0.666016)"/>
</clipPath>
</defs>
</svg>
