<svg width="25" height="24" viewBox="0 0 25 24" fill="none" xmlns="http://www.w3.org/2000/svg">
<g clip-path="url(#clip0_6159_12638)">
<path d="M4.0709 11.4211C4.11408 10.7301 4.04391 10.0931 3.86037 9.51012C3.67684 8.92713 3.30437 8.20378 2.74296 7.34008C2.20315 6.49798 1.83608 5.75304 1.64175 5.10526C1.44742 4.45749 1.37184 3.75574 1.41503 3H2.3543C2.31111 3.69096 2.38129 4.32794 2.56482 4.91093C2.74836 5.49393 3.12083 6.21727 3.68223 7.08097C4.22204 7.92308 4.58912 8.66802 4.78345 9.31579C4.97778 9.96356 5.05335 10.6653 5.01017 11.4211H4.0709ZM9.12353 11.4211C9.16671 10.7301 9.09654 10.0931 8.913 9.51012C8.72947 8.92713 8.357 8.20378 7.79559 7.34008C7.25578 6.49798 6.88871 5.75304 6.69438 5.10526C6.50005 4.45749 6.42447 3.75574 6.46766 3H7.40693C7.36375 3.69096 7.43392 4.32794 7.61746 4.91093C7.80099 5.49393 8.17346 6.21727 8.73487 7.08097C9.27468 7.92308 9.64175 8.66802 9.83608 9.31579C10.0304 9.96356 10.106 10.6653 10.0628 11.4211H9.12353ZM14.3057 11.4211C14.3489 10.7301 14.2733 10.0931 14.079 9.51012C13.8847 8.92713 13.5068 8.20378 12.9454 7.34008C12.4056 6.49798 12.0439 5.75304 11.8604 5.10526C11.6768 4.45749 11.6067 3.75574 11.6498 3H12.5891C12.5459 3.69096 12.6161 4.32794 12.7996 4.91093C12.9832 5.49393 13.3556 6.21727 13.9171 7.08097C14.4569 7.92308 14.8239 8.66802 15.0183 9.31579C15.2126 9.96356 15.2882 10.6653 15.245 11.4211H14.3057ZM3.03446 21.6559C2.40828 21.6559 1.88466 21.4453 1.46361 21.0243C1.04256 20.6032 0.832031 20.0796 0.832031 19.4534V14.6599H17.2855C17.2855 14.0337 17.4636 13.4669 17.8199 12.9595C18.1762 12.4521 18.6566 12.1012 19.2612 11.9069L24.5405 10.1255L24.832 10.9676L19.5527 12.749C19.1424 12.8785 18.8131 13.1215 18.5648 13.4777C18.3165 13.834 18.1924 14.2281 18.1924 14.6599V19.4534C18.1924 20.058 17.9818 20.5763 17.5608 21.0081C17.1397 21.4399 16.6161 21.6559 15.9899 21.6559H3.03446ZM3.03446 20.749H15.9899C16.357 20.749 16.6647 20.6248 16.913 20.3765C17.1613 20.1282 17.2855 19.8205 17.2855 19.4534V15.5668H1.73891V19.4534C1.73891 19.8205 1.86307 20.1282 2.11138 20.3765C2.3597 20.6248 2.66739 20.749 3.03446 20.749Z" fill="#1C1B1F"/>
</g>
<defs>
<clipPath id="clip0_6159_12638">
<rect width="24" height="24" fill="white" transform="translate(0.832031)"/>
</clipPath>
</defs>
</svg>
