<svg width="25" height="24" viewBox="0 0 25 24" fill="none" xmlns="http://www.w3.org/2000/svg">
<g clip-path="url(#clip0_6159_12633)">
<path d="M1.25 18.7457V12.4655C1.25 12.1315 1.36135 11.7473 1.58405 11.313C1.80675 10.8788 2.1408 10.5726 2.58621 10.3944V7.52155C2.58621 6.87572 2.80334 6.33567 3.23761 5.9014C3.67188 5.46713 4.21193 5.25 4.85776 5.25H11.0711C11.5165 5.25 11.884 5.34465 12.1735 5.53394C12.463 5.72324 12.6968 5.98491 12.875 6.31897C13.0532 5.98491 13.287 5.72324 13.5765 5.53394C13.866 5.34465 14.2335 5.25 14.6789 5.25H20.8922C21.5381 5.25 22.0781 5.46713 22.5124 5.9014C22.9467 6.33567 23.1638 6.87572 23.1638 7.52155V10.3944C23.6092 10.5726 23.9432 10.8788 24.1659 11.313C24.3886 11.7473 24.5 12.1315 24.5 12.4655V18.7457H23.5647V16.0733H2.18534V18.7457H1.25ZM13.3427 10.194H22.2284V7.52155C22.2284 7.14296 22.1004 6.82561 21.8443 6.5695C21.5882 6.3134 21.2708 6.18534 20.8922 6.18534H14.6789C14.3003 6.18534 13.9829 6.3134 13.7268 6.5695C13.4707 6.82561 13.3427 7.14296 13.3427 7.52155V10.194ZM3.52155 10.194H12.4073V7.52155C12.4073 7.14296 12.2793 6.82561 12.0232 6.5695C11.7671 6.3134 11.4497 6.18534 11.0711 6.18534H4.85776C4.47917 6.18534 4.16182 6.3134 3.90571 6.5695C3.64961 6.82561 3.52155 7.14296 3.52155 7.52155V10.194ZM2.18534 15.1379H23.5647V12.4655C23.5647 12.0869 23.4366 11.7696 23.1805 11.5135C22.9244 11.2574 22.607 11.1293 22.2284 11.1293H3.52155C3.14296 11.1293 2.82561 11.2574 2.5695 11.5135C2.3134 11.7696 2.18534 12.0869 2.18534 12.4655V15.1379Z" fill="#1C1B1F"/>
</g>
<defs>
<clipPath id="clip0_6159_12633">
<rect width="24" height="24" fill="white" transform="translate(0.5)"/>
</clipPath>
</defs>
</svg>
