<svg width="20" height="21" viewBox="0 0 20 21" fill="none" xmlns="http://www.w3.org/2000/svg">
<path d="M4.68013 17.1663C4.29659 17.1663 3.97635 17.0379 3.7194 16.7809C3.46246 16.524 3.33398 16.2037 3.33398 15.8202V5.17915C3.33398 4.79561 3.46246 4.47537 3.7194 4.21842C3.97635 3.96148 4.29659 3.83301 4.68013 3.83301H10.0167V4.66634H4.68013C4.55194 4.66634 4.43442 4.71976 4.32757 4.82659C4.22073 4.93344 4.16732 5.05096 4.16732 5.17915V15.8202C4.16732 15.9484 4.22073 16.0659 4.32757 16.1728C4.43442 16.2796 4.55194 16.333 4.68013 16.333H10.0167V17.1663H4.68013ZM13.7186 13.4484L13.1337 12.849L15.0664 10.9163H7.6609V10.083H15.0664L13.1337 8.15032L13.7186 7.55095L16.6673 10.4997L13.7186 13.4484Z" fill="#575658"/>
</svg>
