<svg width="20" height="21" viewBox="0 0 20 21" fill="none" xmlns="http://www.w3.org/2000/svg">
<path d="M10.2083 18.4583C8.86432 18.4583 7.76442 18.2658 6.90865 17.8806C6.05288 17.4955 5.625 16.9936 5.625 16.375C5.625 16.0491 5.76496 15.7511 6.04487 15.4808C6.32479 15.2105 6.71208 14.9765 7.20673 14.7788L7.44552 15.5769C7.15599 15.6998 6.93003 15.8293 6.76763 15.9655C6.60524 16.1018 6.50535 16.2383 6.46796 16.375C6.56304 16.7468 6.96635 17.0481 7.6779 17.2789C8.38942 17.5096 9.2329 17.625 10.2083 17.625C11.1731 17.625 12.0147 17.5096 12.7332 17.2789C13.4517 17.0481 13.8584 16.7468 13.9535 16.375C13.9161 16.2383 13.8162 16.1044 13.6538 15.9736C13.4914 15.8427 13.2655 15.7105 12.976 15.5769L13.2308 14.7788C13.7254 14.9765 14.1092 15.2105 14.3822 15.4808C14.6552 15.7511 14.7917 16.0491 14.7917 16.375C14.7917 16.9936 14.3638 17.4955 13.508 17.8806C12.6522 18.2658 11.5523 18.4583 10.2083 18.4583ZM10.2083 15.4455C10.0876 15.4455 9.97543 15.4004 9.87179 15.3101C9.76817 15.2198 9.68858 15.109 9.63302 14.9776C9.27084 14.0983 8.86272 13.3601 8.40865 12.7628C7.95459 12.1656 7.51976 11.5935 7.10417 11.0465C6.70246 10.4995 6.36244 9.93162 6.08412 9.34296C5.80582 8.75428 5.66667 8.02885 5.66667 7.16667C5.66667 5.89529 6.10577 4.82051 6.98398 3.94231C7.86217 3.0641 8.93696 2.625 10.2083 2.625C11.4797 2.625 12.5545 3.0641 13.4327 3.94231C14.3109 4.82051 14.75 5.89529 14.75 7.16667C14.75 8.02885 14.6143 8.75428 14.343 9.34296C14.0716 9.93162 13.7281 10.4995 13.3125 11.0465C12.9108 11.5935 12.4794 12.1656 12.0184 12.7628C11.5574 13.3601 11.1458 14.0983 10.7836 14.9776C10.7281 15.109 10.6485 15.2198 10.5449 15.3101C10.4412 15.4004 10.3291 15.4455 10.2083 15.4455ZM10.2083 8.44071C10.5662 8.44071 10.8681 8.31785 11.1138 8.07212C11.3595 7.82639 11.4824 7.52457 11.4824 7.16667C11.4824 6.80876 11.3595 6.50695 11.1138 6.26121C10.8681 6.01549 10.5662 5.89263 10.2083 5.89263C9.85043 5.89263 9.54861 6.01549 9.30288 6.26121C9.05715 6.50695 8.93429 6.80876 8.93429 7.16667C8.93429 7.52457 9.05715 7.82639 9.30288 8.07212C9.54861 8.31785 9.85043 8.44071 10.2083 8.44071Z" fill="#575658"/>
</svg>
