<svg width="20" height="21" viewBox="0 0 20 21" fill="none" xmlns="http://www.w3.org/2000/svg">
<path d="M15.5673 17.2083C14.1624 17.2083 12.7222 16.8566 11.2468 16.153C9.77136 15.4495 8.39797 14.4621 7.1266 13.1907C5.86591 11.9193 4.88381 10.5486 4.18029 9.07852C3.47676 7.60844 3.125 6.17094 3.125 4.76602C3.125 4.51602 3.20833 4.30501 3.375 4.133C3.54167 3.961 3.75 3.875 4 3.875H6.0609C6.2874 3.875 6.48505 3.94631 6.65385 4.08894C6.82266 4.23156 6.93697 4.41452 6.99679 4.63781L7.41025 6.625C7.44872 6.8579 7.44178 7.06143 7.38942 7.23558C7.33707 7.40972 7.24466 7.55235 7.11219 7.66346L5.28365 9.36858C5.62553 9.98932 6.00348 10.566 6.41748 11.0986C6.83147 11.6311 7.27297 12.1357 7.74198 12.6122C8.22597 13.0962 8.7468 13.5462 9.30448 13.9623C9.86217 14.3785 10.4744 14.7714 11.141 15.141L12.9231 13.3269C13.0588 13.1806 13.2113 13.0841 13.3806 13.0377C13.5499 12.9912 13.7372 12.9818 13.9423 13.0096L15.6955 13.3686C15.922 13.4241 16.1058 13.5382 16.2468 13.7107C16.3878 13.8833 16.4583 14.0812 16.4583 14.3045V16.3333C16.4583 16.5833 16.3723 16.7917 16.2003 16.9583C16.0283 17.125 15.8173 17.2083 15.5673 17.2083Z" fill="#575658"/>
</svg>
