<svg width="20" height="21" viewBox="0 0 20 21" fill="none" xmlns="http://www.w3.org/2000/svg">
<path d="M13.0385 14.3782L13.6282 13.7885L10.4167 10.5765V6.58333H9.58333V10.9231L13.0385 14.3782ZM10.0028 18.25C8.96567 18.25 7.9906 18.0532 7.07758 17.6596C6.16457 17.266 5.37037 16.7318 4.69498 16.0571C4.0196 15.3823 3.48493 14.5889 3.09096 13.6767C2.69699 12.7645 2.5 11.7899 2.5 10.7528C2.5 9.71567 2.6968 8.7406 3.0904 7.82758C3.48401 6.91457 4.01819 6.12037 4.69294 5.44498C5.36769 4.7696 6.16114 4.23493 7.07329 3.84096C7.98546 3.44699 8.9601 3.25 9.99721 3.25C11.0343 3.25 12.0094 3.4468 12.9224 3.8404C13.8354 4.23401 14.6296 4.76819 15.305 5.44294C15.9804 6.11769 16.5151 6.91114 16.909 7.82329C17.303 8.73546 17.5 9.7101 17.5 10.7472C17.5 11.7843 17.3032 12.7594 16.9096 13.6724C16.516 14.5854 15.9818 15.3796 15.3071 16.055C14.6323 16.7304 13.8389 17.2651 12.9267 17.659C12.0145 18.053 11.0399 18.25 10.0028 18.25Z" fill="#575658"/>
</svg>
