<svg width="32" height="32" viewBox="0 0 32 32" fill="none" xmlns="http://www.w3.org/2000/svg">
<path d="M15.9644 16.306C17.1584 16.306 18.1715 15.9031 19.0038 15.0972C19.836 14.2913 20.2522 13.3128 20.2522 12.1615C20.2522 11.0103 19.8343 10.0335 18.9985 9.23101C18.1627 8.42857 17.1478 8.02734 15.9538 8.02734C14.7598 8.02734 13.7466 8.43028 12.9144 9.23614C12.0821 10.042 11.666 11.0206 11.666 12.1718C11.666 13.323 12.0839 14.2999 12.9197 15.1023C13.7555 15.9048 14.7704 16.306 15.9644 16.306ZM15.9591 15.2254C15.0779 15.2254 14.3288 14.928 13.712 14.3333C13.0951 13.7385 12.7867 13.0163 12.7867 12.1667C12.7867 11.317 13.0951 10.5948 13.712 10.0001C14.3288 9.4053 15.0779 9.10793 15.9591 9.10793C16.8403 9.10793 17.5893 9.4053 18.2062 10.0001C18.823 10.5948 19.1314 11.317 19.1314 12.1667C19.1314 13.0163 18.823 13.7385 18.2062 14.3333C17.5893 14.928 16.8403 15.2254 15.9591 15.2254ZM15.9623 19.5303C13.4175 19.5303 11.0981 18.8626 9.0043 17.5271C6.91047 16.1916 5.34236 14.4048 4.29999 12.1667C5.34236 9.92852 6.90939 8.14172 9.00107 6.80626C11.0927 5.47078 13.411 4.80304 15.9558 4.80304C18.5007 4.80304 20.82 5.47078 22.9139 6.80626C25.0077 8.14172 26.5758 9.92852 27.6182 12.1667C26.5758 14.4048 25.0088 16.1916 22.9171 17.5271C20.8254 18.8626 18.5072 19.5303 15.9623 19.5303ZM15.9591 18.3974C18.1719 18.3974 20.2036 17.8357 22.0541 16.7123C23.9047 15.5889 25.3195 14.0737 26.2986 12.1667C25.3195 10.2597 23.9047 8.74447 22.0541 7.62104C20.2036 6.49762 18.1719 5.9359 15.9591 5.9359C13.7463 5.9359 11.7146 6.49762 9.86404 7.62104C8.0135 8.74447 6.59866 10.2597 5.61954 12.1667C6.59866 14.0737 8.0135 15.5889 9.86404 16.7123C11.7146 17.8357 13.7463 18.3974 15.9591 18.3974Z" fill="black"/>
<path d="M26.7073 19.5756C26.3758 19.4537 25.9927 19.5864 25.8512 19.8721C25.7096 20.1578 25.8636 20.4884 26.1949 20.6105C27.4474 21.0718 28.1953 21.6083 28.1953 22.0456C28.1953 22.9127 25.1237 24.3989 18.531 24.8352C18.1717 24.859 17.9029 25.1294 17.9305 25.4393C17.9568 25.7344 18.2426 25.9589 18.5803 25.9589C18.597 25.9589 18.6139 25.9584 18.6309 25.9572C21.5788 25.7621 24.2518 25.3174 26.1575 24.7047C28.3753 23.9915 29.5 23.0969 29.5 22.0456C29.5 21.0891 28.5603 20.2581 26.7073 19.5756Z" fill="black"/>
<path d="M16.5445 26.2755C16.7185 26.0149 16.6555 25.6536 16.4044 25.4646L13.7697 23.4821C13.501 23.28 13.1173 23.3312 12.9126 23.596C12.7078 23.8611 12.7595 24.2397 13.028 24.4418L14.1719 25.3024C11.4855 25.1903 9.01154 24.8359 7.06726 24.2768C4.59887 23.5668 3.72302 22.7293 3.72302 22.2279C3.72302 21.7581 4.4239 21.1828 5.59784 20.6889C5.90857 20.5581 6.05296 20.2037 5.92055 19.8972C5.78806 19.5908 5.4289 19.4481 5.11817 19.5788C3.3809 20.3096 2.5 21.2009 2.5 22.2279C2.5 23.5313 3.96102 24.6404 6.72506 25.4354C8.79621 26.031 11.427 26.4042 14.2683 26.5138L13.0279 27.447C12.7594 27.6491 12.7077 28.0277 12.9125 28.2927C13.0328 28.4485 13.215 28.5303 13.3993 28.5303C13.5285 28.5303 13.6589 28.49 13.7696 28.4066L16.4043 26.4242C16.4592 26.3829 16.5067 26.3322 16.5445 26.2755Z" fill="black"/>
</svg>
