<svg width="32" height="32" viewBox="0 0 32 32" fill="none" xmlns="http://www.w3.org/2000/svg">
<g filter="url(#filter0_d_6287_69568)">
<path fill-rule="evenodd" clip-rule="evenodd" d="M4.17574 4.17574C4.41005 3.94142 4.78995 3.94142 5.02426 4.17574L27.7043 26.8557C27.9386 27.0901 27.9386 27.4699 27.7043 27.7043C27.4699 27.9386 27.0901 27.9386 26.8557 27.7043L4.17574 5.02426C3.94142 4.78995 3.94142 4.41005 4.17574 4.17574Z" fill="white"/>
<path fill-rule="evenodd" clip-rule="evenodd" d="M27.7043 4.17574C27.9386 4.41005 27.9386 4.78995 27.7043 5.02426L5.02426 27.7043C4.78995 27.9386 4.41005 27.9386 4.17574 27.7043C3.94142 27.4699 3.94142 27.0901 4.17574 26.8557L26.8557 4.17574C27.0901 3.94142 27.4699 3.94142 27.7043 4.17574Z" fill="white"/>
</g>
<defs>
<filter id="filter0_d_6287_69568" x="1.2" y="1.2" width="29.4809" height="29.48" filterUnits="userSpaceOnUse" color-interpolation-filters="sRGB">
<feFlood flood-opacity="0" result="BackgroundImageFix"/>
<feColorMatrix in="SourceAlpha" type="matrix" values="0 0 0 0 0 0 0 0 0 0 0 0 0 0 0 0 0 0 127 0" result="hardAlpha"/>
<feOffset/>
<feGaussianBlur stdDeviation="1.4"/>
<feComposite in2="hardAlpha" operator="out"/>
<feColorMatrix type="matrix" values="0 0 0 0 0 0 0 0 0 0 0 0 0 0 0 0 0 0 1 0"/>
<feBlend mode="normal" in2="BackgroundImageFix" result="effect1_dropShadow_6287_69568"/>
<feBlend mode="normal" in="SourceGraphic" in2="effect1_dropShadow_6287_69568" result="shape"/>
</filter>
</defs>
</svg>
