<svg width="36" height="36" viewBox="0 0 36 36" fill="none" xmlns="http://www.w3.org/2000/svg">
<path d="M18 30.5063L16.7687 29.3937C14.1167 26.9708 11.9229 24.8969 10.1875 23.1719C8.45207 21.4469 7.08227 19.9255 6.07811 18.6078C5.07394 17.2901 4.37238 16.0979 3.97345 15.0313C3.57448 13.9646 3.375 12.8917 3.375 11.8125C3.375 9.74583 4.07708 8.01041 5.48124 6.60624C6.88541 5.20208 8.62082 4.5 10.6875 4.5C12.1167 4.5 13.4573 4.86563 14.7094 5.59688C15.9615 6.32813 17.0583 7.39166 18 8.78748C18.9417 7.39166 20.0385 6.32813 21.2906 5.59688C22.5427 4.86563 23.8833 4.5 25.3125 4.5C27.3792 4.5 29.1146 5.20208 30.5188 6.60624C31.9229 8.01041 32.625 9.74583 32.625 11.8125C32.625 12.8917 32.4255 13.9646 32.0266 15.0313C31.6276 16.0979 30.9261 17.2901 29.9219 18.6078C28.9177 19.9255 27.5531 21.4469 25.8282 23.1719C24.1031 24.8969 21.9042 26.9708 19.2313 29.3937L18 30.5063ZM18 28.3063C20.6 25.9563 22.7396 23.9432 24.4187 22.2672C26.0979 20.5912 27.425 19.137 28.4 17.9047C29.375 16.6724 30.0521 15.5807 30.4312 14.6297C30.8104 13.6787 31 12.7396 31 11.8125C31 10.1875 30.4583 8.83333 29.375 7.75C28.2917 6.66667 26.9375 6.125 25.3125 6.125C24.0188 6.125 22.825 6.49427 21.7312 7.2328C20.6375 7.97134 19.6584 9.08333 18.7938 10.5688H17.2062C16.3208 9.0625 15.3364 7.94531 14.2531 7.2172C13.1698 6.48907 11.9812 6.125 10.6875 6.125C9.08333 6.125 7.73437 6.66667 6.64064 7.75C5.54688 8.83333 5 10.1875 5 11.8125C5 12.7396 5.18958 13.6787 5.56875 14.6297C5.94792 15.5807 6.625 16.6724 7.6 17.9047C8.575 19.137 9.90208 20.586 11.5813 22.2516C13.2604 23.9172 15.4 25.9354 18 28.3063Z" fill="#808082"/>
</svg>
