<svg width="32" height="32" viewBox="0 0 32 32" fill="none" xmlns="http://www.w3.org/2000/svg">
<path d="M16 27.1167L14.9055 26.1278C12.5481 23.9741 10.5981 22.1306 9.05554 20.5972C7.51295 19.0639 6.29536 17.7116 5.40276 16.5403C4.51017 15.369 3.88656 14.3093 3.53195 13.3611C3.17732 12.413 3 11.4593 3 10.5C3 8.66296 3.62407 7.12036 4.87222 5.87222C6.12036 4.62407 7.66296 4 9.5 4C10.7704 4 11.962 4.325 13.075 4.975C14.188 5.625 15.163 6.57037 16 7.8111C16.837 6.57037 17.812 5.625 18.925 4.975C20.038 4.325 21.2296 4 22.5 4C24.337 4 25.8796 4.62407 27.1278 5.87222C28.3759 7.12036 29 8.66296 29 10.5C29 11.4593 28.8227 12.413 28.468 13.3611C28.1134 14.3093 27.4898 15.369 26.5972 16.5403C25.7046 17.7116 24.4917 19.0639 22.9584 20.5972C21.425 22.1306 19.4704 23.9741 17.0945 26.1278L16 27.1167Z" fill="#FFCC00"/>
</svg>
