<svg width="24" height="24" viewBox="0 0 24 24" fill="none" xmlns="http://www.w3.org/2000/svg">
<path d="M11 16.5H12.5V10.75H11V16.5ZM11.75 9.03845C11.9788 9.03845 12.1707 8.96105 12.3255 8.80625C12.4803 8.65145 12.5577 8.45963 12.5577 8.23078C12.5577 8.00194 12.4803 7.81012 12.3255 7.6553C12.1707 7.5005 11.9788 7.4231 11.75 7.4231C11.5211 7.4231 11.3293 7.5005 11.1745 7.6553C11.0197 7.81012 10.9423 8.00194 10.9423 8.23078C10.9423 8.45963 11.0197 8.65145 11.1745 8.80625C11.3293 8.96105 11.5211 9.03845 11.75 9.03845ZM11.7516 21.25C10.4377 21.25 9.20268 21.0006 8.04655 20.502C6.8904 20.0033 5.88472 19.3265 5.0295 18.4717C4.17427 17.6169 3.49721 16.6116 2.99833 15.456C2.49944 14.3004 2.25 13.0656 2.25 11.7517C2.25 10.4377 2.49933 9.20268 2.998 8.04655C3.49667 6.8904 4.17342 5.88472 5.02825 5.0295C5.8831 4.17427 6.88834 3.49721 8.04398 2.99833C9.19959 2.49944 10.4344 2.25 11.7483 2.25C13.0622 2.25 14.2973 2.49933 15.4534 2.998C16.6096 3.49667 17.6152 4.17342 18.4705 5.02825C19.3257 5.8831 20.0027 6.88834 20.5016 8.04398C21.0005 9.19959 21.25 10.4344 21.25 11.7483C21.25 13.0622 21.0006 14.2973 20.502 15.4534C20.0033 16.6096 19.3265 17.6152 18.4717 18.4705C17.6169 19.3257 16.6116 20.0027 15.456 20.5016C14.3004 21.0005 13.0656 21.25 11.7516 21.25ZM11.75 19.75C13.9833 19.75 15.875 18.975 17.425 17.425C18.975 15.875 19.75 13.9833 19.75 11.75C19.75 9.51664 18.975 7.62498 17.425 6.07498C15.875 4.52498 13.9833 3.74998 11.75 3.74998C9.51664 3.74998 7.62498 4.52498 6.07498 6.07498C4.52498 7.62498 3.74998 9.51664 3.74998 11.75C3.74998 13.9833 4.52498 15.875 6.07498 17.425C7.62498 18.975 9.51664 19.75 11.75 19.75Z" fill="#808082"/>
</svg>
