<svg width="32" height="32" viewBox="0 0 32 32" fill="none" xmlns="http://www.w3.org/2000/svg">
<g clip-path="url(#clip0_9380_24264)">
<g filter="url(#filter0_d_9380_24264)">
<path d="M13 27.32C13 28.76 14.18 29.94 15.62 29.94C17.06 29.94 18.24 28.76 18.24 27.32C18.24 25.88 17.06 24.7 15.62 24.7C14.18 24.7 13 25.88 13 27.32Z" fill="white"/>
<path d="M13 15.97C13 17.41 14.18 18.59 15.62 18.59C17.06 18.59 18.24 17.41 18.24 15.97C18.24 14.53 17.06 13.35 15.62 13.35C14.18 13.35 13 14.53 13 15.97Z" fill="white"/>
<path d="M13 4.62C13 6.06 14.18 7.24 15.62 7.24C17.06 7.24 18.24 6.06 18.24 4.62C18.24 3.18 17.06 2 15.62 2C14.18 2 13 3.18 13 4.62Z" fill="white"/>
</g>
</g>
<defs>
<filter id="filter0_d_9380_24264" x="10.2" y="-0.8" width="10.8402" height="33.54" filterUnits="userSpaceOnUse" color-interpolation-filters="sRGB">
<feFlood flood-opacity="0" result="BackgroundImageFix"/>
<feColorMatrix in="SourceAlpha" type="matrix" values="0 0 0 0 0 0 0 0 0 0 0 0 0 0 0 0 0 0 127 0" result="hardAlpha"/>
<feOffset/>
<feGaussianBlur stdDeviation="1.4"/>
<feComposite in2="hardAlpha" operator="out"/>
<feColorMatrix type="matrix" values="0 0 0 0 0 0 0 0 0 0 0 0 0 0 0 0 0 0 1 0"/>
<feBlend mode="normal" in2="BackgroundImageFix" result="effect1_dropShadow_9380_24264"/>
<feBlend mode="normal" in="SourceGraphic" in2="effect1_dropShadow_9380_24264" result="shape"/>
</filter>
<clipPath id="clip0_9380_24264">
<rect width="32" height="32" fill="white"/>
</clipPath>
</defs>
</svg>
