<svg width="25" height="24" viewBox="0 0 25 24" fill="none" xmlns="http://www.w3.org/2000/svg">
<g clip-path="url(#clip0_5214_17421)">
<path d="M24.0055 6.37945C23.729 5.35127 22.9183 4.54077 21.8903 4.26391C20.0122 3.75005 12.4997 3.75005 12.4997 3.75005C12.4997 3.75005 4.98756 3.75005 3.10948 4.24443C2.10122 4.52099 1.2708 5.35142 0.994239 6.37945C0.5 8.25738 0.5 12.152 0.5 12.152C0.5 12.152 0.5 16.0662 0.994239 17.9245C1.2711 18.9525 2.08145 19.763 3.10962 20.0399C5.00733 20.5539 12.5 20.5539 12.5 20.5539C12.5 20.5539 20.0122 20.5539 21.8903 20.0595C22.9184 19.7828 23.729 18.9723 24.0058 17.9443C24.4999 16.0662 24.4999 12.1717 24.4999 12.1717C24.4999 12.1717 24.5197 8.25738 24.0055 6.37945ZM10.1079 15.7499V8.55401L16.3549 12.152L10.1079 15.7499Z" fill="#2D2C2E"/>
</g>
<defs>
<clipPath id="clip0_5214_17421">
<rect width="24" height="24" fill="white" transform="translate(0.5)"/>
</clipPath>
</defs>
</svg>
