<svg width="40" height="40" viewBox="0 0 40 40" fill="none" xmlns="http://www.w3.org/2000/svg">
<g clip-path="url(#clip0_3779_63003)">
<path d="M0 20C0 8.9543 8.9543 0 20 0C31.0457 0 40 8.9543 40 20C40 31.0457 31.0457 40 20 40C8.9543 40 0 31.0457 0 20Z" fill="#00B900"/>
<path d="M20.3332 9.33333C13.5332 9.33333 8 13.7908 8 19.2698C8 24.1817 12.3877 28.2953 18.3146 29.0731C18.7163 29.1591 19.2629 29.336 19.4012 29.6769C19.5256 29.9865 19.4825 30.4714 19.4409 30.7841C19.4409 30.7841 19.2962 31.6481 19.265 31.8321C19.2113 32.1417 19.0172 33.0428 20.3332 32.4922C21.6497 31.9415 27.4361 28.3401 30.0236 25.3832C31.8105 23.4374 32.6667 21.4626 32.6667 19.2698C32.6667 13.7908 27.1342 9.33333 20.3332 9.33333Z" fill="white"/>
<path d="M16.9049 16.6667C16.7735 16.6667 16.6667 16.7769 16.6667 16.9124V22.4209C16.6667 22.5566 16.7735 22.6667 16.9049 22.6667H17.762C17.8934 22.6667 18 22.5566 18 22.4209V16.9124C18 16.7769 17.8934 16.6667 17.762 16.6667H16.9049Z" fill="#00B900"/>
<path d="M23.7495 16.6667H22.8472C22.7088 16.6667 22.5966 16.7769 22.5966 16.9124V20.185L20.0281 16.776C20.0222 16.7672 20.0155 16.759 20.0086 16.751L20.0069 16.7495C20.002 16.744 19.997 16.7391 19.9919 16.7343C19.9904 16.7328 19.9889 16.7316 19.9872 16.7302C19.983 16.7263 19.9785 16.7226 19.9739 16.7193C19.9719 16.7173 19.9697 16.7159 19.9674 16.7142C19.963 16.7113 19.9588 16.7081 19.9544 16.7054C19.9519 16.7037 19.9494 16.7023 19.9467 16.7011C19.9423 16.6984 19.9379 16.6957 19.9334 16.6936C19.9307 16.6924 19.9282 16.6909 19.9255 16.6899C19.9208 16.6877 19.9162 16.6856 19.9112 16.6839C19.9083 16.6829 19.9058 16.6819 19.9031 16.681C19.8982 16.6793 19.8932 16.6776 19.888 16.6764C19.8853 16.6754 19.8824 16.6749 19.8794 16.6739C19.8745 16.673 19.8698 16.6718 19.8651 16.6708C19.8617 16.6703 19.858 16.6698 19.8545 16.6696C19.8501 16.6686 19.8456 16.6684 19.8412 16.6679C19.837 16.6674 19.8328 16.6674 19.8284 16.6672C19.8252 16.6672 19.8227 16.6667 19.8195 16.6667H18.9175C18.7791 16.6667 18.6667 16.7769 18.6667 16.9124V22.4209C18.6667 22.5566 18.7791 22.6667 18.9175 22.6667H19.8195C19.9581 22.6667 20.0703 22.5566 20.0703 22.4209V19.1493L22.642 22.5627C22.6598 22.5874 22.6817 22.6075 22.7056 22.6235C22.7064 22.624 22.7074 22.6247 22.7081 22.6255C22.7133 22.6286 22.7185 22.6318 22.7236 22.6347C22.7261 22.6361 22.7283 22.6371 22.7308 22.6383C22.7345 22.6405 22.7387 22.6424 22.7426 22.6441C22.7468 22.6458 22.7505 22.6475 22.7549 22.6492C22.7574 22.6502 22.7599 22.6512 22.7623 22.6519C22.7683 22.6541 22.7737 22.6558 22.7794 22.6575C22.7806 22.6575 22.7818 22.6579 22.7831 22.6582C22.8035 22.6635 22.825 22.6667 22.8472 22.6667H23.7495C23.888 22.6667 24 22.5566 24 22.4209V16.9124C24 16.7769 23.888 16.6667 23.7495 16.6667Z" fill="#00B900"/>
<path d="M15.7564 21.2873H13.3675V16.9129C13.3675 16.7769 13.2581 16.6667 13.1236 16.6667H12.2441C12.1093 16.6667 12 16.7769 12 16.9129V22.4202C12 22.4864 12.0262 22.5467 12.0682 22.5908C12.0692 22.592 12.0702 22.5932 12.0716 22.5944C12.0728 22.5957 12.074 22.5966 12.0752 22.5978C12.1192 22.6405 12.1783 22.6667 12.2439 22.6667H15.7564C15.8911 22.6667 16 22.5562 16 22.4202V21.5335C16 21.3976 15.8911 21.2873 15.7564 21.2873Z" fill="#00B900"/>
<path d="M28.423 18.046C28.5578 18.046 28.6667 17.936 28.6667 17.7998V16.9131C28.6667 16.7772 28.5578 16.6667 28.423 16.6667H24.9108C24.845 16.6667 24.7851 16.6933 24.7412 16.7362C24.7402 16.7372 24.739 16.7379 24.7383 16.7389C24.7368 16.7403 24.7356 16.7418 24.7344 16.7432C24.6926 16.7873 24.6667 16.847 24.6667 16.9129V22.4205C24.6667 22.4866 24.6929 22.5467 24.7349 22.5908C24.7359 22.592 24.7371 22.5935 24.7383 22.5944C24.7392 22.5957 24.7407 22.5969 24.7419 22.5978C24.7856 22.6403 24.845 22.6667 24.9103 22.6667H28.423C28.5578 22.6667 28.6667 22.5562 28.6667 22.4205V21.5335C28.6667 21.3978 28.5578 21.2873 28.423 21.2873H26.0344V20.3562H28.423C28.5578 20.3562 28.6667 20.246 28.6667 20.11V19.2233C28.6667 19.0874 28.5578 18.9769 28.423 18.9769H26.0344V18.046H28.423Z" fill="#00B900"/>
</g>
<defs>
<clipPath id="clip0_3779_63003">
<rect width="40" height="40" fill="white"/>
</clipPath>
</defs>
</svg>
