<svg width="24" height="24" viewBox="0 0 24 24" fill="none" xmlns="http://www.w3.org/2000/svg">
<path fill-rule="evenodd" clip-rule="evenodd" d="M3 0.39814C3 0.178253 3.17825 0 3.39814 0H20.2763C20.4962 0 20.6744 0.178253 20.6744 0.39814V21.4958C20.6744 21.7157 20.4962 21.894 20.2763 21.894H11.8869L5.63009 23.9796C5.50868 24.02 5.37521 23.9997 5.27139 23.9248C5.16757 23.85 5.10605 23.7298 5.10605 23.6019V21.894H3.39814C3.17825 21.894 3 21.7157 3 21.4958V0.39814ZM5.90233 21.894V23.0495L9.36888 21.894H5.90233ZM11.7577 21.0977H5.90233V7.01068L17.7646 3.05657V19.0954L11.7577 21.0977ZM14.2758 21.0977L18.2887 19.76C18.4513 19.7058 18.5609 19.5537 18.5609 19.3823V2.50419C18.5609 2.37621 18.4994 2.25603 18.3956 2.1812C18.2918 2.10637 18.1583 2.08601 18.0369 2.12648L5.37828 6.34601C5.21571 6.4002 5.10605 6.55235 5.10605 6.72372V21.0977H3.79628V0.796279H19.8781V21.0977H14.2758ZM6.56093 12.3014C6.78082 12.3014 6.95907 12.4796 6.95907 12.6995V14.813C6.95907 15.0329 6.78082 15.2112 6.56093 15.2112C6.34104 15.2112 6.16279 15.0329 6.16279 14.813V12.6995C6.16279 12.4796 6.34104 12.3014 6.56093 12.3014Z" fill="#2D2C2E"/>
</svg>
