<svg width="20" height="20" viewBox="0 0 20 20" fill="none" xmlns="http://www.w3.org/2000/svg">
<path d="M18.382 7.70749C18.1796 7.70749 18.014 7.8731 18.014 8.07551V15.3868C18.014 15.9511 17.5539 16.4112 16.9896 16.4112H2.38536C1.82107 16.4112 1.36104 15.9511 1.36104 15.3868V8.07551C1.36104 7.8731 1.19543 7.70749 0.99302 7.70749C0.790609 7.70749 0.625 7.8731 0.625 8.07551V15.3868C0.625 16.356 1.41624 17.1472 2.38536 17.1472H16.9896C17.9588 17.1472 18.75 16.356 18.75 15.3868V8.07551C18.75 7.8731 18.5844 7.70749 18.382 7.70749Z" fill="#4E4E51"/>
<path d="M9.39002 13.5161C9.42682 13.5713 9.47589 13.6142 9.53723 13.6387C9.58016 13.6572 9.62923 13.6694 9.6783 13.6694C9.6783 13.6694 9.6783 13.6694 9.68443 13.6694C9.69057 13.6694 9.68443 13.6694 9.69057 13.6694C9.78257 13.6694 9.88071 13.6326 9.94818 13.559C9.96045 13.5467 9.96658 13.5283 9.97885 13.5161L13.4137 10.0812C13.5548 9.94014 13.5548 9.70707 13.4137 9.55986C13.2726 9.41265 13.0396 9.41878 12.8923 9.55986L10.0402 12.412V2.86802C10.0402 2.66561 9.87458 2.5 9.67217 2.5C9.46976 2.5 9.30415 2.66561 9.30415 2.86802V12.3997L6.47039 9.56599C6.32931 9.42492 6.09624 9.42492 5.94903 9.56599C5.80182 9.70707 5.80795 9.94014 5.94903 10.0874L9.38388 13.5222L9.39002 13.5161Z" fill="#4E4E51"/>
</svg>
