<svg width="24" height="24" viewBox="0 0 24 24" fill="none" xmlns="http://www.w3.org/2000/svg">
<path fill-rule="evenodd" clip-rule="evenodd" d="M19.5118 3.32757C19.275 3.09081 18.885 3.09081 18.6482 3.32757L16.7056 5.27109L19.0701 7.63563L21.0116 5.69141C21.2483 5.45464 21.2486 5.06434 21.0118 4.82757L19.5118 3.32757ZM18.4342 8.27248L16.0694 5.90764L3.33632 18.6468L5.70727 21.0178L18.4342 8.27248ZM4.6211 21.2044L3.15 19.7333V21.2044H4.6211ZM18.0118 2.69118C18.6 2.10294 19.56 2.10294 20.1482 2.69118L21.6482 4.19118C22.2364 4.77934 22.2364 5.73909 21.6484 6.32734C21.6484 6.32742 21.6485 6.32727 21.6484 6.32734M21.6484 6.32734L5.89409 22.1044H2.7C2.45147 22.1044 2.25 21.9029 2.25 21.6544L2.25 18.4605L18.0118 2.69118" fill="#808082"/>
</svg>
