<svg width="24" height="24" viewBox="0 0 24 24" fill="none" xmlns="http://www.w3.org/2000/svg">
<path d="M12 20.3375L11.1792 19.5958C9.4111 17.9806 7.9486 16.5979 6.79166 15.4479C5.63471 14.2979 4.72152 13.2837 4.05207 12.4052C3.38262 11.5267 2.91492 10.7319 2.64896 10.0208C2.38299 9.30972 2.25 8.59444 2.25 7.875C2.25 6.49722 2.71805 5.34027 3.65416 4.40416C4.59027 3.46805 5.74722 3 7.125 3C8.07777 3 8.97152 3.24375 9.80625 3.73125C10.641 4.21875 11.3722 4.92777 12 5.85832C12.6278 4.92777 13.359 4.21875 14.1938 3.73125C15.0285 3.24375 15.9222 3 16.875 3C18.2528 3 19.4097 3.46805 20.3458 4.40416C21.2819 5.34027 21.75 6.49722 21.75 7.875C21.75 8.59444 21.617 9.30972 21.351 10.0208C21.0851 10.7319 20.6174 11.5267 19.9479 12.4052C19.2785 13.2837 18.3688 14.2979 17.2188 15.4479C16.0688 16.5979 14.6028 17.9806 12.8208 19.5958L12 20.3375ZM12 18.8708C13.7333 17.3042 15.1597 15.9622 16.2792 14.8448C17.3986 13.7274 18.2833 12.758 18.9333 11.9365C19.5833 11.1149 20.0347 10.3872 20.2875 9.75312C20.5403 9.1191 20.6667 8.49306 20.6667 7.875C20.6667 6.79167 20.3056 5.88889 19.5833 5.16667C18.8611 4.44444 17.9583 4.08333 16.875 4.08333C16.0125 4.08333 15.2167 4.32951 14.4875 4.82187C13.7583 5.31423 13.1056 6.05555 12.5292 7.04584H11.4708C10.8805 6.04167 10.2243 5.29687 9.50208 4.81147C8.77986 4.32605 7.9875 4.08333 7.125 4.08333C6.05555 4.08333 5.15625 4.44444 4.42709 5.16667C3.69792 5.88889 3.33333 6.79167 3.33333 7.875C3.33333 8.49306 3.45972 9.1191 3.7125 9.75312C3.96528 10.3872 4.41667 11.1149 5.06667 11.9365C5.71667 12.758 6.60139 13.724 7.72083 14.8344C8.84028 15.9448 10.2667 17.2903 12 18.8708Z" fill="#1C1B1F"/>
</svg>
