<svg width="24" height="24" viewBox="0 0 24 24" fill="none" xmlns="http://www.w3.org/2000/svg">
<g clip-path="url(#clip0_6484_17608)">
<path d="M23.7358 7.98034L11.8752 0.808989C11.8752 0.808989 11.8333 0.792135 11.8082 0.783708C11.7747 0.766854 11.7496 0.758427 11.7161 0.75C11.6826 0.75 11.6492 0.75 11.6241 0.75C11.5989 0.75 11.5571 0.75 11.532 0.75C11.4985 0.75 11.465 0.766854 11.4399 0.783708C11.4148 0.792135 11.3897 0.792135 11.3729 0.808989L-0.504472 7.98034C-0.73884 8.1236 -0.822542 8.43539 -0.680248 8.67135C-0.588175 8.83146 -0.420769 8.91573 -0.244993 8.91573C-0.161291 8.91573 -0.0692177 8.89045 0.0144851 8.84831L1.62995 7.87079V20.8315C1.62995 22.1629 2.70971 23.25 4.03222 23.25H19.2159C20.5384 23.25 21.6182 22.1629 21.6182 20.8315V7.87079L23.2336 8.84831C23.3173 8.89888 23.401 8.91573 23.4931 8.91573C23.6605 8.91573 23.8279 8.83146 23.9284 8.67135C24.0707 8.43539 23.9953 8.1236 23.7526 7.98034H23.7358ZM14.6792 22.2388H8.55216V15.1011C8.55216 14.3258 9.17993 13.6938 9.95 13.6938H13.2814C14.0514 13.6938 14.6792 14.3258 14.6792 15.1011V22.2388ZM20.6054 20.8315C20.6054 21.6067 19.9776 22.2388 19.2075 22.2388H15.6836V15.1011C15.6836 13.7697 14.6039 12.6826 13.2814 12.6826H9.95C8.6275 12.6826 7.54773 13.7697 7.54773 15.1011V22.2388H4.02385C3.25378 22.2388 2.62601 21.6067 2.62601 20.8315V7.26404L11.6157 1.83708L20.6054 7.26404V20.8315Z" fill="black"/>
</g>
<defs>
<clipPath id="clip0_6484_17608">
<rect width="24" height="24" fill="white"/>
</clipPath>
</defs>
</svg>
