<svg width="24" height="24" viewBox="0 0 24 24" fill="none" xmlns="http://www.w3.org/2000/svg">
<path fill-rule="evenodd" clip-rule="evenodd" d="M22.3184 8.34497C22.5825 8.60902 22.7284 8.95645 22.7284 9.33169C22.7284 9.70692 22.5825 10.0613 22.3184 10.3254L20.0601 12.5837V21.2557C20.0601 22.3536 19.1637 23.25 18.0658 23.25H5.46078C4.36983 23.25 3.48039 22.3675 3.46649 21.2835C2.37554 21.2696 1.5 20.3802 1.5 19.2892V2.74429C1.5 1.64639 2.38944 0.75 3.49429 0.75H16.0993C17.1902 0.75 18.0797 1.63249 18.0936 2.71649C19.1776 2.73039 20.0601 3.61983 20.0601 4.71078V8.61597L20.3311 8.34497C20.8592 7.81686 21.7903 7.81686 22.3184 8.34497ZM19.2262 9.44981V4.71078C19.2262 4.07844 18.719 3.56424 18.0936 3.55034V10.5825L19.2262 9.44981ZM13.4379 15.2381L13.4727 15.2103L17.2597 11.4163V2.71649C17.2458 2.09111 16.7316 1.58385 16.0993 1.58385H3.49429C2.855 1.58385 2.33385 2.105 2.33385 2.74429V19.2892C2.33385 19.9216 2.84111 20.4358 3.46649 20.4497H16.0993C16.7386 20.4497 17.2597 19.9285 17.2597 19.2892V15.3771L15.4461 17.1907C15.4209 17.2222 15.3957 17.2423 15.3652 17.2665C15.3621 17.269 15.359 17.2715 15.3558 17.2741C15.321 17.2949 15.2863 17.3158 15.2446 17.3227C15.2099 17.3436 15.1682 17.3436 15.1265 17.3436H13.7367C13.5005 17.3436 13.3198 17.156 13.3198 16.9267V15.53C13.3198 15.4883 13.3267 15.4466 13.3406 15.4118C13.3476 15.3701 13.3615 15.3354 13.3823 15.3076C13.3875 15.2921 13.3965 15.2843 13.4064 15.2756C13.4099 15.2726 13.4135 15.2695 13.4171 15.2659C13.424 15.259 13.4379 15.2381 13.4379 15.2381ZM18.0658 22.4162C18.7051 22.4162 19.2262 21.895 19.2262 21.2557V13.4175L18.0936 14.5432V19.2892C18.0936 20.3871 17.1972 21.2835 16.0993 21.2835H4.30034C4.31424 21.9089 4.82844 22.4162 5.46078 22.4162H18.0658ZM18.0936 13.3689L19.2262 12.2363L20.0601 11.4024L20.7341 10.7284L20.0601 10.0544L19.928 9.92233L19.2262 10.6242L18.0936 11.7568L17.6767 12.1737L17.2597 12.5976L14.3204 15.53L15.1265 16.336L17.2597 14.2027L17.6767 13.7858L18.0936 13.3689ZM21.3247 10.1377L21.7278 9.73471V9.72776C21.832 9.62353 21.8876 9.47761 21.8876 9.32474C21.8876 9.17186 21.832 9.03289 21.7278 8.92866C21.5124 8.7202 21.1371 8.7202 20.9217 8.92866L20.5187 9.33169L21.3247 10.1377ZM13.7368 4.68988H3.88347C3.65416 4.68988 3.46655 4.87749 3.46655 5.1068C3.46655 5.33611 3.65416 5.52373 3.88347 5.52373H13.7368C13.9661 5.52373 14.1537 5.33611 14.1537 5.1068C14.1537 4.87749 13.9661 4.68988 13.7368 4.68988ZM3.88347 9.4636H11.7633C11.9926 9.4636 12.1803 9.27599 12.1803 9.04668C12.1803 8.81737 11.9926 8.62976 11.7633 8.62976H3.88347C3.65416 8.62976 3.46655 8.81737 3.46655 9.04668C3.46655 9.27599 3.65416 9.4636 3.88347 9.4636ZM3.88347 12.5696H13.7298C13.9591 12.5696 14.1467 12.7572 14.1467 12.9866C14.1467 13.2159 13.9591 13.4035 13.7298 13.4035H3.88347C3.65416 13.4035 3.46655 13.2159 3.46655 12.9866C3.46655 12.7572 3.65416 12.5696 3.88347 12.5696ZM11.7632 16.0929H7.82328C7.36466 16.0929 6.98943 16.4681 6.98943 16.9267C6.98943 17.3853 7.36466 17.7606 7.82328 17.7606H11.7632C12.2218 17.7606 12.5971 17.3853 12.5971 16.9267C12.5971 16.4681 12.2218 16.0929 11.7632 16.0929Z" fill="black"/>
</svg>
