<svg width="24" height="24" viewBox="0 0 24 24" fill="none" xmlns="http://www.w3.org/2000/svg">
<g clip-path="url(#clip0_6484_22446)">
<path fill-rule="evenodd" clip-rule="evenodd" d="M19.4327 0.75C17.3312 0.75 15.6154 2.45794 15.6154 4.56728V13.0204H0.912999C0.409276 13.0204 0 13.4297 0 13.9413V15.2793C0 15.783 0.409276 16.1923 0.912999 16.1923H15.6154V20.1827C15.6154 22.2921 17.3312 24 19.4327 24C21.5342 24 23.25 22.2921 23.25 20.1827V4.56728C23.25 2.45794 21.5421 0.75 19.4327 0.75ZM0.912999 13.9649L15.6154 13.9491H20.0781V15.2478H16.5599L15.6154 15.2557L0.944482 15.2793L0.912999 13.9649ZM22.3055 20.1827C22.3055 21.7726 21.0226 23.0634 19.4327 23.0634C17.8428 23.0634 16.5599 21.7726 16.5599 20.1827V16.1923H20.1017C20.6133 16.1923 21.0226 15.783 21.0226 15.2793V13.9413C21.0226 13.4297 20.6133 13.0204 20.1017 13.0204H16.5599V4.56728C16.5599 2.98527 17.8507 1.69448 19.4327 1.69448C21.0147 1.69448 22.3055 2.98527 22.3055 4.56728V20.1827ZM18.3151 3.77222C17.8743 3.77222 17.5201 4.1264 17.5201 4.56716C17.5201 5.00792 17.8743 5.3621 18.3151 5.3621C18.7558 5.3621 19.11 5.00792 19.11 4.56716C19.11 4.1264 18.7558 3.77222 18.3151 3.77222ZM19.7555 4.56716C19.7555 4.1264 20.1097 3.77222 20.5504 3.77222C20.9912 3.77222 21.3454 4.1264 21.3454 4.56716C21.3454 5.00792 20.9912 5.3621 20.5504 5.3621C20.1097 5.3621 19.7555 5.00792 19.7555 4.56716ZM18.3151 6.56654C17.8743 6.56654 17.5201 6.92072 17.5201 7.36148C17.5201 7.80224 17.8743 8.15642 18.3151 8.15642C18.7558 8.15642 19.11 7.80224 19.11 7.36148C19.11 6.92072 18.7558 6.56654 18.3151 6.56654ZM19.7555 7.36148C19.7555 6.92072 20.1097 6.56654 20.5504 6.56654C20.9912 6.56654 21.3454 6.92072 21.3454 7.36148C21.3454 7.80224 20.9912 8.15642 20.5504 8.15642C20.1097 8.15642 19.7555 7.80224 19.7555 7.36148ZM18.3151 9.3528C17.8743 9.3528 17.5201 9.70698 17.5201 10.1477C17.5201 10.5885 17.8743 10.9427 18.3151 10.9427C18.7558 10.9427 19.11 10.5885 19.11 10.1477C19.11 9.70698 18.7558 9.3528 18.3151 9.3528ZM21.3454 10.1477C21.3454 10.5868 20.9895 10.9427 20.5504 10.9427C20.1114 10.9427 19.7555 10.5868 19.7555 10.1477C19.7555 9.7087 20.1114 9.3528 20.5504 9.3528C20.9895 9.3528 21.3454 9.7087 21.3454 10.1477Z" fill="black"/>
</g>
<defs>
<clipPath id="clip0_6484_22446">
<rect width="24" height="24" fill="white"/>
</clipPath>
</defs>
</svg>
