<svg width="24" height="24" viewBox="0 0 24 24" fill="none" xmlns="http://www.w3.org/2000/svg">
<path fill-rule="evenodd" clip-rule="evenodd" d="M5.1225 7.5675C5.1225 3.8001 8.19035 0.75 11.955 0.75C15.7207 0.75 18.78 3.80113 18.78 7.575V9.24762C19.9584 9.25968 20.91 10.2187 20.91 11.4V20.7525C20.91 21.9413 19.9463 22.905 18.7575 22.905H5.1525C3.96371 22.905 3 21.9413 3 20.7525V11.4C3 10.2212 3.94754 9.26375 5.1225 9.2477V7.5675ZM6.0225 9.2475H17.88V7.575C17.88 4.29887 15.2243 1.65 11.955 1.65C8.68465 1.65 6.0225 4.29991 6.0225 7.5675V9.2475ZM5.1525 10.1475C4.46076 10.1475 3.9 10.7083 3.9 11.4V20.7525C3.9 21.4442 4.46076 22.005 5.1525 22.005H18.7575C19.4492 22.005 20.01 21.4442 20.01 20.7525V11.4C20.01 10.7083 19.4492 10.1475 18.7575 10.1475H5.1525ZM10.9725 13.95C10.9725 13.409 11.414 12.9675 11.955 12.9675C12.496 12.9675 12.9375 13.409 12.9375 13.95C12.9375 14.329 12.7208 14.6592 12.405 14.823V17.1375C12.405 17.386 12.2035 17.5875 11.955 17.5875C11.7065 17.5875 11.505 17.386 11.505 17.1375V14.823C11.1892 14.6592 10.9725 14.329 10.9725 13.95Z" fill="black"/>
</svg>
