<svg width="48" height="49" viewBox="0 0 48 49" fill="none" xmlns="http://www.w3.org/2000/svg">
<g clip-path="url(#clip0_5214_15815)">
<path d="M34.9051 48.5C34.5691 48.5 34.2251 48.458 33.8851 48.368L2.95905 40.086C0.839054 39.502 -0.424946 37.306 0.131054 35.186L4.03305 20.642C4.17705 20.108 4.72505 19.798 5.25705 19.934C5.79105 20.076 6.10705 20.626 5.96505 21.158L2.06505 35.698C1.78705 36.758 2.42305 37.862 3.48505 38.156L34.3991 46.434C35.4611 46.714 36.5571 46.082 36.8331 45.026L38.3951 39.238C38.5391 38.704 39.0871 38.386 39.6211 38.532C40.1551 38.676 40.4691 39.226 40.3271 39.758L38.7671 45.538C38.2971 47.318 36.6771 48.5 34.9051 48.5Z" fill="black"/>
<path d="M44 36.5H12C9.794 36.5 8 34.706 8 32.5V8.5C8 6.294 9.794 4.5 12 4.5H44C46.206 4.5 48 6.294 48 8.5V32.5C48 34.706 46.206 36.5 44 36.5ZM12 6.5C10.898 6.5 10 7.398 10 8.5V32.5C10 33.602 10.898 34.5 12 34.5H44C45.102 34.5 46 33.602 46 32.5V8.5C46 7.398 45.102 6.5 44 6.5H12Z" fill="black"/>
<path d="M18 18.5C15.794 18.5 14 16.706 14 14.5C14 12.294 15.794 10.5 18 10.5C20.206 10.5 22 12.294 22 14.5C22 16.706 20.206 18.5 18 18.5ZM18 12.5C16.898 12.5 16 13.398 16 14.5C16 15.602 16.898 16.5 18 16.5C19.102 16.5 20 15.602 20 14.5C20 13.398 19.102 12.5 18 12.5Z" fill="black"/>
<path d="M9.14113 34.36C8.88513 34.36 8.62912 34.262 8.43312 34.068C8.04313 33.678 8.04313 33.044 8.43312 32.654L17.8791 23.208C19.0111 22.076 20.9891 22.076 22.1211 23.208L24.9331 26.02L32.7171 16.68C33.2831 16.002 34.1151 15.608 35.0011 15.6H35.0231C35.8991 15.6 36.7291 15.98 37.3011 16.646L47.7611 28.85C48.1211 29.268 48.0731 29.9 47.6531 30.26C47.2351 30.62 46.6051 30.574 46.2431 30.152L35.7831 17.948C35.5891 17.724 35.3211 17.6 35.0231 17.6C34.8151 17.582 34.4491 17.726 34.2551 17.96L25.7691 28.142C25.5891 28.358 25.3271 28.488 25.0451 28.5C24.7611 28.52 24.4911 28.408 24.2931 28.208L20.7071 24.622C20.3291 24.246 19.6711 24.246 19.2931 24.622L9.84712 34.068C9.65312 34.262 9.39713 34.36 9.14113 34.36Z" fill="black"/>
</g>
<defs>
<clipPath id="clip0_5214_15815">
<rect width="48" height="48" fill="white" transform="translate(0 0.5)"/>
</clipPath>
</defs>
</svg>
