<svg width="136" height="136" viewBox="0 0 136 136" fill="none" xmlns="http://www.w3.org/2000/svg">
<mask id="mask0_2234_10358" style="mask-type:luminance" maskUnits="userSpaceOnUse" x="0" y="0" width="136" height="137">
<path d="M0 68.0048C0 105.562 30.4472 136.01 68.0048 136.01C105.562 136.01 136 105.562 136 68.0048C136 30.4472 105.553 0 68.0048 0C30.4568 0 0 30.4472 0 68.0048Z" fill="white"/>
</mask>
<g mask="url(#mask0_2234_10358)">
<path d="M0.0168602 -0.480633L-0.483398 136.008L136.005 136.508L136.505 0.0196256L0.0168602 -0.480633Z" fill="url(#paint0_linear_2234_10358)"/>
</g>
<g style="mix-blend-mode:multiply">
<mask id="mask1_2234_10358" style="mask-type:luminance" maskUnits="userSpaceOnUse" x="12" y="43" width="110" height="47">
<path d="M121.247 43.1528H12.1826V89.3466H121.247V43.1528Z" fill="white"/>
</mask>
<g mask="url(#mask1_2234_10358)">
<path d="M51.621 43.1528H42.7737L31.969 63.6301L21.097 43.1528H12.1826L27.862 71.345V88.8476H35.9512V71.4698L51.621 43.1528Z" fill="#231815"/>
<path d="M58.9365 54.5342C49.8398 54.5342 45.5409 59.3992 45.157 65.9723H52.9967C53.1887 63.0648 54.7623 61.1072 58.8693 61.1072C63.6096 61.1072 64.9338 63.3814 64.9338 66.8551V69.0045H57.7946C53.1791 69.0045 50.2716 69.5707 48.1221 70.962C45.3394 72.7276 43.8232 75.3185 43.8232 79.0512C43.8232 83.8587 46.7307 89.357 55.8275 89.357C60.2511 89.357 63.4081 87.9081 65.308 85.4995V88.7909H72.7639V66.9894C72.7639 59.8502 68.8489 54.5438 58.9269 54.5438M64.9338 78.1204C64.9338 81.6613 61.7768 83.3021 57.5355 83.3021C52.8624 83.3021 51.6629 81.2774 51.6629 78.8785C51.6629 77.5543 52.1715 76.4124 53.2462 75.7215C54.129 75.1554 55.5204 74.9634 58.1784 74.9634H64.9434V78.1204H64.9338Z" fill="#231815"/>
<path d="M117.555 59.4571C115.032 56.4249 111.174 54.5249 105.868 54.5249C100.12 54.5249 96.3201 56.6072 93.9212 59.5147C90.889 63.2474 90.1885 68.4291 90.1885 72.1522C90.1885 75.8754 90.8218 80.1742 93.2879 83.6575C95.754 87.1311 99.7938 89.3477 106.242 89.3477C110.541 89.3477 113.947 88.3402 116.356 86.565C118.947 84.665 120.588 81.8919 120.847 78.7924H113.007C112.815 79.8672 112.182 80.9419 111.241 81.6328C110.109 82.458 108.526 82.8322 106.252 82.8322C103.152 82.8322 101.07 81.8823 99.8034 80.1167C98.7958 78.7253 98.3544 76.5183 98.3544 74.5607H121.173C121.614 68.3619 120.54 63.0555 117.575 59.4571M98.4216 68.7457C98.4888 66.8458 99.1221 64.514 100.446 63.0555C101.713 61.6641 103.546 60.906 105.945 60.906C108.344 60.906 110.119 61.6641 111.318 62.9883C112.642 64.4373 113.084 66.9034 113.084 68.7361H98.4216V68.7457Z" fill="#231815"/>
<path d="M89.483 89.0402V82.0257C85.8175 82.2176 84.8675 80.7015 84.8675 77.6693V43.1631H77.2197V78.4273C77.2197 85.2499 79.8777 89.5488 89.483 89.0402Z" fill="#231815"/>
</g>
</g>
<defs>
<linearGradient id="paint0_linear_2234_10358" x1="64.7185" y1="133.141" x2="65.1519" y2="14.8845" gradientUnits="userSpaceOnUse">
<stop stop-color="#FABE00"/>
<stop offset="0.28" stop-color="#FDD000"/>
<stop offset="0.5" stop-color="#FFD900"/>
<stop offset="0.67" stop-color="#FFDB08"/>
<stop offset="0.94" stop-color="#FFE321"/>
<stop offset="1" stop-color="#FFE628"/>
</linearGradient>
</defs>
</svg>
