<svg width="58" height="54" viewBox="0 0 58 54" fill="none" xmlns="http://www.w3.org/2000/svg">
<path fill-rule="evenodd" clip-rule="evenodd" d="M31.951 1.02955C31.951 0.460945 31.4562 0 30.8459 0C30.2355 0 29.7407 0.460945 29.7407 1.02955V3.32006C20.0093 3.76884 11.9395 10.1112 9.56543 18.5997L3.71911 33.1286C3.69181 33.1919 3.67108 33.2584 3.65769 33.3272C3.63396 33.4477 3.63406 33.5687 3.65552 33.6852C3.68349 33.8389 3.74803 33.9811 3.84052 34.1036C3.92867 34.2208 4.04366 34.3217 4.18108 34.3975C4.29418 34.4602 4.42031 34.5045 4.55478 34.5263C4.62662 34.5381 4.69861 34.543 4.76983 34.5415H8.85245V40.307C8.85245 45.1668 13.1249 49.1268 18.3202 49.1268H24.5277V52.9705C24.5277 53.5391 25.0225 54 25.6329 54C26.2433 54 26.7381 53.5391 26.7381 52.9705V48.0972C26.7381 47.5286 26.2433 47.0677 25.6329 47.0677H18.3202C14.3425 47.0677 11.0628 44.0267 11.0628 40.307V33.5364L11.0631 33.512C11.0631 32.9433 10.5683 32.4824 9.95794 32.4824H6.3397L11.6559 19.2709C11.6724 19.2298 11.6859 19.1885 11.6966 19.1469C13.813 11.5298 21.0288 5.82916 29.7407 5.38203V21.435C29.1034 21.5193 28.4671 21.6789 27.845 21.919C23.86 23.4567 21.9676 27.7126 23.6183 31.4249C23.8753 32.0029 24.203 32.5337 24.5883 33.0121L19.602 37.6571C19.1704 38.0592 19.1704 38.711 19.602 39.1131C20.0336 39.5152 20.7334 39.5152 21.165 39.1131L26.1532 34.4663C28.2873 35.9513 31.1829 36.3809 33.8225 35.3623C37.8075 33.8247 39.6999 29.5687 38.0493 25.8565C36.9566 23.3991 34.5853 21.7959 31.951 21.4389V5.38205C42.358 5.91667 50.6288 13.9551 50.6288 23.7827C50.6288 28.46 48.7663 32.713 45.6993 35.9636C45.535 36.1337 45.4306 36.3552 45.4174 36.599C45.4164 36.6166 45.4159 36.6342 45.4159 36.652V52.9704C45.4159 53.539 45.9107 53.9999 46.5211 53.9999C47.1315 53.9999 47.6263 53.539 47.6263 52.9704V37.0349C50.8743 33.4622 52.8391 28.8436 52.8391 23.7827C52.8391 12.8177 43.5793 3.8569 31.951 3.32009V1.02955ZM29.7407 23.5236C29.3876 23.5894 29.0362 23.6881 28.6909 23.8213C25.8337 24.9238 24.4769 27.9753 25.6604 30.6369C25.8027 30.957 25.9754 31.257 26.1739 31.535L29.7407 28.2123V23.5236ZM27.7393 32.9888L31.6459 29.3495C31.9133 29.1004 32.0151 28.7553 31.951 28.4332V23.5286C33.7116 23.8641 35.2677 24.9815 36.0071 26.6444C37.1906 29.3061 35.8338 32.3575 32.9766 33.46C31.1898 34.1495 29.2393 33.9134 27.7393 32.9888Z" fill="#2D2C2E"/>
</svg>
