<svg width="58" height="54" viewBox="0 0 58 54" fill="none" xmlns="http://www.w3.org/2000/svg">
<path d="M54.6384 41.1224L38.146 25.7789C37.54 25.2144 36.8257 24.8515 36.0682 24.6297L37.3452 23.4401L38.0594 24.1055C40.0073 25.9201 43.1673 25.9201 45.1152 24.1055L52.9069 16.8269C53.8592 15.9599 54.3787 14.8106 54.3787 13.5606C54.3787 12.3105 53.8592 11.1411 52.9069 10.254L51.2836 8.74179C50.7858 8.27806 49.9417 8.27806 49.4439 8.74179L44.0763 13.8429L41.4791 11.5242L46.9549 6.42313C47.4527 5.9594 47.4527 5.19323 46.9549 4.70933L45.1152 2.99554C43.2322 1.24142 39.9424 1.26158 38.0594 2.99554L30.2461 10.254C28.3198 12.0686 28.3198 15.0123 30.2461 16.8269L31.1768 17.6938L26.004 22.5126L19.3594 16.3228C19.3594 16.3228 19.2079 16.1817 19.0997 16.1414L19.5109 15.7583C20.5065 14.851 20.5065 13.359 19.5109 12.4315L12.585 5.97956C12.1088 5.53599 11.4811 5.27388 10.7886 5.27388C10.096 5.27388 9.48994 5.53599 9.01378 5.9594L6.39491 8.39903C5.9404 8.8426 5.65903 9.42731 5.65903 10.0523C5.65903 10.6774 5.9404 11.2822 6.39491 11.7258L13.3425 18.1777C13.8187 18.6415 14.468 18.8834 15.1389 18.8834C15.8099 18.8834 16.4375 18.6213 16.9137 18.1979L17.3249 17.8148C17.3249 17.8148 17.4331 17.9761 17.5197 18.0366L24.1643 24.2264L2.56401 44.3282C2.08785 44.7718 1.82812 45.3565 1.82812 46.0017C1.82812 46.6469 2.08785 47.2114 2.56401 47.6752L5.16123 50.0745C5.63739 50.5382 6.2867 50.8003 6.95765 50.8003C7.6286 50.8003 8.2779 50.5382 8.73242 50.0946L26.3719 33.6624C26.61 34.3882 27.0212 35.0536 27.6056 35.598L44.0763 50.9616C45.0503 51.8689 46.3273 52.3125 47.6042 52.3125C48.8812 52.3125 50.1582 51.8689 51.1321 50.9616L54.5951 47.7357C55.5258 46.8485 56.0452 45.6993 56.0452 44.4492C56.0452 43.1991 55.5258 42.0499 54.5951 41.1628L54.6384 41.1224ZM15.1606 16.4841L8.21297 10.1128L10.7669 7.73368L17.6712 14.0445L15.1606 16.4841ZM7.02258 48.3405L4.40371 46.0219L33.9039 18.5407C34.4017 18.0769 34.4017 17.3108 33.9039 16.8269L32.0642 15.1131C31.1335 14.2461 31.1335 12.8347 32.0642 11.9678L39.8775 4.70933C40.332 4.28593 40.9597 4.06414 41.5657 4.06414C42.1717 4.06414 42.7994 4.28593 43.2539 4.70933L44.1846 5.57631L39.6394 9.83056C39.1632 10.2741 38.9035 10.8588 38.9035 11.504C38.9035 12.1492 39.1632 12.7138 39.6394 13.1573L42.2366 15.5768C43.2106 16.4841 44.8122 16.4841 45.8078 15.5768L50.3746 11.3226L51.0888 11.9879C51.5434 12.4113 51.8031 12.9759 51.8031 13.5807C51.8031 14.1654 51.5434 14.73 51.1105 15.1332L43.3188 22.4118C42.4098 23.2586 40.8514 23.2586 39.9424 22.4118L38.3192 20.8795C38.0811 20.6577 37.7348 20.5166 37.3885 20.5166C37.0422 20.5166 36.7175 20.6375 36.4795 20.8795L31.5231 25.5168C31.3932 25.6176 31.285 25.6781 31.1551 25.7991L30.3543 26.5653L28.5146 28.2791L27.6922 29.0251C27.5407 29.1662 27.4108 29.3275 27.2809 29.4888L7.02258 48.3607V48.3405ZM52.7987 45.9815L49.3357 49.2075C48.405 50.0745 46.89 50.0745 45.9593 49.2075L29.4886 33.864C29.0341 33.4406 28.796 32.8761 28.796 32.2913C28.796 31.7066 29.0124 31.2429 29.402 30.8397L33.1247 27.3717C33.5576 27.029 34.077 26.8475 34.6397 26.8475C35.2458 26.8475 35.8518 27.0693 36.3279 27.4927L52.7987 42.8564C53.2532 43.2798 53.4913 43.8443 53.4913 44.429C53.4913 45.0137 53.2532 45.5783 52.7987 46.0017V45.9815Z" fill="#2D2C2E"/>
</svg>
