<svg width="58" height="54" viewBox="0 0 58 54" fill="none" xmlns="http://www.w3.org/2000/svg">
<g clip-path="url(#clip0_2511_8724)">
<path fill-rule="evenodd" clip-rule="evenodd" d="M27.2887 1.99805C27.7342 1.58373 28.4559 1.58402 28.901 1.99871L55.8383 27.0924C56.1645 27.3963 56.2621 27.8533 56.0855 28.2504C55.909 28.6474 55.4931 28.9063 55.0318 28.9063H50.7925V52.8489C50.7925 53.1692 50.6479 53.4037 50.5411 53.533C50.4361 53.6602 50.3237 53.741 50.2585 53.7836C50.1874 53.8299 50.1237 53.8619 50.0818 53.8815C50.0594 53.8919 50.0395 53.9005 50.0228 53.9074L49.9996 53.9167L49.9896 53.9206L49.9849 53.9223L49.9827 53.9232L49.9816 53.9236L49.981 53.9238C49.9808 53.9239 49.9805 53.924 49.5569 52.9375L49.9805 53.924C49.8458 53.9742 49.702 54 49.5569 54H6.63214C6.28832 54 6.03654 53.8653 5.89778 53.7658C5.76119 53.6679 5.67445 53.5633 5.6288 53.5025C5.57906 53.4363 5.54467 53.3769 5.52373 53.3379C5.51254 53.3171 5.50329 53.2985 5.49592 53.283L5.48591 53.2614L5.48173 53.252L5.47983 53.2476L5.47893 53.2455L5.47849 53.2445L5.47828 53.244C5.47817 53.2438 5.47806 53.2435 6.53709 52.8489L5.47806 53.2435C5.42417 53.118 5.39648 52.9841 5.39648 52.8489V32.8979L5.39617 32.8727L5.39648 32.8475V28.9063H1.15724C0.696455 28.9063 0.28093 28.648 0.104034 28.2517C-0.0728614 27.8553 0.0236218 27.3987 0.348584 27.0944L10.7953 17.3111V10.2764C10.7953 9.68956 11.306 9.21384 11.9359 9.21384H17.3158C17.923 9.21384 18.4193 9.65579 18.4544 10.2132L27.2887 1.99805ZM7.67769 51.8749V33.9352H21.6927C22.2336 36.7798 24.9068 38.9468 28.1132 38.9468C31.3193 38.9468 33.9956 36.7932 34.5347 33.9352H48.5113V51.8749H7.67769ZM32.3446 32.6302C32.325 32.7081 32.3147 32.7893 32.3147 32.8727C32.3147 32.9563 32.3251 33.0375 32.3446 33.1155C32.2103 35.1921 30.3644 36.8217 28.1132 36.8217C25.7776 36.8217 23.874 35.0483 23.874 32.8726C23.874 30.6968 25.7776 28.9234 28.1132 28.9234C30.3615 28.9234 32.2095 30.5666 32.3446 32.6302ZM34.5339 31.8102H48.5113V27.8438C48.5113 27.2569 49.022 26.7812 49.6519 26.7812H52.2781L28.0938 4.25204L18.1216 13.5254C17.7952 13.8288 17.3048 13.9194 16.8788 13.7548C16.4529 13.5903 16.1752 13.2029 16.1752 12.7734V11.3389H13.0765V17.7496C13.0765 18.0304 12.9572 18.2998 12.7446 18.4989L3.90066 26.7812H6.53709C7.16703 26.7812 7.67769 27.2569 7.67769 27.8438V31.8102H21.6926C22.2335 28.9655 24.9067 26.7984 28.1132 26.7984C31.3198 26.7984 33.993 28.9655 34.5339 31.8102Z" fill="#2D2C2E"/>
</g>
<defs>
<clipPath id="clip0_2511_8724">
<rect width="57.9672" height="54" fill="white" transform="translate(0.0166016)"/>
</clipPath>
</defs>
</svg>
