<svg width="58" height="54" viewBox="0 0 58 54" fill="none" xmlns="http://www.w3.org/2000/svg">
<g clip-path="url(#clip0_2511_8719)">
<path d="M43.5373 24.982C43.5373 24.982 43.5702 24.936 43.6031 24.9207C43.6524 24.8747 43.7018 24.8287 43.7512 24.7827C43.7841 24.7367 43.8334 24.6908 43.8499 24.6448C43.8828 24.5988 43.8992 24.5375 43.9157 24.4915C43.9322 24.4302 43.9486 24.3689 43.9486 24.3076C43.9486 24.2769 43.9651 24.2616 43.9651 24.2309V11.2942C43.9651 11.2942 43.9651 11.2942 43.9651 11.2789C43.9651 11.1409 43.9157 11.0183 43.8663 10.911C43.8499 10.8804 43.817 10.8497 43.8005 10.8191C43.7347 10.7424 43.6689 10.6658 43.5866 10.6045C43.5702 10.5891 43.5537 10.5585 43.5373 10.5432L29.535 1.83695C29.2059 1.63768 28.7781 1.63768 28.4325 1.83695L14.4467 10.5278C14.4467 10.5278 14.4138 10.5585 14.3973 10.5891C14.3151 10.6505 14.2493 10.7118 14.1834 10.8037C14.167 10.8344 14.1341 10.865 14.1176 10.8957C14.0518 11.003 14.0189 11.1409 14.0189 11.2636C14.0189 11.2636 14.0189 11.2636 14.0189 11.2789V24.2003C14.0189 24.2003 14.0189 24.2616 14.0354 24.2769C14.0354 24.3382 14.0518 24.3995 14.0683 24.4608C14.0847 24.5222 14.1012 24.5681 14.1341 24.6141C14.167 24.6601 14.1999 24.7061 14.2328 24.7521C14.2822 24.7981 14.3151 24.844 14.3809 24.89C14.3973 24.9054 14.4138 24.936 14.4467 24.9513L28.4325 33.8568C28.4325 33.8568 28.4655 33.8568 28.4984 33.8721C28.6464 33.9488 28.811 34.0101 28.992 34.0101C29.173 34.0101 29.3375 33.9488 29.4856 33.8721C29.5021 33.8721 29.535 33.8721 29.5514 33.8568L43.5373 24.9513V24.982ZM15.9934 13.0416L28.0047 20.6902V31.389L15.9934 23.7404V13.0416ZM29.9792 20.6902L41.9906 13.0416V23.7404L29.9792 31.389V20.6902ZM28.992 3.70694L41.2173 11.2942L28.992 19.0808L16.7667 11.2942L28.992 3.70694Z" fill="#4E4E51"/>
<path d="M21.0612 33.7802L16.9806 31.435C15.9605 30.8526 14.3809 29.6876 13.5253 28.8906L8.81946 24.5068C8.22711 23.955 7.47023 23.6025 6.6969 23.5105C6.31846 23.4645 5.97293 23.5105 5.62739 23.5872V16.9809C5.62739 15.2795 4.36044 13.8846 2.81377 13.8846C1.2671 13.8846 0.0166016 15.2641 0.0166016 16.9655V33.9641C0.0166016 35.4203 0.921568 37.3056 2.0898 38.2712L8.81946 43.8506C9.69152 44.5863 10.942 45.9965 11.5344 46.9468L14.0189 50.9474C14.1999 51.2386 14.529 51.4072 14.8745 51.4072C15.039 51.4072 15.22 51.3612 15.3681 51.2846C15.8453 51.024 16.0098 50.4722 15.7301 50.0277L13.2456 46.0271C12.5545 44.9082 11.1888 43.3448 10.1358 42.4711L3.40611 36.8917C2.64923 36.2633 1.99107 34.8991 1.99107 33.9641V16.9655C1.99107 16.2451 2.43533 15.7086 2.83022 15.7086C3.22512 15.7086 3.66938 16.2451 3.66938 16.9655V25.7637C3.66938 25.917 3.71874 26.0549 3.80101 26.1929C3.88328 26.898 4.24526 27.6184 4.85406 28.2008L13.1633 35.9567C13.5417 36.3093 14.167 36.3093 14.5619 35.9567C14.9403 35.6042 14.9403 35.0217 14.5619 34.6539L6.25264 26.898C5.70966 26.3922 5.61094 25.7177 5.89066 25.4572C6.0552 25.3039 6.31846 25.3039 6.46654 25.3192C6.79562 25.3652 7.15761 25.5338 7.43733 25.7944L12.1432 30.1781C13.0975 31.0671 14.8087 32.324 15.9605 32.9831L20.041 35.3283C20.8966 35.8188 21.8016 37.0603 21.9662 37.98L23.3647 45.5366C23.447 45.9811 23.8584 46.303 24.3355 46.303C24.3849 46.303 24.4507 46.303 24.5001 46.303C25.043 46.2111 25.405 45.7359 25.3063 45.2454L23.9077 37.6888C23.6445 36.2633 22.394 34.5466 21.0776 33.7802H21.0612Z" fill="#4E4E51"/>
<path d="M57.9674 16.9655C57.9674 15.2641 56.7004 13.8693 55.1537 13.8693C53.6071 13.8693 52.3401 15.2641 52.3401 16.9655V23.5718C52.011 23.4952 51.649 23.4645 51.2706 23.4952C50.4973 23.5872 49.7404 23.9397 49.1481 24.4915L44.4422 28.8753C43.5866 29.6723 42.007 30.8372 40.9869 31.4197L36.9063 33.7648C35.5736 34.5312 34.3395 36.248 34.0762 37.6734L32.6777 45.2301C32.5789 45.7359 32.9409 46.2111 33.4839 46.2877C33.5333 46.2877 33.5991 46.2877 33.6484 46.2877C34.1256 46.2877 34.537 45.9658 34.6192 45.5213L36.0178 37.9647C36.1823 37.045 37.0873 35.8035 37.9429 35.313L42.0235 32.9678C43.1753 32.3087 44.8865 31.0518 45.8408 30.1628L50.5466 25.779C50.8264 25.5185 51.1719 25.3499 51.5174 25.3039C51.6655 25.2886 51.9288 25.2886 52.0933 25.4418C52.373 25.7024 52.2743 26.3768 51.7313 26.8826L43.4221 34.6385C43.0436 34.9911 43.0436 35.5735 43.4221 35.9414C43.8005 36.2939 44.4258 36.2939 44.8207 35.9414L53.1299 28.2008C53.7552 27.6184 54.1007 26.898 54.183 26.1929C54.2652 26.0703 54.3146 25.917 54.3146 25.7637V16.9655C54.3146 16.2451 54.7588 15.7086 55.1537 15.7086C55.5486 15.7086 55.9929 16.2451 55.9929 16.9655V33.9641C55.9929 34.8991 55.3347 36.2786 54.5943 36.8917L47.8646 42.4711C46.828 43.3294 45.4624 44.8929 44.7549 46.0271L42.2703 50.0277C41.9906 50.4722 42.1551 51.024 42.6323 51.2846C42.7804 51.3612 42.9614 51.4072 43.1259 51.4072C43.4714 51.4072 43.8005 51.2386 43.9815 50.9474L46.4661 46.9468C47.0584 45.9965 48.2924 44.571 49.181 43.8506L55.9106 38.2559C57.0788 37.2903 57.9838 35.4049 57.9838 33.9488V16.9502L57.9674 16.9655Z" fill="#4E4E51"/>
</g>
<defs>
<clipPath id="clip0_2511_8719">
<rect width="57.9672" height="54" fill="white" transform="translate(0.0166016)"/>
</clipPath>
</defs>
</svg>
