<?xml version="1.0" encoding="utf-8"?>
<!-- Generator: Adobe Illustrator 25.0.1, SVG Export Plug-In . SVG Version: 6.00 Build 0)  -->
<svg version="1.1" id="圖層_1" xmlns="http://www.w3.org/2000/svg" xmlns:xlink="http://www.w3.org/1999/xlink" x="0px" y="0px"
	 viewBox="0 0 120 120" style="enable-background:new 0 0 120 120;" xml:space="preserve">
<style type="text/css">
	.st0{fill-rule:evenodd;clip-rule:evenodd;fill:#4E4E51;}
</style>
<g>
	<defs>
		<path id="SVGID_1_" d="M60,0L60,0c33.1,0,60,26.9,60,60l0,0c0,33.1-26.9,60-60,60l0,0C26.9,120,0,93.1,0,60l0,0
			C0,26.9,26.9,0,60,0z"/>
	</defs>
	<clipPath id="SVGID_2_">
		<use xlink:href="#SVGID_1_"  style="overflow:visible;"/>
	</clipPath>
</g>
<g>
	<path class="st0" d="M63.6,33.1c0-0.6-0.5-1.1-1.1-1.1c-0.6,0-1.1,0.5-1.1,1.1v2.4c-9.4,0.5-17.2,7-19.5,15.8l-5.6,15.1
		c0,0.1,0,0.1-0.1,0.2c0,0.1,0,0.3,0,0.4c0,0.2,0.1,0.3,0.2,0.4c0.1,0.1,0.2,0.2,0.3,0.3c0.1,0.1,0.2,0.1,0.4,0.1c0.1,0,0.1,0,0.2,0
		h3.9v6c0,5,4.1,9.1,9.1,9.1h6v4c0,0.6,0.5,1.1,1.1,1.1c0.6,0,1.1-0.5,1.1-1.1v-5.1c0-0.6-0.5-1.1-1.1-1.1h-7.1c-3.8,0-7-3.2-7-7v-7
		l0,0c0-0.6-0.5-1.1-1.1-1.1h-3.5L44,52c0,0,0-0.1,0-0.1c2-7.9,9-13.8,17.4-14.3v16.6c-0.6,0.1-1.2,0.3-1.8,0.5
		c-3.8,1.6-5.7,6-4.1,9.9c0.2,0.6,0.6,1.1,0.9,1.6l-4.8,4.8c-0.4,0.4-0.4,1.1,0,1.5c0.4,0.4,1.1,0.4,1.5,0l4.8-4.8
		c2.1,1.5,4.9,2,7.4,0.9c3.8-1.6,5.7-6,4.1-9.9c-1.1-2.5-3.3-4.2-5.9-4.6V37.6c10.1,0.6,18,8.9,18,19.1c0,4.9-1.8,9.3-4.8,12.6
		c-0.2,0.2-0.3,0.4-0.3,0.7c0,0,0,0,0,0.1v16.9c0,0.6,0.5,1.1,1.1,1.1c0.6,0,1.1-0.5,1.1-1.1V70.4c3.1-3.7,5-8.5,5-13.7
		c0-11.4-8.9-20.7-20.2-21.2V33.1z M61.5,56.4c-0.3,0.1-0.7,0.2-1,0.3c-2.8,1.1-4.1,4.3-2.9,7.1c0.1,0.3,0.3,0.6,0.5,0.9l3.4-3.4
		V56.4z M59.5,66.2l3.8-3.8c0.3-0.3,0.4-0.6,0.3-1v-5.1c1.7,0.3,3.2,1.5,3.9,3.2c1.1,2.8-0.2,5.9-2.9,7.1
		C62.9,67.4,61,67.2,59.5,66.2z"/>
</g>
</svg>
