<svg width="120" height="120" viewBox="0 0 120 120" fill="none" xmlns="http://www.w3.org/2000/svg">
<g clip-path="url(#clip0_5711_13835)">
<path d="M83.9695 53.581C83.4028 53.581 82.9391 54.0447 82.9391 54.6114V75.0832C82.9391 76.6632 81.651 77.9513 80.071 77.9513H39.179C37.599 77.9513 36.3109 76.6632 36.3109 75.0832V54.6114C36.3109 54.0447 35.8472 53.581 35.2805 53.581C34.7137 53.581 34.25 54.0447 34.25 54.6114V75.0832C34.25 77.7967 36.4655 80.0122 39.179 80.0122H80.071C82.7845 80.0122 85 77.7967 85 75.0832V54.6114C85 54.0447 84.5363 53.581 83.9695 53.581Z" fill="#4E4E51"/>
<path d="M58.792 69.845C58.8951 69.9996 59.0325 70.1198 59.2042 70.1885C59.3245 70.24 59.4618 70.2744 59.5992 70.2744C59.5992 70.2744 59.5992 70.2744 59.6164 70.2744C59.6336 70.2744 59.6164 70.2744 59.6336 70.2744C59.8912 70.2744 60.166 70.1713 60.3549 69.9652C60.3893 69.9309 60.4064 69.8794 60.4408 69.845L70.0584 60.2274C70.4534 59.8324 70.4534 59.1798 70.0584 58.7676C69.6634 58.3554 69.0107 58.3726 68.5986 58.7676L60.6125 66.7536V40.0305C60.6125 39.4637 60.1488 39 59.5821 39C59.0153 39 58.5516 39.4637 58.5516 40.0305V66.7193L50.6171 58.7848C50.2221 58.3898 49.5695 58.3898 49.1573 58.7848C48.7451 59.1798 48.7623 59.8324 49.1573 60.2446L58.7749 69.8622L58.792 69.845Z" fill="#4E4E51"/>
</g>
<defs>
<clipPath id="clip0_5711_13835">
<rect width="120" height="120" rx="60" fill="white"/>
</clipPath>
</defs>
</svg>
