<svg width="120" height="120" viewBox="0 0 120 120" fill="none" xmlns="http://www.w3.org/2000/svg">
<g clip-path="url(#clip0_5711_20617)">
<circle cx="60" cy="60" r="60" fill="#F5F5F5"/>
<path d="M85.2681 74.6455L69.3354 58.7337C68.7499 58.1483 68.0599 57.7719 67.3281 57.5419L68.5617 56.3083L69.2517 56.9983C71.1335 58.8801 74.1863 58.8801 76.0681 56.9983L83.5953 49.4501C84.5153 48.551 85.0172 47.3592 85.0172 46.0628C85.0172 44.7665 84.5153 43.5537 83.5953 42.6337L82.0272 41.0656C81.5462 40.5847 80.7308 40.5847 80.2499 41.0656L75.0644 46.3555L72.5554 43.951L77.8453 38.661C78.3263 38.1801 78.3263 37.3856 77.8453 36.8838L76.0681 35.1065C74.249 33.2874 71.0708 33.3083 69.2517 35.1065L61.7036 42.6337C59.8427 44.5156 59.8427 47.5683 61.7036 49.4501L62.6027 50.3492L57.6054 55.3464L51.1863 48.9274C51.1863 48.9274 51.04 48.781 50.9354 48.7392L51.3327 48.3419C52.2945 47.401 52.2945 45.8537 51.3327 44.8919L44.6418 38.201C44.1818 37.741 43.5754 37.4692 42.9063 37.4692C42.2373 37.4692 41.6518 37.741 41.1918 38.1801L38.6618 40.7101C38.2227 41.1701 37.9509 41.7765 37.9509 42.4246C37.9509 43.0728 38.2227 43.7001 38.6618 44.1601L45.3736 50.851C45.8336 51.3319 46.4609 51.5828 47.1091 51.5828C47.7572 51.5828 48.3636 51.311 48.8236 50.8719L49.2209 50.4746C49.2209 50.4746 49.3254 50.6419 49.4091 50.7046L55.8281 57.1237L34.9609 77.97C34.5009 78.43 34.25 79.0364 34.25 79.7055C34.25 80.3746 34.5009 80.96 34.9609 81.4409L37.47 83.9291C37.93 84.41 38.5573 84.6818 39.2054 84.6818C39.8536 84.6818 40.4809 84.41 40.92 83.95L57.9609 66.9091C58.1909 67.6619 58.5881 68.3519 59.1527 68.9164L75.0644 84.8491C76.0054 85.79 77.239 86.25 78.4726 86.25C79.7063 86.25 80.9399 85.79 81.8808 84.8491L85.2262 81.5037C86.1253 80.5837 86.6271 79.3918 86.6271 78.0955C86.6271 76.7991 86.1253 75.6073 85.2262 74.6873L85.2681 74.6455ZM47.13 49.0946L40.4182 42.4874L42.8854 40.0201L49.5554 46.5646L47.13 49.0946ZM39.2682 82.1309L36.7382 79.7264L65.2372 51.2274C65.7181 50.7465 65.7181 49.9519 65.2372 49.4501L63.4599 47.6728C62.5608 46.7737 62.5608 45.3101 63.4599 44.411L71.0081 36.8838C71.4472 36.4447 72.0535 36.2147 72.639 36.2147C73.2245 36.2147 73.8308 36.4447 74.2699 36.8838L75.169 37.7828L70.7781 42.1947C70.3181 42.6546 70.0672 43.261 70.0672 43.9301C70.0672 44.5992 70.3181 45.1846 70.7781 45.6446L73.2872 48.1537C74.2281 49.0946 75.7754 49.0946 76.7372 48.1537L81.149 43.7419L81.839 44.4319C82.2781 44.871 82.529 45.4565 82.529 46.0837C82.529 46.6901 82.2781 47.2755 81.8599 47.6937L74.3326 55.2419C73.4544 56.1201 71.949 56.1201 71.0708 55.2419L69.5026 53.6528C69.2726 53.4228 68.9381 53.2764 68.6036 53.2764C68.269 53.2764 67.9554 53.4019 67.7254 53.6528L62.9372 58.4619C62.8117 58.5664 62.7072 58.6292 62.5817 58.7546L61.8081 59.5492L60.0308 61.3264L59.2363 62.1001C59.0899 62.2464 58.9645 62.4137 58.839 62.581L39.2682 82.1518V82.1309ZM83.4908 79.6846L80.1453 83.03C79.2463 83.9291 77.7826 83.9291 76.8835 83.03L60.9718 67.1182C60.5327 66.6791 60.3027 66.0937 60.3027 65.4873C60.3027 64.881 60.5118 64.4001 60.8881 63.9819L64.4845 60.3855C64.9027 60.0301 65.4045 59.8419 65.9481 59.8419C66.5336 59.8419 67.119 60.0719 67.579 60.511L83.4908 76.4437C83.9299 76.8828 84.1599 77.4682 84.1599 78.0746C84.1599 78.6809 83.9299 79.2664 83.4908 79.7055V79.6846Z" fill="#4E4E51"/>
</g>
<defs>
<clipPath id="clip0_5711_20617">
<rect width="120" height="120" rx="60" fill="white"/>
</clipPath>
</defs>
</svg>
