<svg width="120" height="120" viewBox="0 0 120 120" fill="none" xmlns="http://www.w3.org/2000/svg">
<g clip-path="url(#clip0_5711_22927)">
<circle cx="60" cy="60" r="60" fill="#F5F5F5"/>
<g clip-path="url(#clip1_5711_22927)">
<path fill-rule="evenodd" clip-rule="evenodd" d="M86.75 58.2772C86.75 63.4544 85.1528 68.3929 82.142 72.5787C82.4724 75.7731 83.9595 78.7105 86.3828 80.8768C86.7133 81.1706 86.8234 81.6662 86.6582 82.0885C86.5113 82.5107 86.0891 82.7861 85.6301 82.7861C81.8482 82.7861 78.2866 81.4092 75.4961 78.8941C71.5306 81.4459 66.9777 82.7861 62.2411 82.7861H62.241C61.9473 82.7861 61.6352 82.7861 61.3415 82.7678C58.294 85.9805 53.9981 88 49.2248 88C46.0854 88 43.0563 87.1371 40.4126 85.4849C38.5217 87.1004 36.135 88 33.6199 88C33.1609 88 32.757 87.7246 32.5918 87.284C32.4266 86.8618 32.5367 86.3844 32.8855 86.0723C34.3909 84.7322 35.3272 82.9146 35.5659 80.9135C33.5648 78.0863 32.5 74.7634 32.5 71.2752C32.5 66.5019 34.5195 62.206 37.7322 59.1585C37.7139 58.8647 37.7139 58.571 37.7139 58.2772C37.7139 44.7469 48.7291 33.75 62.2411 33.75C75.7531 33.75 86.75 44.7469 86.75 58.2772ZM40.9267 83.19C43.3684 84.8974 46.2323 85.797 49.2248 85.797C52.7129 85.797 55.9257 84.5486 58.4409 82.4924C59.1569 81.8865 59.8178 81.2256 60.4236 80.5096C62.4798 77.9945 63.7282 74.7817 63.7282 71.2752C63.7282 63.2892 57.2292 56.7718 49.2248 56.7718C45.7183 56.7718 42.5055 58.0202 39.9904 60.0948C39.2744 60.6822 38.6135 61.3615 38.0076 62.0775C35.9514 64.5743 34.703 67.7871 34.703 71.2752C34.703 74.4329 35.7128 77.4254 37.5854 79.9589C37.7506 80.1608 37.824 80.4362 37.8057 80.6932C37.6772 82.3639 37.1631 83.9427 36.3186 85.338C37.5119 84.9341 38.5951 84.2365 39.513 83.3185C39.715 83.0982 40.0087 82.9881 40.3025 82.9881C40.5228 82.9881 40.7431 83.0431 40.9267 83.19ZM75.0004 76.5809C75.441 76.2688 76.0285 76.3239 76.414 76.7094C78.1948 78.5269 80.4346 79.7569 82.8763 80.2893C81.1506 77.9945 80.1225 75.2591 79.9022 72.34C79.8838 72.083 79.9756 71.826 80.1225 71.6057C83.0232 67.732 84.547 63.1239 84.547 58.2772C84.547 45.9585 74.2661 35.953 62.2411 35.953C50.2162 35.953 40.3942 45.4812 39.9536 57.396C42.6157 55.5969 45.7917 54.5688 49.2248 54.5688C58.4409 54.5688 65.9312 62.0591 65.9312 71.2752C65.9312 74.7083 64.9031 77.8843 63.1223 80.5464C67.3999 80.3995 71.4756 79.041 75.0004 76.5809ZM42.9093 69.4025H42.9827C44.0108 69.4025 44.8553 70.247 44.8553 71.2751C44.8553 71.5504 44.8002 71.8075 44.6901 72.0461C44.3963 72.7071 43.7354 73.166 42.9827 73.166C42.9093 73.166 42.8358 73.166 42.7624 73.1477C41.8261 73.0375 41.0918 72.2481 41.0918 71.2751C41.0918 71.1098 41.1101 70.9263 41.1652 70.7794C41.3671 70.0083 42.0648 69.4392 42.9093 69.4025ZM49.2249 69.4025C48.1785 69.4025 47.334 70.247 47.334 71.2751C47.334 72.3032 48.1785 73.166 49.2249 73.166C50.2714 73.166 51.0975 72.3215 51.0975 71.2751C51.0975 70.2286 50.253 69.4025 49.2249 69.4025ZM53.5758 71.2751C53.5758 70.247 54.4203 69.4025 55.4667 69.4025C56.5132 69.4025 57.3577 70.2286 57.3577 71.2751C57.3577 72.3215 56.5132 73.166 55.4667 73.166C54.4203 73.166 53.5758 72.3032 53.5758 71.2751Z" fill="#4E4E51"/>
</g>
</g>
<defs>
<clipPath id="clip0_5711_22927">
<rect width="120" height="120" rx="60" fill="white"/>
</clipPath>
<clipPath id="clip1_5711_22927">
<rect width="56" height="56" fill="white" transform="translate(32.5 32)"/>
</clipPath>
</defs>
</svg>
