<svg width="120" height="120" viewBox="0 0 120 120" fill="none" xmlns="http://www.w3.org/2000/svg">
<g clip-path="url(#clip0_5711_471)">
<g clip-path="url(#clip1_5711_471)">
<path fill-rule="evenodd" clip-rule="evenodd" d="M70.7833 64.2258C71.0178 64.2593 71.2523 64.2593 71.4869 64.2593H71.4869C79.8975 64.2593 86.75 57.4069 86.75 49.013C86.75 40.6192 79.8975 33.75 71.4869 33.75C66.9801 33.75 62.9423 35.7102 60.1444 38.8265C59.2061 38.6255 58.2344 38.5082 57.2459 38.5082C48.8353 38.5082 41.9996 46.4162 41.9996 56.1336C41.9996 63.2373 45.652 69.3694 50.9128 72.1673C40.2069 73.5747 32.5 78.5339 32.5 84.6324V86.9947C32.5 87.5476 32.9356 88 33.5053 88H80.9866C81.5395 88 81.9918 87.5476 81.9918 86.9947V84.6324C81.9918 78.5339 74.2849 73.5747 63.579 72.1673C66.6785 70.5254 69.2251 67.7107 70.7833 64.2258ZM60.8648 41.1051C61.3004 40.5354 61.7695 39.9993 62.2889 39.4967C64.6512 37.1846 67.9183 35.7605 71.4869 35.7605C78.7918 35.7605 84.7395 41.7082 84.7395 49.013C84.7395 56.3179 78.8253 62.2153 71.554 62.2488H71.4869C70.8168 62.2488 70.1466 62.1986 69.4764 62.0981C67.7675 61.83 66.1256 61.2268 64.6345 60.3389C64.467 60.2383 64.2827 60.1881 64.0984 60.1881C63.8135 60.1881 63.5287 60.3054 63.3277 60.5567C62.7245 61.2939 62.0041 61.83 61.1664 62.1818C61.6858 61.2268 62.0376 60.2048 62.1381 59.1493C62.2554 58.7975 62.1716 58.4121 61.9203 58.1441C59.558 55.6645 58.2512 52.4141 58.2512 49.013C58.2512 46.0476 59.2229 43.3166 60.8648 41.1051ZM79.9813 84.6324V85.9895H34.5105V84.6324C34.5105 78.7349 44.9148 73.759 57.2459 73.759C69.577 73.759 79.9813 78.7349 79.9813 84.6324ZM57.2459 71.7485C49.9411 71.7485 44.0101 64.7452 44.0101 56.1336C44.0101 47.5219 49.9411 40.5019 57.2459 40.5019C57.7653 40.5019 58.2679 40.5354 58.7705 40.6192C57.1621 43.0318 56.2407 45.9135 56.2407 49.013C56.2407 52.766 57.6145 56.3514 60.1109 59.1493C59.9098 60.5567 59.1726 61.897 58.0669 62.8855C57.7485 63.1703 57.648 63.6059 57.7988 63.9913C57.9496 64.3934 58.3182 64.6447 58.737 64.6447C60.9486 64.6447 62.8586 63.8907 64.2994 62.4666C65.6733 63.2038 67.1476 63.7065 68.6722 64.008C66.3769 68.6322 62.1214 71.7485 57.2459 71.7485ZM71.4871 56.2176C70.5991 56.2176 69.8954 56.938 69.8954 57.8092C69.8954 58.6805 70.6158 59.4009 71.4871 59.4009C72.3583 59.4009 73.0787 58.6805 73.0787 57.8092C73.0787 56.938 72.3583 56.2176 71.4871 56.2176ZM68.0524 44.0536C68.0524 44.6065 67.6 45.0589 67.0471 45.0589V45.0421C66.4942 45.0421 66.0419 44.5898 66.0419 44.0369C66.0419 41.0211 68.488 38.575 71.5037 38.575C74.5195 38.575 76.9656 41.0211 76.9656 44.0369C76.9656 45.9803 75.9268 47.7898 74.2514 48.7615C73.1624 49.3982 72.509 50.5375 72.509 51.7605C72.509 52.3134 72.0566 52.7658 71.5037 52.7658C70.9508 52.7658 70.4985 52.3134 70.4985 51.7605C70.4985 49.8338 71.5372 48.0244 73.2127 47.0526C74.3017 46.416 74.9551 45.2767 74.9551 44.0536C74.9551 42.1436 73.4137 40.6023 71.5037 40.6023C69.5938 40.6023 68.0524 42.1604 68.0524 44.0536Z" fill="#4E4E51"/>
</g>
</g>
<defs>
<clipPath id="clip0_5711_471">
<rect width="120" height="120" rx="60" fill="white"/>
</clipPath>
<clipPath id="clip1_5711_471">
<rect width="56" height="56" fill="white" transform="translate(32.5 32)"/>
</clipPath>
</defs>
</svg>
