<svg width="120" height="120" viewBox="0 0 120 120" fill="none" xmlns="http://www.w3.org/2000/svg">
<g clip-path="url(#clip0_5711_25419)">
<circle cx="60" cy="60" r="60" fill="#F5F5F5"/>
<path d="M84.6733 76.1372L76.6112 68.0952V68.055L69.4136 60.8775L80.6523 49.6388C81.4163 48.8748 81.8385 47.8495 81.8385 46.7638C81.8385 45.6781 81.4163 44.6528 80.6523 43.8888L76.6313 39.8678C75.043 38.2795 72.4696 38.2795 70.9014 39.8678L59.6627 51.1065L52.5053 43.9692C52.5053 43.9692 52.4651 43.9089 52.445 43.8888C52.4249 43.8687 52.4048 43.8486 52.3847 43.8486L44.3628 35.8468C43.9205 35.3844 43.1163 35.3844 42.6539 35.8468L34.6119 43.8888C34.1294 44.3713 34.1294 45.1353 34.6119 45.5977L49.8716 60.8775L36.7028 74.0463C36.6023 74.1267 36.542 74.2071 36.4615 74.3076C36.4012 74.4082 36.3409 74.5087 36.3208 74.6293C36.2806 74.7298 36.2605 74.8505 36.2605 74.9711V83.0332C36.2605 83.6967 36.8033 84.2395 37.4668 84.2395H45.5289C45.6495 84.2395 45.7702 84.2395 45.8707 84.1792C45.9913 84.1591 46.0918 84.0988 46.1924 84.0384C46.2728 83.9982 46.3331 83.9379 46.3934 83.8776L59.6426 70.6284L74.9023 85.9082C75.1234 86.1294 75.4451 86.25 75.7467 86.25C76.0684 86.25 76.39 86.1294 76.6112 85.9082L84.6733 77.8461C85.1357 77.3636 85.1357 76.5996 84.6733 76.1372ZM37.1652 44.7533L43.5184 38.4001L45.8506 40.7323C45.8506 40.7323 45.7299 40.8328 45.6897 40.8731L43.6792 42.8836C43.1967 43.3661 43.1967 44.1301 43.6792 44.5925C43.9004 44.8337 44.2221 44.9544 44.5236 44.9544C44.8252 44.9544 45.1469 44.8337 45.3681 44.5925L47.3987 42.582C47.3987 42.582 47.4992 42.4815 47.5394 42.4211L49.8716 44.7533L46.695 47.9299C46.2125 48.3923 46.2125 49.1563 46.695 49.6388C46.9362 49.86 47.2378 49.9806 47.5394 49.9806C47.8611 49.9806 48.1626 49.86 48.4039 49.6388L51.5805 46.4622L53.9127 48.7944C53.9127 48.7944 53.792 48.8949 53.7518 48.9352L51.7413 50.9457C51.2588 51.4282 51.2588 52.1922 51.7413 52.6546C51.9625 52.8958 52.2842 53.0165 52.5857 53.0165C52.8873 53.0165 53.209 52.8958 53.4302 52.6546L55.4608 50.6441C55.4608 50.6441 55.5613 50.5234 55.5814 50.4631L57.9337 52.8154L51.5805 59.1686L37.1652 44.7533ZM57.9337 68.9195L45.5289 81.3243L39.1757 74.9711L51.5805 62.5663L53.2894 60.8775L59.6426 54.5243L61.3314 52.8154L72.5701 41.5767C73.2135 40.9334 74.2589 40.9334 74.9023 41.5767L78.9233 45.5977C79.2449 45.8993 79.4058 46.3215 79.4058 46.7638C79.4058 47.2061 79.2449 47.6082 78.9233 47.9299L67.6846 59.1686L65.9958 60.8775L59.6426 67.2307L57.9337 68.9195ZM75.7467 83.3348L61.3515 68.9396L67.7047 62.5864L70.0369 64.9186C70.0369 64.9186 69.9162 64.999 69.8559 65.0593L67.8454 67.0698C67.383 67.5323 67.383 68.2962 67.8454 68.7788C68.0867 68.9999 68.3883 69.1206 68.7099 69.1206C69.0115 69.1206 69.3131 68.9999 69.5543 68.7788L71.5648 66.7482C71.5648 66.7482 71.6654 66.6476 71.7056 66.5873L74.0579 68.9396L70.8813 72.0961C70.3988 72.5786 70.3988 73.3426 70.8813 73.805C71.1024 74.0463 71.4241 74.1669 71.7257 74.1669C72.0273 74.1669 72.3489 74.0463 72.5701 73.805L75.7467 70.6284L78.099 72.9807C78.099 72.9807 77.9783 73.0611 77.918 73.1214L75.9075 75.1319C75.4451 75.5944 75.4451 76.3583 75.9075 76.8409C76.1488 77.062 76.4504 77.1827 76.772 77.1827C77.0736 77.1827 77.3752 77.062 77.6164 76.8409L79.6269 74.8103C79.6269 74.8103 79.7275 74.7097 79.7677 74.6494L82.0999 76.9816L75.7467 83.3348Z" fill="#4E4E51"/>
</g>
<defs>
<clipPath id="clip0_5711_25419">
<rect width="120" height="120" rx="60" fill="white"/>
</clipPath>
</defs>
</svg>
