<svg width="40" height="40" viewBox="0 0 40 40" fill="none" xmlns="http://www.w3.org/2000/svg">
<path d="M36.8076 20.4025C36.8076 19.2129 36.7112 18.0169 36.5054 16.8467H19.9994V23.5854H29.4516C29.0594 25.7587 27.7991 27.6813 25.9537 28.903V33.2755H31.5928C34.9043 30.2276 36.8076 25.7266 36.8076 20.4025Z" fill="#4285F4"/>
<path d="M19.9994 37.5C24.7191 37.5 28.6993 35.9504 31.5992 33.2755L25.9601 28.903C24.3911 29.9704 22.3657 30.5748 20.0058 30.5748C15.4405 30.5748 11.5696 27.4948 10.1807 23.3539H4.36149V27.8613C7.33218 33.7706 13.3829 37.5 19.9994 37.5Z" fill="#34A853"/>
<path d="M10.1743 23.3539C9.44126 21.1805 9.44126 18.8271 10.1743 16.6538V12.1463H4.36151C1.87951 17.091 1.87949 22.9166 4.36149 27.8613L10.1743 23.3539Z" fill="#FBBC04"/>
<path d="M19.9994 9.42635C22.4943 9.38777 24.9055 10.3266 26.7124 12.0498L31.7085 7.05366C28.5449 4.08297 24.3461 2.44974 19.9994 2.50118C13.3829 2.50118 7.3322 6.23063 4.36151 12.1463L10.1743 16.6538C11.5567 12.5064 15.4341 9.42635 19.9994 9.42635Z" fill="#EA4335"/>
</svg>
