<svg width="25" height="24" viewBox="0 0 25 24" fill="none" xmlns="http://www.w3.org/2000/svg">
<path d="M12.5 8.332C10.476 8.332 8.832 9.976 8.832 12C8.832 14.024 10.476 15.672 12.5 15.672C14.524 15.672 16.172 14.024 16.172 12C16.172 9.976 14.524 8.332 12.5 8.332Z" fill="#2D2C2E"/>
<path d="M18.036 2H6.964C4.504 2 2.5 4.004 2.5 6.464V17.536C2.5 20 4.504 22 6.964 22H18.036C20.5 22 22.5 20 22.5 17.536V6.464C22.5 4.004 20.5 2 18.036 2ZM12.5 18.48C8.928 18.48 6.02 15.572 6.02 12C6.02 8.428 8.928 5.524 12.5 5.524C16.072 5.524 18.98 8.428 18.98 12C18.98 15.572 16.072 18.48 12.5 18.48ZM19.116 6.7C18.36 6.7 17.744 6.088 17.744 5.332C17.744 4.576 18.36 3.96 19.116 3.96C19.872 3.96 20.488 4.576 20.488 5.332C20.488 6.088 19.872 6.7 19.116 6.7Z" fill="#2D2C2E"/>
</svg>
