<svg width="25" height="24" viewBox="0 0 25 24" fill="none" xmlns="http://www.w3.org/2000/svg">
<g clip-path="url(#clip0_5214_313)">
<path d="M12.5 0.750122C5.885 0.750122 0.5 5.14812 0.5 10.5531C0.5 15.3941 4.77 19.4501 10.535 20.2211C10.926 20.3041 11.458 20.4811 11.593 20.8151C11.713 21.1181 11.672 21.5861 11.631 21.9021L11.467 22.9281C11.422 23.2311 11.227 24.1211 12.516 23.5771C13.807 23.0351 19.432 19.4731 21.952 16.5581C23.676 14.6581 24.5 12.7111 24.5 10.5531C24.5 5.14812 19.115 0.750122 12.5 0.750122ZM7.803 13.7671H5.417C5.072 13.7671 4.787 13.4801 4.787 13.1341V8.33312C4.787 7.98612 5.072 7.69912 5.417 7.69912C5.765 7.69912 6.047 7.98612 6.047 8.33312V12.5001H7.803C8.151 12.5001 8.432 12.7851 8.432 13.1341C8.432 13.4801 8.15 13.7671 7.803 13.7671ZM10.269 13.1341C10.269 13.4801 9.987 13.7671 9.638 13.7671C9.293 13.7671 9.011 13.4801 9.011 13.1341V8.33312C9.011 7.98612 9.293 7.69912 9.641 7.69912C9.987 7.69912 10.269 7.98612 10.269 8.33312V13.1341ZM16.01 13.1341C16.01 13.4061 15.836 13.6471 15.578 13.7341C15.514 13.7551 15.445 13.7651 15.379 13.7651C15.168 13.7651 14.988 13.6741 14.869 13.5131L12.426 10.1751V13.1331C12.426 13.4791 12.147 13.7661 11.795 13.7661C11.449 13.7661 11.169 13.4791 11.169 13.1331V8.33312C11.169 8.06112 11.342 7.82012 11.599 7.73412C11.659 7.71112 11.735 7.70112 11.793 7.70112C11.988 7.70112 12.168 7.80612 12.288 7.95712L14.75 11.3081V8.33312C14.75 7.98612 15.032 7.69912 15.38 7.69912C15.725 7.69912 16.01 7.98612 16.01 8.33312V13.1341ZM19.865 10.0991C20.214 10.0991 20.495 10.3861 20.495 10.7341C20.495 11.0811 20.214 11.3681 19.865 11.3681H18.11V12.5001H19.865C20.214 12.5001 20.495 12.7851 20.495 13.1341C20.495 13.4801 20.214 13.7671 19.865 13.7671H17.479C17.134 13.7671 16.852 13.4801 16.852 13.1341V8.33312C16.852 7.98612 17.134 7.69912 17.482 7.69912H19.868C20.214 7.69912 20.495 7.98612 20.495 8.33312C20.495 8.68412 20.214 8.96712 19.865 8.96712H18.11V10.0991H19.865Z" fill="#2D2C2E"/>
</g>
<defs>
<clipPath id="clip0_5214_313">
<rect width="24" height="24" fill="white" transform="translate(0.5)"/>
</clipPath>
</defs>
</svg>
