<svg width="60" height="60" viewBox="0 0 60 60" fill="none" xmlns="http://www.w3.org/2000/svg">
<circle cx="30" cy="30" r="29.75" stroke="#4E4E51" stroke-width="0.5"/>
<path fill-rule="evenodd" clip-rule="evenodd" d="M39.9103 15C37.1083 15 34.8206 17.2773 34.8206 20.0897V31.3605H15.2173C14.5457 31.3605 14 31.9062 14 32.5884V34.3724C14 35.044 14.5457 35.5897 15.2173 35.5897H34.8206V40.9103C34.8206 43.7227 37.1083 46 39.9103 46C42.7123 46 45 43.7227 45 40.9103V20.0897C45 17.2773 42.7227 15 39.9103 15ZM15.2173 32.6198L34.8206 32.5989H40.7708V34.3304H36.0799L34.8206 34.3409L15.2593 34.3724L15.2173 32.6198ZM43.7407 40.9103C43.7407 43.0301 42.0301 44.7512 39.9103 44.7512C37.7905 44.7512 36.0799 43.0301 36.0799 40.9103V35.5897H40.8023C41.4844 35.5897 42.0301 35.044 42.0301 34.3724V32.5884C42.0301 31.9062 41.4844 31.3605 40.8023 31.3605H36.0799V20.0897C36.0799 17.9804 37.8009 16.2593 39.9103 16.2593C42.0196 16.2593 43.7407 17.9804 43.7407 20.0897V40.9103ZM38.4201 19.0296C37.8324 19.0296 37.3602 19.5019 37.3602 20.0895C37.3602 20.6772 37.8324 21.1495 38.4201 21.1495C39.0078 21.1495 39.48 20.6772 39.48 20.0895C39.48 19.5019 39.0078 19.0296 38.4201 19.0296ZM40.3407 20.0895C40.3407 19.5019 40.8129 19.0296 41.4006 19.0296C41.9883 19.0296 42.4605 19.5019 42.4605 20.0895C42.4605 20.6772 41.9883 21.1495 41.4006 21.1495C40.8129 21.1495 40.3407 20.6772 40.3407 20.0895ZM38.4201 22.7554C37.8324 22.7554 37.3602 23.2276 37.3602 23.8153C37.3602 24.403 37.8324 24.8752 38.4201 24.8752C39.0078 24.8752 39.48 24.403 39.48 23.8153C39.48 23.2276 39.0078 22.7554 38.4201 22.7554ZM40.3407 23.8153C40.3407 23.2276 40.8129 22.7554 41.4006 22.7554C41.9883 22.7554 42.4605 23.2276 42.4605 23.8153C42.4605 24.403 41.9883 24.8752 41.4006 24.8752C40.8129 24.8752 40.3407 24.403 40.3407 23.8153ZM38.4201 26.4704C37.8324 26.4704 37.3602 26.9426 37.3602 27.5303C37.3602 28.118 37.8324 28.5902 38.4201 28.5902C39.0078 28.5902 39.48 28.118 39.48 27.5303C39.48 26.9426 39.0078 26.4704 38.4201 26.4704ZM42.4605 27.5303C42.4605 28.1157 41.986 28.5902 41.4006 28.5902C40.8152 28.5902 40.3407 28.1157 40.3407 27.5303C40.3407 26.9449 40.8152 26.4704 41.4006 26.4704C41.986 26.4704 42.4605 26.9449 42.4605 27.5303Z" fill="black"/>
</svg>
