<svg width="20" height="20" viewBox="0 0 20 20" fill="none" xmlns="http://www.w3.org/2000/svg">
<g clip-path="url(#clip0_2234_10350)">
<path d="M19.4896 10.0573C19.4896 4.84798 15.2666 0.625 10.0573 0.625C4.84798 0.625 0.625 4.84798 0.625 10.0573C0.625 14.7652 4.07424 18.6674 8.5835 19.375V12.7838H6.18858V10.0573H8.5835V7.97924C8.5835 5.61527 9.99171 4.30949 12.1462 4.30949C13.1779 4.30949 14.2576 4.49371 14.2576 4.49371V6.81494H13.0683C11.8966 6.81494 11.5311 7.54208 11.5311 8.28874V10.0573H14.1471L13.7289 12.7838H11.5311V19.375C16.0404 18.6674 19.4896 14.7652 19.4896 10.0573Z" fill="white"/>
</g>
<defs>
<clipPath id="clip0_2234_10350">
<rect width="20" height="20" fill="white"/>
</clipPath>
</defs>
</svg>
