<svg width="20" height="20" viewBox="0 0 20 20" fill="none" xmlns="http://www.w3.org/2000/svg">
<path d="M10.0003 6.94317C8.31366 6.94317 6.94366 8.31317 6.94366 9.99984C6.94366 11.6865 8.31366 13.0598 10.0003 13.0598C11.687 13.0598 13.0603 11.6865 13.0603 9.99984C13.0603 8.31317 11.687 6.94317 10.0003 6.94317Z" fill="#ffffff"/>
<path d="M14.6137 1.6665H5.38699C3.33699 1.6665 1.66699 3.3365 1.66699 5.3865V14.6132C1.66699 16.6665 3.33699 18.3332 5.38699 18.3332H14.6137C16.667 18.3332 18.3337 16.6665 18.3337 14.6132V5.3865C18.3337 3.3365 16.667 1.6665 14.6137 1.6665ZM10.0003 15.3998C7.02366 15.3998 4.60033 12.9765 4.60033 9.99984C4.60033 7.02317 7.02366 4.60317 10.0003 4.60317C12.977 4.60317 15.4003 7.02317 15.4003 9.99984C15.4003 12.9765 12.977 15.3998 10.0003 15.3998ZM15.5137 5.58317C14.8837 5.58317 14.3703 5.07317 14.3703 4.44317C14.3703 3.81317 14.8837 3.29984 15.5137 3.29984C16.1437 3.29984 16.657 3.81317 16.657 4.44317C16.657 5.07317 16.1437 5.58317 15.5137 5.58317Z" fill="#ffffff"/>
</svg>
