<svg width="20" height="20" viewBox="0 0 20 20" fill="none" xmlns="http://www.w3.org/2000/svg">
<g clip-path="url(#clip0_2234_10351)">
<path d="M10 0.625C4.4875 0.625 0 4.29 0 8.79417C0 12.8283 3.55833 16.2083 8.3625 16.8508C8.68833 16.92 9.13167 17.0675 9.24417 17.3458C9.34417 17.5983 9.31 17.9883 9.27583 18.2517L9.13917 19.1067C9.10167 19.3592 8.93917 20.1008 10.0133 19.6475C11.0892 19.1958 15.7767 16.2275 17.8767 13.7983C19.3133 12.215 20 10.5925 20 8.79417C20 4.29 15.5125 0.625 10 0.625ZM6.08583 11.4725H4.0975C3.81 11.4725 3.5725 11.2333 3.5725 10.945V6.94417C3.5725 6.655 3.81 6.41583 4.0975 6.41583C4.3875 6.41583 4.6225 6.655 4.6225 6.94417V10.4167H6.08583C6.37583 10.4167 6.61 10.6542 6.61 10.945C6.61 11.2333 6.375 11.4725 6.08583 11.4725ZM8.14083 10.945C8.14083 11.2333 7.90583 11.4725 7.615 11.4725C7.3275 11.4725 7.0925 11.2333 7.0925 10.945V6.94417C7.0925 6.655 7.3275 6.41583 7.6175 6.41583C7.90583 6.41583 8.14083 6.655 8.14083 6.94417V10.945ZM12.925 10.945C12.925 11.1717 12.78 11.3725 12.565 11.445C12.5117 11.4625 12.4542 11.4708 12.3992 11.4708C12.2233 11.4708 12.0733 11.395 11.9742 11.2608L9.93833 8.47917V10.9442C9.93833 11.2325 9.70583 11.4717 9.4125 11.4717C9.12417 11.4717 8.89083 11.2325 8.89083 10.9442V6.94417C8.89083 6.7175 9.035 6.51667 9.24917 6.445C9.29917 6.42583 9.3625 6.4175 9.41083 6.4175C9.57333 6.4175 9.72333 6.505 9.82333 6.63083L11.875 9.42333V6.94417C11.875 6.655 12.11 6.41583 12.4 6.41583C12.6875 6.41583 12.925 6.655 12.925 6.94417V10.945ZM16.1375 8.41583C16.4283 8.41583 16.6625 8.655 16.6625 8.945C16.6625 9.23417 16.4283 9.47333 16.1375 9.47333H14.675V10.4167H16.1375C16.4283 10.4167 16.6625 10.6542 16.6625 10.945C16.6625 11.2333 16.4283 11.4725 16.1375 11.4725H14.1492C13.8617 11.4725 13.6267 11.2333 13.6267 10.945V6.94417C13.6267 6.655 13.8617 6.41583 14.1517 6.41583H16.14C16.4283 6.41583 16.6625 6.655 16.6625 6.94417C16.6625 7.23667 16.4283 7.4725 16.1375 7.4725H14.675V8.41583H16.1375Z" fill="white"/>
</g>
<defs>
<clipPath id="clip0_2234_10351">
<rect width="20" height="20" fill="white"/>
</clipPath>
</defs>
</svg>
