<svg width="20" height="20" viewBox="0 0 20 20" fill="none" xmlns="http://www.w3.org/2000/svg">
<g clip-path="url(#clip0_2234_10353)">
<path d="M19.5879 5.31617C19.3575 4.45935 18.6819 3.78394 17.8252 3.55322C16.2602 3.125 9.99977 3.125 9.99977 3.125C9.99977 3.125 3.73963 3.125 2.17456 3.53699C1.33435 3.76746 0.642335 4.45948 0.411866 5.31617C0 6.88111 0 10.1266 0 10.1266C0 10.1266 0 13.3884 0.411866 14.937C0.642579 15.7937 1.31787 16.4691 2.17469 16.6999C3.75611 17.1282 10 17.1282 10 17.1282C10 17.1282 16.2602 17.1282 17.8252 16.7162C18.682 16.4856 19.3575 15.8102 19.5882 14.9535C19.9999 13.3884 19.9999 10.1431 19.9999 10.1431C19.9999 10.1431 20.0164 6.88111 19.5879 5.31617ZM8.00661 13.1249V7.1283L13.2124 10.1266L8.00661 13.1249Z" fill="white"/>
</g>
<defs>
<clipPath id="clip0_2234_10353">
<rect width="20" height="20" fill="white"/>
</clipPath>
</defs>
</svg>
