<svg width="57" height="56" viewBox="0 0 57 56" fill="none" xmlns="http://www.w3.org/2000/svg">
<g id="icon/brandname" clip-path="url(#clip0_10761_22349)">
<g id="Yale">
<path d="M0.5 15.75H3.68446L10.5783 27.7481L17.5421 15.75H20.6566L12.048 30.3844V39.7463H9.14353V30.3506L0.5 15.75Z" fill="#4E4E51"/>
<path d="M17.1971 34.947C17.1971 33.122 17.9319 31.8039 19.3317 30.9589C20.4165 30.3168 21.8163 30.0126 24.1959 30.0126H28.9201V28.7283C28.9201 26.6666 28.3602 24.8078 24.7208 24.8078C21.6763 24.8078 20.8015 26.1935 20.6265 27.6468H17.9319C18.1769 24.9091 19.9966 22.5095 24.7208 22.5095C30.3548 22.5095 31.7196 25.7203 31.7196 28.8635V39.7463H28.9551V37.8536C27.8353 39.3745 25.6306 40.0167 23.461 40.0167C18.3869 40.0167 17.1971 37.0087 17.1971 34.947ZM19.9266 34.9132C19.9266 36.1975 20.5565 37.8198 23.9509 37.8198C26.8554 37.8198 28.9201 36.6031 28.9201 34.6091V32.1418H24.3009C22.6212 32.1418 21.7113 32.3108 21.0464 32.7164C20.3115 33.1896 19.9266 33.8993 19.9266 34.9132Z" fill="#4E4E51"/>
<path d="M40.5769 39.8477C35.9927 40.0505 34.488 38.4958 34.488 35.1836V15.75H37.2875V35.0146C37.2875 37.0087 38.1273 37.5494 40.5769 37.4143V39.8477Z" fill="#4E4E51"/>
<path d="M40.917 31.4659C40.917 27.6805 42.3868 22.5095 48.8607 22.5095C54.7047 22.5095 56.6643 26.8018 56.4894 32.0404H43.7515C43.8565 34.9132 44.8363 37.7522 49.0356 37.7522C52.1501 37.7522 53.1999 36.2651 53.5149 34.9808H56.2094C55.8595 37.4818 53.6548 40.0167 48.9656 40.0167C42.3518 40.0167 40.917 34.947 40.917 31.4659ZM43.8215 29.9112H53.6198C53.4449 27.3088 52.5 24.8078 48.8257 24.8078C45.2213 24.8078 44.0315 27.3088 43.8215 29.9112Z" fill="#4E4E51"/>
</g>
</g>
<defs>
<clipPath id="clip0_10761_22349">
<rect width="56" height="56" fill="white" transform="translate(0.5)"/>
</clipPath>
</defs>
</svg>
