<svg width="57" height="56" viewBox="0 0 57 56" fill="none" xmlns="http://www.w3.org/2000/svg">
<g id="icon/chat" clip-path="url(#clip0_10761_27906)">
<path id="Union" fill-rule="evenodd" clip-rule="evenodd" d="M54.75 26.2772C54.75 31.4544 53.1528 36.3929 50.142 40.5787C50.4724 43.7731 51.9595 46.7105 54.3828 48.8768C54.7133 49.1706 54.8234 49.6662 54.6582 50.0885C54.5113 50.5107 54.0891 50.7861 53.6301 50.7861C49.8482 50.7861 46.2866 49.4092 43.4961 46.8941C39.5306 49.4459 34.9777 50.7861 30.2411 50.7861H30.241C29.9473 50.7861 29.6352 50.7861 29.3415 50.7678C26.294 53.9805 21.9981 56 17.2248 56C14.0854 56 11.0563 55.1371 8.41261 53.4849C6.52166 55.1004 4.13503 56 1.61988 56C1.16091 56 0.757022 55.7246 0.591794 55.284C0.426565 54.8618 0.536717 54.3844 0.885533 54.0723C2.39095 52.7322 3.32724 50.9146 3.56591 48.9135C1.56481 46.0863 0.5 42.7634 0.5 39.2752C0.5 34.5019 2.51946 30.206 5.73223 27.1585C5.71387 26.8647 5.71387 26.571 5.71387 26.2772C5.71387 12.7469 16.7291 1.75 30.2411 1.75C43.7531 1.75 54.75 12.7469 54.75 26.2772ZM8.92665 51.19C11.3684 52.8974 14.2323 53.797 17.2248 53.797C20.7129 53.797 23.9257 52.5486 26.4409 50.4924C27.1569 49.8865 27.8178 49.2256 28.4236 48.5096C30.4798 45.9945 31.7282 42.7817 31.7282 39.2752C31.7282 31.2892 25.2292 24.7718 17.2248 24.7718C13.7183 24.7718 10.5055 26.0202 7.99036 28.0948C7.27437 28.6822 6.61345 29.3615 6.00761 30.0775C3.95144 32.5743 2.70305 35.7871 2.70305 39.2752C2.70305 42.4329 3.71277 45.4254 5.58536 47.9589C5.75059 48.1608 5.82403 48.4362 5.80567 48.6932C5.67716 50.3639 5.16311 51.9427 4.31861 53.338C5.51193 52.9341 6.59509 52.2365 7.51303 51.3185C7.71497 51.0982 8.00871 50.9881 8.30245 50.9881C8.52276 50.9881 8.74306 51.0431 8.92665 51.19ZM43.0004 44.5809C43.441 44.2688 44.0285 44.3239 44.414 44.7094C46.1948 46.5269 48.4346 47.7569 50.8763 48.2893C49.1506 45.9945 48.1225 43.2591 47.9022 40.34C47.8838 40.083 47.9756 39.826 48.1225 39.6057C51.0232 35.732 52.547 31.1239 52.547 26.2772C52.547 13.9585 42.2661 3.95305 30.2411 3.95305C18.2162 3.95305 8.39425 13.4812 7.95364 25.396C10.6157 23.5969 13.7917 22.5688 17.2248 22.5688C26.4409 22.5688 33.9312 30.0591 33.9312 39.2752C33.9312 42.7083 32.9031 45.8843 31.1223 48.5464C35.3999 48.3995 39.4756 47.041 43.0004 44.5809ZM10.9093 37.4025H10.9827C12.0108 37.4025 12.8553 38.247 12.8553 39.2751C12.8553 39.5504 12.8002 39.8075 12.6901 40.0461C12.3963 40.7071 11.7354 41.166 10.9827 41.166C10.9093 41.166 10.8358 41.166 10.7624 41.1477C9.8261 41.0375 9.09175 40.2481 9.09175 39.2751C9.09175 39.1098 9.11011 38.9263 9.16519 38.7794C9.36713 38.0083 10.0648 37.4392 10.9093 37.4025ZM17.2249 37.4025C16.1785 37.4025 15.334 38.247 15.334 39.2751C15.334 40.3032 16.1785 41.166 17.2249 41.166C18.2714 41.166 19.0975 40.3215 19.0975 39.2751C19.0975 38.2286 18.253 37.4025 17.2249 37.4025ZM21.5758 39.2751C21.5758 38.247 22.4203 37.4025 23.4667 37.4025C24.5132 37.4025 25.3577 38.2286 25.3577 39.2751C25.3577 40.3215 24.5132 41.166 23.4667 41.166C22.4203 41.166 21.5758 40.3032 21.5758 39.2751Z" fill="#4E4E51"/>
</g>
<defs>
<clipPath id="clip0_10761_27906">
<rect width="56" height="56" fill="white" transform="translate(0.5)"/>
</clipPath>
</defs>
</svg>
