<svg width="57" height="56" viewBox="0 0 57 56" fill="none" xmlns="http://www.w3.org/2000/svg">
<g id="icon/showroom" clip-path="url(#clip0_10761_17408)">
<path id="Union" fill-rule="evenodd" clip-rule="evenodd" d="M57.0911 48.9023H53.3331V36.7382C53.3331 36.23 52.8782 35.8143 52.322 35.8143H48.5641V6.17386C48.5641 5.66574 48.1091 5.25 47.553 5.25H4.53019C3.97407 5.25 3.51907 5.66574 3.51907 6.17386V48.9023H-0.238889C-0.795 48.9023 -1.25 49.318 -1.25 49.8261C-1.25 50.3343 -0.795 50.75 -0.238889 50.75H57.0911C57.6472 50.75 58.1022 50.3343 58.1022 49.8261C58.1022 49.318 57.6472 48.9023 57.0911 48.9023ZM51.2941 37.662V48.9023H34.2063V37.662H51.2941ZM40.273 28.9316L38.3856 35.8143H37.5261L35.6387 28.9316H35.6556H40.273ZM37.9727 11.4707C38.7272 11.4749 39.3461 12.0429 39.3461 12.7332V13.9959H36.5993V12.7332C36.5993 12.0429 37.2182 11.4749 37.9727 11.4707ZM16.4697 11.4707C17.2242 11.4749 17.8431 12.0429 17.8431 12.7332V13.9959H15.0963V12.7332C15.0963 12.0429 15.7152 11.4749 16.4697 11.4707ZM5.5413 7.09772H15.467V9.7769C14.0852 10.1772 13.0741 11.3321 13.0741 12.7332V14.9197C13.0741 15.4278 13.5291 15.8436 14.0852 15.8436H18.8543C19.4104 15.8436 19.8654 15.4278 19.8654 14.9197V12.7332C19.8654 11.3475 18.8543 10.1772 17.4724 9.7769V7.09772H36.9531V9.7769C35.5713 10.1772 34.5602 11.3321 34.5602 12.7332V14.9197C34.5602 15.4278 35.0152 15.8436 35.5713 15.8436H40.3404C40.8965 15.8436 41.3515 15.4278 41.3515 14.9197V12.7332C41.3515 11.3475 40.3404 10.1772 38.9585 9.7769V7.09772H46.4913V35.7989H40.4583L42.5311 28.2233C42.5985 27.9461 42.5311 27.6536 42.3457 27.438C42.1604 27.207 41.857 27.0838 41.5537 27.0838H34.3411C34.0378 27.0838 33.7344 27.207 33.5491 27.438C33.3637 27.669 33.2963 27.9461 33.3637 28.2233L35.4365 35.7989H33.1783C32.6222 35.7989 32.1672 36.2146 32.1672 36.7228V48.8869H5.5413V7.09772ZM11.5741 18.5072C11.3887 18.6919 11.1191 18.7843 10.8663 18.7843L10.8495 18.7689C10.5967 18.7689 10.3439 18.6919 10.1417 18.5072C9.75409 18.1376 9.75409 17.5525 10.1417 17.1984L11.473 15.9819C11.8774 15.6278 12.5178 15.6278 12.9054 15.9819C13.293 16.3515 13.293 16.9366 12.9054 17.2907L11.5741 18.5072ZM17.4891 19.262C17.4891 19.7701 17.0341 20.1858 16.478 20.1858C15.9219 20.1858 15.4669 19.7701 15.4669 19.262V17.0755C15.4669 16.5674 15.9219 16.1516 16.478 16.1516C17.0341 16.1516 17.4891 16.5674 17.4891 17.0755V19.262ZM21.3821 18.5075C21.5843 18.6923 21.8371 18.7847 22.0898 18.7847C22.3426 18.7847 22.6123 18.6923 22.7976 18.5229C23.1852 18.1688 23.1852 17.5837 22.7976 17.2141L21.4663 15.9977C21.0787 15.6436 20.4384 15.6436 20.0339 15.9977C19.6463 16.3519 19.6463 16.937 20.0339 17.3065L21.3652 18.5229L21.3821 18.5075ZM38.9921 19.262C38.9921 19.7701 38.5371 20.1858 37.981 20.1858C37.4249 20.1858 36.9699 19.7701 36.9699 19.262V17.0755C36.9699 16.5674 37.4249 16.1516 37.981 16.1516C38.5371 16.1516 38.9921 16.5674 38.9921 17.0755V19.262ZM33.0771 18.5072L34.4084 17.2907C34.796 16.9366 34.796 16.3515 34.4084 15.9819C34.0208 15.6278 33.3804 15.6278 32.976 15.9819L31.6447 17.1984C31.2571 17.5525 31.2571 18.1376 31.6447 18.5072C31.8469 18.6919 32.0997 18.7689 32.3524 18.7689C32.6052 18.7689 32.8749 18.6765 33.0602 18.4918L33.0771 18.5072ZM43.5928 18.7843C43.3401 18.7843 43.0873 18.6919 42.8851 18.5072H42.8682L41.5369 17.2907C41.1493 16.9212 41.1493 16.3361 41.5369 15.9819C41.9413 15.6278 42.5817 15.6278 42.9693 15.9819L44.3006 17.1984C44.6882 17.5679 44.6882 18.153 44.3006 18.5072C44.1152 18.6919 43.8456 18.7843 43.5928 18.7843ZM9.31598 22.7107H23.6401C24.1962 22.7107 24.6512 23.1264 24.6512 23.6345V36.7225C24.6512 37.2306 24.1962 37.6464 23.6401 37.6464H9.31598C8.75987 37.6464 8.30487 37.2306 8.30487 36.7225V23.6345C8.30487 23.1264 8.75987 22.7107 9.31598 22.7107ZM10.3271 35.7987H22.6289V24.5584H10.3271V35.7987Z" fill="#4E4E51"/>
</g>
<defs>
<clipPath id="clip0_10761_17408">
<rect width="56" height="56" fill="white" transform="translate(0.5)"/>
</clipPath>
</defs>
</svg>
