<svg width="57" height="56" viewBox="0 0 57 56" fill="none" xmlns="http://www.w3.org/2000/svg">
<g id="icon/store" clip-path="url(#clip0_10761_6640)">
<path id="Union" fill-rule="evenodd" clip-rule="evenodd" d="M47.6411 3.95314H44.4689L44.5819 4.97541L46.0594 18.3355C46.0639 18.3762 46.0661 18.4166 46.0662 18.4566H46.0844C46.0844 20.2348 47.5373 21.6877 49.3155 21.6877C51.0381 21.6877 52.4553 20.3244 52.5424 18.6227L47.6411 3.95314ZM42.2524 3.95314H36.7026L36.9381 8.8348L37.3997 18.4035C37.4005 18.4213 37.401 18.439 37.401 18.4566H37.4192C37.4192 20.2348 38.8721 21.6877 40.6503 21.6877C42.3704 21.6877 43.7859 20.3284 43.8768 18.6302C43.874 18.6128 43.8717 18.5953 43.8697 18.5776L42.4827 6.03532L42.2524 3.95314ZM34.4971 3.95314H28.7172V12.9856V18.1733C28.7412 18.2637 28.754 18.3587 28.754 18.4566C28.754 20.2348 30.2068 21.6877 31.9851 21.6877C33.7052 21.6877 35.1208 20.3283 35.2116 18.63C35.2053 18.5906 35.2012 18.5504 35.1992 18.5096L34.785 9.92194L34.4971 3.95314ZM26.5142 3.95314H20.9757L20.1263 17.3232L20.0523 18.4875C20.069 20.2516 21.5153 21.6877 23.2833 21.6877C25.056 21.6877 26.5054 20.2438 26.5143 18.4731L26.5142 18.4566V14.0979V3.95314ZM18.7682 3.95314H12.9963L11.3754 18.4566H11.3869C11.3869 20.2348 12.8398 21.6877 14.618 21.6877C16.3908 21.6877 17.8402 20.2437 17.8491 18.4729C17.8487 18.4444 17.8494 18.4157 17.8512 18.3867L18.7682 3.95314ZM10.7796 3.95314H7.59156L2.7238 18.5736C2.78587 20.2981 4.21372 21.6877 5.9528 21.6877C7.67234 21.6877 9.0876 20.3292 9.17919 18.6316C9.16378 18.5355 9.16095 18.4357 9.17229 18.3342L10.7796 3.95314ZM6.70397 1.75398C6.24368 1.79238 5.86382 2.1138 5.7389 2.5437L0.556702 18.1086C0.492921 18.3002 0.48469 18.4969 0.523264 18.6812C0.638085 21.4871 2.89376 23.7532 5.69546 23.8847V54.8782C5.69534 54.8849 5.69528 54.8916 5.69528 54.8983C5.69528 55.1669 5.79141 55.413 5.95113 55.6041C6.15318 55.8461 6.4571 56 6.79697 56C6.80429 56 6.8116 55.9999 6.81888 55.9998H48.4125C48.4198 55.9999 48.4271 56 48.4345 56C49.0428 56 49.536 55.5068 49.536 54.8985V23.8863C52.418 23.7706 54.7316 21.3963 54.7496 18.4907C54.7522 18.4053 54.7449 18.3186 54.7268 18.2322C54.7166 18.183 54.7032 18.135 54.6866 18.0884L49.4792 2.50275C49.3952 2.25123 49.2292 2.05016 49.0209 1.91933C48.8917 1.83782 48.7443 1.78243 48.5863 1.76057C48.5311 1.75284 48.475 1.74928 48.4184 1.75012H6.81328C6.77662 1.74958 6.74014 1.75088 6.70397 1.75398ZM47.3329 53.7968V23.5159C46.3948 23.1467 45.5831 22.5236 44.9829 21.7319C43.9896 23.0423 42.4166 23.8907 40.6503 23.8907C38.884 23.8907 37.3111 23.0423 36.3177 21.7319C35.3244 23.0423 33.7514 23.8907 31.9851 23.8907C30.2079 23.8907 28.6264 23.0318 27.6342 21.7076C26.6419 23.0318 25.0604 23.8907 23.2833 23.8907C21.517 23.8907 19.944 23.0423 18.9506 21.7319C17.9573 23.0423 16.3843 23.8907 14.618 23.8907C12.8517 23.8907 11.2788 23.0423 10.2854 21.7319C9.6774 22.534 8.85223 23.163 7.89849 23.5303V53.7968H47.3329ZM12.011 27.7642C11.4026 27.7642 10.9094 28.2574 10.9094 28.8657V44.4705C10.9094 45.0788 11.4026 45.572 12.011 45.572H43.2388C43.8472 45.572 44.3403 45.0788 44.3403 44.4705V28.8657C44.3403 28.2574 43.8472 27.7642 43.2388 27.7642H12.011ZM13.1125 43.369V29.9672H42.1373V43.369H13.1125Z" fill="#4E4E51"/>
</g>
<defs>
<clipPath id="clip0_10761_6640">
<rect width="56" height="56" fill="white" transform="translate(0.5)"/>
</clipPath>
</defs>
</svg>
